<?xml version="1.0" standalone="no"?>
<!DOCTYPE svg PUBLIC "-//W3C//DTD SVG 1.1//EN" "http://www.w3.org/Graphics/SVG/1.1/DTD/svg11.dtd" >
<svg xmlns="http://www.w3.org/2000/svg" xmlns:xlink="http://www.w3.org/1999/xlink" version="1.1">
<metadata>
Created by FontForge 20170731 at Mon Jun 12 14:49:10 2023
 By Aleksey,,,
Copyright (c) 2014 by Vyacheslav Kirilenko, Gayane Bagdasaryan. All rights reserved.
</metadata>
<defs>
<font id="Formular-Bold" horiz-adv-x="1314" >
  <font-face 
    font-family="Formular"
    font-weight="700"
    font-stretch="normal"
    units-per-em="2048"
    panose-1="2 0 0 0 0 0 0 0 0 0"
    ascent="1587"
    descent="-461"
    x-height="1053"
    cap-height="1462"
    bbox="-287 -475 2867 2003"
    underline-thickness="102"
    underline-position="-307"
    unicode-range="U+0020-FB02"
  />
<missing-glyph horiz-adv-x="1058" 
d="M950 0h-844v1462h844v-1462zM258 1325v-1188h545v1188h-545z" />
    <glyph glyph-name="fi" unicode="fi" horiz-adv-x="1390" 
d="M754 1053v-240h-265v-813h-286v813h-154v240h154v75q0 361 415 361h136v-240h-131q-134 0 -134 -135v-61h265zM1239 1489v-256h-291v256h291zM950 1053h287v-1053h-287v1053z" />
    <glyph glyph-name="fl" unicode="fl" horiz-adv-x="1388" 
d="M754 1053v-240h-265v-813h-286v813h-154v240h154v75q0 361 415 361h136v-240h-131q-134 0 -134 -135v-61h265zM950 0v1489h287v-1489h-287z" />
    <glyph glyph-name=".notdef" horiz-adv-x="1058" 
d="M950 0h-844v1462h844v-1462zM258 1325v-1188h545v1188h-545z" />
    <glyph glyph-name=".null" horiz-adv-x="0" 
 />
    <glyph glyph-name="nonmarkingreturn" horiz-adv-x="682" 
 />
    <glyph glyph-name="space" unicode=" " horiz-adv-x="569" 
 />
    <glyph glyph-name="exclam" unicode="!" horiz-adv-x="706" 
d="M209 868v594h289v-594l-54 -428h-182zM510 311v-311h-313v311h313z" />
    <glyph glyph-name="quotedbl" unicode="&#x22;" horiz-adv-x="960" 
d="M408 874h-261v588h261v-588zM813 874h-260v588h260v-588z" />
    <glyph glyph-name="numbersign" unicode="#" horiz-adv-x="1312" 
d="M129 848v217h244l59 369h221l-57 -369h231l60 369h221l-57 -369h198v-217h-233l-41 -262h207v-217h-240l-59 -369h-226l60 369h-232l-57 -369h-225l57 369h-197v217h232l43 262h-209zM793 848h-232l-41 -262h232z" />
    <glyph glyph-name="dollar" unicode="$" horiz-adv-x="1337" 
d="M733 858l98 -18q188 -33 292 -137.5t104 -278.5q0 -179 -131 -307q-129 -129 -365 -144v-174h-135v176q-225 19 -354 140.5t-152 330.5h291q17 -92 73.5 -147.5t141.5 -67.5v394l-98 20q-363 77 -363 387q0 170 123 293q122 122 338 137v172h137v-176q187 -18 314 -133
q125 -113 143 -287h-289q-12 66 -57 111t-111 55v-346zM762 594l-29 6v-373q88 5 144.5 55.5t56.5 125.5q0 149 -172 186zM596 883v325q-74 -6 -121 -51.5t-47 -112.5t39.5 -104.5t128.5 -56.5z" />
    <glyph glyph-name="percent" unicode="%" horiz-adv-x="1802" 
d="M416 1462q162 0 252 -106t90 -281q0 -176 -90 -281.5t-252 -105.5q-161 0 -249.5 105.5t-88.5 281.5q0 175 88.5 281t249.5 106zM567 1075q0 101 -39 160t-112 59t-111.5 -59t-38.5 -160q0 -102 38.5 -160.5t111.5 -58.5q74 0 112.5 58.5t38.5 160.5zM1384 748
q161 0 250.5 -107t89.5 -281q0 -175 -89.5 -281t-250.5 -106q-162 0 -252 105.5t-90 281.5q0 175 90 281.5t252 106.5zM1536 360q0 101 -39.5 160.5t-112.5 59.5t-112 -59.5t-39 -160.5q0 -102 38.5 -160.5t112.5 -58.5t113 58.5t39 160.5zM1440 1434l-867 -1434h-208
l868 1434h207z" />
    <glyph glyph-name="ampersand" unicode="&#x26;" horiz-adv-x="1570" 
d="M1094 725h276q-35 -234 -160 -412l310 -313h-346l-111 113h-53q-181 -140 -404 -140q-229 0 -364.5 114.5t-135.5 313.5q0 236 242 385v54q-67 83 -94 142t-27 140q0 153 105 246.5t278 93.5q176 0 291 -92q117 -92 117 -246q0 -100 -60.5 -179.5t-197.5 -176.5l258 -268
q61 99 76 225zM623 219q136 0 237 94l-311 320l-47 -33q-111 -76 -111 -190q0 -88 63 -139.5t169 -51.5zM618 1247q-61 0 -99 -35t-38 -94q0 -62 43 -114l25 -31l55 -53l33 24q42 33 61 51q11 9 18.5 16.5t10 11.5t8 14t8.5 14q19 30 19 69q0 57 -40.5 92t-103.5 35z" />
    <glyph glyph-name="quotesingle" unicode="'" horiz-adv-x="555" 
d="M408 874h-261v588h261v-588z" />
    <glyph glyph-name="parenleft" unicode="(" horiz-adv-x="665" 
d="M338 637q0 -481 319 -926h-249q-318 386 -318 926q0 532 311 917h250q-313 -445 -313 -917z" />
    <glyph glyph-name="parenright" unicode=")" horiz-adv-x="665" 
d="M328 637q0 471 -314 917h250q311 -385 311 -917q0 -541 -317 -926h-250q320 446 320 926z" />
    <glyph glyph-name="asterisk" unicode="*" horiz-adv-x="1015" 
d="M420 1137l-10 325h198l-14 -325l307 114l64 -190l-316 -90l203 -256l-162 -119l-184 270l-180 -270l-160 119l201 256l-314 90l62 190z" />
    <glyph glyph-name="plus" unicode="+" horiz-adv-x="1378" 
d="M162 715h405v403h242v-403h408v-244h-408v-405h-242v405h-405v244z" />
    <glyph glyph-name="comma" unicode="," horiz-adv-x="600" 
d="M281 -51v51h-140v311h316v-362l-158 -240h-174z" />
    <glyph glyph-name="hyphen" unicode="-" horiz-adv-x="813" 
d="M717 702v-247h-621v247h621z" />
    <glyph glyph-name="period" unicode="." horiz-adv-x="600" 
d="M457 311v-311h-316v311h316z" />
    <glyph glyph-name="slash" unicode="/" horiz-adv-x="899" 
d="M848 1554l-612 -1843h-240l618 1843h234z" />
    <glyph glyph-name="zero" unicode="0" horiz-adv-x="1323" 
d="M1223 717q0 -371 -156 -559q-153 -185 -405 -185t-408 185q-154 189 -154 559q0 373 154 559q155 186 408 186t405 -186q156 -184 156 -559zM662 236q266 0 266 481q0 483 -266 483q-265 0 -265 -483q0 -481 265 -481z" />
    <glyph glyph-name="one" unicode="1" horiz-adv-x="1089" 
d="M1022 0h-913v256h323v883h-51l-275 -187v293l275 189h346v-1178h295v-256z" />
    <glyph glyph-name="two" unicode="2" horiz-adv-x="1243" 
d="M395 1001h-295q10 219 150 340t375 121q222 0 360 -123q137 -119 137 -338q0 -253 -266 -458l-301 -234v-53h606v-256h-1059v307l492 367q118 86 174.5 159.5t56.5 161.5q0 99 -55.5 152t-153.5 53q-203 0 -221 -199z" />
    <glyph glyph-name="three" unicode="3" horiz-adv-x="1236" 
d="M150 1186v248h921v-301l-274 -203v-56q158 -14 255 -122.5t97 -288.5q0 -224 -154 -357q-151 -133 -393 -133q-240 0 -389 131q-150 132 -156 332h295q12 -96 78.5 -148t171.5 -52q116 0 184 62t68 167q0 110 -66 172.5t-186 62.5q-82 0 -131 -14v244l274 203v53h-595z
" />
    <glyph glyph-name="four" unicode="4" horiz-adv-x="1298" 
d="M1040 1434v-871h179v-256h-179v-307h-284v307h-682v309l626 818h340zM350 616v-53h416v539h-53z" />
    <glyph glyph-name="five" unicode="5" horiz-adv-x="1277" 
d="M723 977q196 0 328 -135q131 -134 131 -348q0 -233 -150 -377t-381 -144q-245 0 -389 129t-156 334h295q12 -98 73.5 -149t166.5 -51q112 0 179 68.5t67 184.5q0 121 -66.5 188.5t-177.5 67.5q-149 0 -227 -106h-275l64 795h885v-248h-656l-22 -293h53q110 84 258 84z
" />
    <glyph glyph-name="six" unicode="6" horiz-adv-x="1273" 
d="M735 952q197 0 330 -133t133 -338q0 -214 -145 -362q-146 -146 -381 -146q-262 0 -418 170q-154 174 -154 547q0 347 146 561q144 211 434 211q192 0 324 -108q136 -109 157 -271h-293q-41 136 -194 136q-129 0 -205 -97.5t-86 -281.5h53q97 112 299 112zM901 471
q0 117 -64.5 182.5t-172.5 65.5t-173 -65t-65 -181q0 -117 66.5 -185.5t173.5 -68.5q108 0 171.5 66t63.5 186z" />
    <glyph glyph-name="seven" unicode="7" horiz-adv-x="1173" 
d="M1075 1434v-308l-573 -1126h-307l575 1126v52h-674v256h979z" />
    <glyph glyph-name="eight" unicode="8" horiz-adv-x="1294" 
d="M987 786v-53q91 -35 152 -122t61 -208q0 -181 -147 -307q-144 -123 -406 -123q-260 0 -407 123q-146 128 -146 307q0 121 61 208t152 122v53q-166 88 -166 291q0 167 138 275q137 110 368 110q232 0 369 -110q137 -107 137 -275q0 -102 -46.5 -176.5t-119.5 -114.5z
M647 1235q-98 0 -159.5 -53t-61.5 -135q0 -85 61.5 -138t159.5 -53q99 0 160 53t61 138q0 82 -61 135t-160 53zM907 432q0 93 -70 153t-190 60q-125 0 -192 -61q-68 -59 -68 -152q0 -91 68 -153q69 -60 192 -60q122 0 191 59t69 154z" />
    <glyph glyph-name="nine" unicode="9" horiz-adv-x="1273" 
d="M539 483q-199 0 -330 131q-133 133 -133 340q0 218 143 361q144 147 383 147q263 0 416 -172q156 -170 156 -545q0 -347 -146 -561q-144 -211 -434 -211q-190 0 -326 109q-134 110 -155 270h293q40 -135 194 -135q129 0 205 97.5t86 281.5h-53q-98 -113 -299 -113z
M373 965q0 -117 64.5 -182.5t172.5 -65.5t173 65t65 181q0 117 -66.5 185.5t-173.5 68.5q-108 0 -171.5 -66t-63.5 -186z" />
    <glyph glyph-name="colon" unicode=":" horiz-adv-x="600" 
d="M457 311v-311h-316v311h316zM457 1053v-312h-316v312h316z" />
    <glyph glyph-name="semicolon" unicode=";" horiz-adv-x="600" 
d="M281 -51v51h-140v311h316v-362l-158 -240h-174zM457 1053v-312h-316v312h316z" />
    <glyph glyph-name="less" unicode="&#x3c;" horiz-adv-x="1355" 
d="M549 565l645 -284v-252l-1032 465v196l1032 465v-252l-645 -285v-53z" />
    <glyph glyph-name="equal" unicode="=" horiz-adv-x="1376" 
d="M162 502h1052v-244h-1052v244zM162 926h1052v-244h-1052v244z" />
    <glyph glyph-name="greater" unicode="&#x3e;" horiz-adv-x="1355" 
d="M1194 494l-1032 -465v252l643 284v53l-643 285v252l1032 -465v-196z" />
    <glyph glyph-name="question" unicode="?" horiz-adv-x="1183" 
d="M573 1489q239 0 370.5 -116t131.5 -310q0 -96 -39 -170q-38 -75 -82 -113q-36 -33 -127 -98q-79 -57 -105 -92.5t-26 -95.5v-54h-293v54q0 116 43 186q50 76 158 154l39 28q40 29 70 53q15 12 22 20.5t14 22t11 19.5q18 30 18 84q0 76 -52.5 125t-143.5 49
q-209 0 -215 -215h-293q3 203 133 336t366 133zM705 311v-311h-314v311h314z" />
    <glyph glyph-name="at" unicode="@" horiz-adv-x="1998" 
d="M1409 -125l59 -108q-237 -156 -540 -156q-375 0 -600 225q-224 224 -224 594q0 428 269 709q267 282 698 282q349 0 584 -204q239 -205 239 -547q0 -259 -120 -432q-120 -170 -342 -170q-203 0 -258 125h-39q-94 -125 -261 -125q-155 0 -242 99t-87 273q0 210 121 361
q124 151 315 151q149 0 205 -96h39l16 68h229l-86 -521l-10 -92q0 -108 113 -108q104 0 186 116q82 119 82 351q0 277 -190 452q-191 176 -510 176q-352 0 -582 -239q-229 -238 -229 -627q0 -110 25 -211t80 -190.5t134.5 -155t196.5 -103.5t258 -38q260 0 471 141zM942 252
q98 0 160 92q63 92 63 229q0 197 -149 197q-98 0 -160 -96q-58 -94 -61 -225q0 -96 39 -146.5t108 -50.5z" />
    <glyph glyph-name="A" unicode="A" horiz-adv-x="1478" 
d="M1442 0h-309l-119 395h-557l-119 -395h-301l465 1462h473zM778 1169h-90l-153 -507h397z" />
    <glyph glyph-name="B" unicode="B" horiz-adv-x="1482" 
d="M1188 786v-53q82 -36 136 -121.5t54 -187.5q0 -197 -129.5 -310.5t-374.5 -113.5h-704v1462h686q231 0 356 -110t125 -277q0 -98 -40 -175t-109 -114zM475 883h344q205 0 205 164q0 161 -207 161h-342v-325zM475 260h354q236 0 236 180q0 187 -231 187h-359v-367z" />
    <glyph glyph-name="C" unicode="C" horiz-adv-x="1509" 
d="M1094 467h317q-34 -224 -197 -358q-165 -136 -413 -136q-327 0 -516 207q-185 209 -185 551q0 344 187 549q188 209 514 209q242 0 397 -125q159 -123 199 -328h-320q-52 181 -276 181q-186 0 -289 -136q-98 -134 -98 -350q0 -213 98 -350q102 -135 289 -135
q118 0 194 58t99 163z" />
    <glyph glyph-name="D" unicode="D" horiz-adv-x="1558" 
d="M170 1462h610q329 0 504 -196q174 -195 174 -535q0 -339 -174 -534q-176 -197 -504 -197h-610v1462zM475 272h266q202 0 303 123t101 336q0 215 -100.5 337t-303.5 122h-266v-918z" />
    <glyph glyph-name="E" unicode="E" horiz-adv-x="1363" 
d="M475 616v-344h799v-272h-1104v1462h1081v-272h-776v-307h604v-267h-604z" />
    <glyph glyph-name="F" unicode="F" horiz-adv-x="1331" 
d="M1249 1462v-272h-774v-336h610v-266h-610v-588h-305v1462h1079z" />
    <glyph glyph-name="G" unicode="G" horiz-adv-x="1558" 
d="M797 563v250h651v-172q0 -105 -22 -201t-72 -182t-123 -148.5t-181.5 -99.5t-242.5 -37q-334 0 -522 209q-185 209 -185 549q0 341 187 549q188 209 522 209q243 0 400 -119t200 -326h-317q-53 173 -285 173q-187 0 -290 -132.5t-103 -353.5q0 -217 102 -352t293 -135
q159 0 244 84.5t90 234.5h-346z" />
    <glyph glyph-name="H" unicode="H" horiz-adv-x="1595" 
d="M1122 893v569h305v-1462h-305v612h-647v-612h-305v1462h305v-569h647z" />
    <glyph glyph-name="I" unicode="I" horiz-adv-x="663" 
d="M180 0v1462h305v-1462h-305z" />
    <glyph glyph-name="J" unicode="J" horiz-adv-x="1236" 
d="M573 -27q-225 0 -366 129q-139 130 -148 363h303q15 -219 209 -219q94 0 144.5 63.5t50.5 184.5v968h305v-970q0 -244 -132 -381.5t-366 -137.5z" />
    <glyph glyph-name="K" unicode="K" horiz-adv-x="1542" 
d="M475 0h-305v1462h305v-604l598 604h357l-439 -458l508 -1004h-336l-370 735h-54l-264 -264v-471z" />
    <glyph glyph-name="L" unicode="L" horiz-adv-x="1333" 
d="M475 1462v-1183h774v-279h-1079v1462h305z" />
    <glyph glyph-name="M" unicode="M" horiz-adv-x="1808" 
d="M455 0h-285v1462h469l240 -590h53l237 590h471v-1462h-284v1090h-53l-246 -590h-305l-244 590h-53v-1090z" />
    <glyph glyph-name="N" unicode="N" horiz-adv-x="1601" 
d="M1155 471v991h279v-1462h-396l-536 991h-53v-991h-279v1462h395l537 -991h53z" />
    <glyph glyph-name="O" unicode="O" horiz-adv-x="1626" 
d="M287 1276q189 213 526 213q335 0 524 -213t189 -545q0 -334 -189 -547q-187 -211 -524 -211q-339 0 -526 211t-187 547q0 334 187 545zM514 381q102 -135 299 -135q195 0 297 135t102 350t-102 350q-103 136 -297 136q-196 0 -299 -136q-100 -132 -100 -350t100 -350z
" />
    <glyph glyph-name="P" unicode="P" horiz-adv-x="1464" 
d="M170 1462h668q250 0 389 -122.5t139 -342.5q0 -222 -139 -347.5t-389 -125.5h-363v-524h-305v1462zM475 793h320q258 0 258 200q0 101 -62 151t-196 50h-320v-401z" />
    <glyph glyph-name="Q" unicode="Q" horiz-adv-x="1626" 
d="M1526 731q0 -364 -215 -573l186 -316h-276l-109 187q-139 -56 -299 -56q-339 0 -526 211t-187 547q0 334 187 545q189 213 526 213q335 0 524 -213t189 -545zM813 246q82 0 158 28l-232 402h267l141 -240q65 127 65 295q0 215 -102 350q-103 136 -297 136
q-196 0 -299 -136q-100 -132 -100 -350q0 -221 103.5 -353t295.5 -132z" />
    <glyph glyph-name="R" unicode="R" horiz-adv-x="1486" 
d="M170 1462h688q242 0 378 -120t136 -334q0 -278 -217 -392l219 -616h-307l-197 551h-395v-551h-305v1462zM784 1194h-309v-383h340q246 0 246 193q0 103 -64 146.5t-213 43.5z" />
    <glyph glyph-name="S" unicode="S" horiz-adv-x="1413" 
d="M1268 1061h-312q-37 166 -266 166q-108 0 -173.5 -43t-65.5 -123q0 -115 182 -150l272 -49q398 -71 398 -428q0 -195 -154 -328q-151 -133 -434 -133q-273 0 -437.5 126t-187.5 347h311q34 -210 326 -210q123 0 195.5 49t72.5 135q0 148 -198 182l-279 49
q-183 32 -279 134t-96 266q0 186 148 313q146 125 403 125q240 0 396 -117q157 -115 178 -311z" />
    <glyph glyph-name="T" unicode="T" horiz-adv-x="1280" 
d="M33 1462h1214v-268h-454v-1194h-306v1194h-454v268z" />
    <glyph glyph-name="U" unicode="U" horiz-adv-x="1556" 
d="M1085 545v917h306v-923q0 -270 -160.5 -418t-454.5 -148q-293 0 -451.5 147.5t-158.5 418.5v923h305v-917q0 -138 81 -218.5t226 -80.5q146 0 226.5 80.5t80.5 218.5z" />
    <glyph glyph-name="V" unicode="V" horiz-adv-x="1445" 
d="M977 0h-508l-432 1462h317l324 -1167h94l324 1167h313z" />
    <glyph glyph-name="W" unicode="W" horiz-adv-x="1898" 
d="M578 362l182 658h381l184 -658h51l125 1100h289l-174 -1462h-447l-192 735h-53l-195 -735h-446l-174 1462h292l123 -1100h54z" />
    <glyph glyph-name="X" unicode="X" horiz-adv-x="1421" 
d="M1382 0h-335l-306 602h-63l-311 -602h-328l403 768l-348 694h314l272 -536h63l281 536h309l-354 -686z" />
    <glyph glyph-name="Y" unicode="Y" horiz-adv-x="1390" 
d="M352 1462l314 -583h57l313 583h324l-512 -942v-520h-307v520l-510 942h321z" />
    <glyph glyph-name="Z" unicode="Z" horiz-adv-x="1363" 
d="M145 1462h1096v-329l-762 -803v-58h795v-272h-1184v330l766 803v57h-711v272z" />
    <glyph glyph-name="bracketleft" unicode="[" horiz-adv-x="780" 
d="M672 -78v-211h-531v1843h531v-211h-283v-1421h283z" />
    <glyph glyph-name="backslash" unicode="\" horiz-adv-x="899" 
d="M285 1554l618 -1843h-239l-613 1843h234z" />
    <glyph glyph-name="bracketright" unicode="]" horiz-adv-x="780" 
d="M639 1554v-1843h-530v211h282v1421h-282v211h530z" />
    <glyph glyph-name="asciicircum" unicode="^" horiz-adv-x="1204" 
d="M575 1032l-231 -473h-266l432 860h186l430 -860h-264l-233 473h-54z" />
    <glyph glyph-name="underscore" unicode="_" horiz-adv-x="1050" 
d="M1053 -129v-186h-1055v186h1055z" />
    <glyph glyph-name="grave" unicode="`" horiz-adv-x="655" 
d="M573 1192h-254l-237 297h301z" />
    <glyph glyph-name="a" unicode="a" horiz-adv-x="1200" 
d="M1063 0h-264v90h-54q-99 -117 -294 -117q-172 0 -273 101q-100 100 -100 250q0 142 106 245q108 105 322 105h280v26q0 164 -186 164q-166 0 -178 -112h-285q6 148 129 237q128 90 320 90q231 0 354 -98t123 -297v-684zM551 201q103 0 169 62t66 159v65h-225
q-196 0 -196 -141q0 -145 186 -145z" />
    <glyph glyph-name="b" unicode="b" 
d="M776 1079q207 0 326 -155q121 -154 121 -398q0 -242 -121 -399q-121 -154 -326 -154q-196 0 -295 123h-53v-96h-276v1489h286v-533h54q92 123 284 123zM684 211q120 0 186 86t66 229t-66 228.5t-186 85.5q-123 0 -189.5 -87t-66.5 -227t66.5 -227.5t189.5 -87.5z" />
    <glyph glyph-name="c" unicode="c" horiz-adv-x="1193" 
d="M821 354h283q-21 -170 -154 -276q-132 -105 -327 -105q-243 0 -387 150t-144 403q0 252 144 402q145 151 387 151q195 0 322.5 -98.5t150.5 -263.5h-285q-35 123 -186 123q-121 0 -183.5 -85t-62.5 -227q0 -145 62.5 -231t183.5 -86q169 0 196 143z" />
    <glyph glyph-name="d" unicode="d" 
d="M539 1079q193 0 284 -123h54v533h286v-1489h-276v96h-53q-99 -123 -295 -123q-207 0 -328 154q-119 155 -119 399t121 398q119 155 326 155zM631 211q123 0 189.5 87.5t66.5 227.5t-66.5 227t-189.5 87q-122 0 -187 -85.5t-65 -228.5q0 -144 65.5 -229.5t186.5 -85.5z
" />
    <glyph glyph-name="e" unicode="e" horiz-adv-x="1222" 
d="M1130 580v-86h-753q12 -283 256 -283q153 0 196 111h291q-33 -164 -160 -256.5t-331 -92.5q-247 0 -393 152q-144 150 -144 405q0 253 144 400q143 149 387 149q232 0 368 -139t139 -360zM621 864q-188 0 -234 -180h451q-12 86 -68 133t-149 47z" />
    <glyph glyph-name="f" unicode="f" horiz-adv-x="817" 
d="M754 1053v-240h-265v-813h-286v813h-154v240h154v75q0 361 415 361h136v-240h-131q-134 0 -134 -135v-61h265z" />
    <glyph glyph-name="g" unicode="g" horiz-adv-x="1316" 
d="M889 956v97h276v-1002q0 -220 -147 -352q-143 -131 -381 -131q-222 0 -357.5 93t-148.5 261h285q21 -129 217 -129q246 0 246 283v61h-54q-83 -121 -274 -121q-207 0 -334 148q-125 146 -125 383t125 383q125 149 336 149q98 0 171.5 -34.5t111.5 -88.5h53zM631 256
q120 0 189 81.5t69 209.5q0 130 -69 211.5t-189 81.5q-116 0 -184 -81t-68 -212q0 -130 68 -210.5t184 -80.5z" />
    <glyph glyph-name="h" unicode="h" horiz-adv-x="1300" 
d="M1163 647v-647h-286v596q0 229 -205 229q-103 0 -168.5 -77t-65.5 -189v-559h-286v1489h286v-533h54q94 123 286 123q188 0 286.5 -113t98.5 -319z" />
    <glyph glyph-name="i" unicode="i" horiz-adv-x="593" 
d="M442 1489v-256h-290v256h290zM154 1053h286v-1053h-286v1053z" />
    <glyph glyph-name="j" unicode="j" horiz-adv-x="616" 
d="M465 1489v-256h-291v256h291zM59 -410h-133v240h94q156 0 156 162v1061h287v-1086q0 -191 -106.5 -284t-297.5 -93z" />
    <glyph glyph-name="k" unicode="k" horiz-adv-x="1226" 
d="M850 727l354 -727h-301l-244 494h-53l-166 -187v-307h-288v1489h288v-848l389 412h320z" />
    <glyph glyph-name="l" unicode="l" horiz-adv-x="589" 
d="M152 0v1489h286v-1489h-286z" />
    <glyph glyph-name="m" unicode="m" horiz-adv-x="1855" 
d="M1352 1079q182 0 274 -107.5t92 -307.5v-664h-286v608q0 217 -160 217q-92 0 -142.5 -64.5t-50.5 -172.5v-588h-286v608q0 217 -160 217q-95 0 -145 -70.5t-50 -189.5v-565h-286v1053h276v-97h53q77 123 262 123q186 0 269 -123h53q91 123 287 123z" />
    <glyph glyph-name="n" unicode="n" horiz-adv-x="1300" 
d="M1163 647v-647h-286v596q0 111 -53 170t-152 59q-103 0 -168.5 -77t-65.5 -189v-559h-286v1053h276v-97h53q95 123 293 123q190 0 289.5 -113t99.5 -319z" />
    <glyph glyph-name="o" unicode="o" horiz-adv-x="1273" 
d="M240 926q150 153 397 153t395 -151q150 -150 150 -402q0 -251 -150 -401q-149 -152 -395 -152q-245 0 -397 152q-148 154 -148 401q0 249 148 400zM637 211q125 0 191.5 86.5t66.5 228.5q0 140 -66.5 227t-191.5 87q-124 0 -191 -87t-67 -227q0 -141 67 -228t191 -87z
" />
    <glyph glyph-name="p" unicode="p" 
d="M684 840q-123 0 -189.5 -87t-66.5 -227t66.5 -227.5t189.5 -87.5q120 0 186 86t66 229t-66 228.5t-186 85.5zM152 -410v1463h276v-97h53q99 123 295 123q207 0 326 -155q121 -154 121 -398q0 -242 -121 -399q-121 -154 -326 -154q-192 0 -284 123h-54v-506h-286z" />
    <glyph glyph-name="q" unicode="q" 
d="M631 840q-122 0 -187 -85.5t-65 -228.5q0 -144 65.5 -229.5t186.5 -85.5q123 0 189.5 87.5t66.5 227.5t-66.5 227t-189.5 87zM887 956v97h276v-1463h-286v506h-54q-91 -123 -284 -123q-205 0 -326 154q-121 157 -121 399q0 246 119 398q119 155 328 155q196 0 295 -123
h53z" />
    <glyph glyph-name="r" unicode="r" horiz-adv-x="917" 
d="M764 1053h98v-267h-102q-322 0 -322 -325v-461h-286v1053h276v-119h53q82 119 283 119z" />
    <glyph glyph-name="s" unicode="s" horiz-adv-x="1118" 
d="M1008 764h-285q-15 94 -170 94q-154 0 -154 -90q0 -40 25 -57.5t88 -28.5l190 -29q336 -53 336 -338q0 -139 -123 -241q-122 -101 -344 -101q-227 0 -352 94t-143 265h284q21 -137 209 -137q183 0 183 114q0 51 -35 77t-117 40l-205 33q-282 49 -282 291q0 150 116 239.5
t332 89.5q190 0 310 -85.5t137 -229.5z" />
    <glyph glyph-name="t" unicode="t" horiz-adv-x="829" 
d="M489 1348v-295h232v-240h-232v-453q0 -116 136 -116h96v-244h-100q-207 0 -312.5 76t-105.5 250v487h-154v240h154v295h286z" />
    <glyph glyph-name="u" unicode="u" horiz-adv-x="1300" 
d="M137 406v647h287v-596q0 -111 53 -170.5t152 -59.5q102 0 167.5 77.5t65.5 189.5v559h287v-1053h-277v96h-53q-95 -123 -293 -123q-190 0 -289.5 113.5t-99.5 319.5z" />
    <glyph glyph-name="v" unicode="v" horiz-adv-x="1183" 
d="M838 0h-498l-299 1053h293l217 -797h88l209 797h293z" />
    <glyph glyph-name="w" unicode="w" horiz-adv-x="1536" 
d="M496 330l131 434h288l132 -434h53l88 723h268l-145 -1053h-367l-149 494h-54l-149 -494h-369l-143 1053h272l90 -723h54z" />
    <glyph glyph-name="x" unicode="x" horiz-adv-x="1236" 
d="M1169 0h-309l-205 387h-75l-209 -387h-303l301 541l-271 512h297l189 -363h75l193 363h293l-275 -508z" />
    <glyph glyph-name="y" unicode="y" horiz-adv-x="1216" 
d="M1182 1053l-635 -1463h-287l223 519l-446 944h299l262 -561h53l242 561h289z" />
    <glyph glyph-name="z" unicode="z" horiz-adv-x="1134" 
d="M1032 238v-238h-930v291l527 469v53h-494v240h881v-293l-527 -469v-53h543z" />
    <glyph glyph-name="braceleft" unicode="{" horiz-adv-x="874" 
d="M412 659v-53q63 -21 100 -80.5t37 -150.5v-236q0 -217 182 -217h72v-211h-115q-179 0 -283 102t-104 273v242q0 100 -34 147t-111 47h-50v221h50q77 0 111 47.5t34 147.5v242q0 171 104 272.5t283 101.5h115v-211h-72q-182 0 -182 -217v-235q0 -91 -37 -151t-100 -81z
" />
    <glyph glyph-name="bar" unicode="|" horiz-adv-x="552" 
d="M391 -289h-229v1843h229v-1843z" />
    <glyph glyph-name="braceright" unicode="}" horiz-adv-x="874" 
d="M463 606v53q-63 21 -100 81t-37 151v235q0 217 -183 217h-71v211h114q179 0 283 -101.5t104 -272.5v-242q0 -100 34.5 -147.5t111.5 -47.5h49v-221h-49q-77 0 -111.5 -47t-34.5 -147v-242q0 -171 -104 -273t-283 -102h-114v211h71q183 0 183 217v236q0 91 37 150.5
t100 80.5z" />
    <glyph glyph-name="asciitilde" unicode="~" horiz-adv-x="1374" 
d="M1016 754h196q0 -180 -76 -271.5t-218 -91.5q-59 0 -127.5 26.5t-122.5 65.5q-128 95 -207 95q-103 0 -103 -146h-196q0 180 77 271.5t216 91.5q55 2 125.5 -28t125.5 -66.5t114 -66t93 -26.5q103 0 103 146z" />
    <glyph glyph-name="uni00A0" unicode="&#xa0;" horiz-adv-x="569" 
 />
    <glyph glyph-name="exclamdown" unicode="&#xa1;" horiz-adv-x="706" 
d="M498 184v-594h-289v594l53 428h182zM510 1053v-312h-313v312h313z" />
    <glyph glyph-name="cent" unicode="&#xa2;" horiz-adv-x="1193" 
d="M821 354h283q-20 -162 -137 -264.5t-297 -114.5v-139h-109v141q-217 19 -343 166.5t-126 382.5q0 233 127 381q126 150 342 168v142h109v-140q176 -10 291 -108.5t135 -251.5h-285q-30 109 -141 121v-623q61 6 100.5 42.5t50.5 96.5zM379 528q0 -126 46.5 -209
t135.5 -100v615q-89 -17 -135.5 -100t-46.5 -206z" />
    <glyph glyph-name="sterling" unicode="&#xa3;" horiz-adv-x="1325" 
d="M510 309v-53h747v-256h-1163v256h35q141 0 141 176v127h-174v229h174v203q0 216 123.5 343.5t343.5 127.5q217 0 340 -120t129 -324h-295q-6 182 -170 182q-178 0 -178 -209v-203h441v-229h-441v-96q0 -107 -53 -154z" />
    <glyph glyph-name="currency" unicode="&#xa4;" horiz-adv-x="1478" 
d="M1317 127l-127 -127l-141 137q-137 -98 -308 -98t-311 98l-139 -137l-129 127l137 139q-98 143 -98 314q0 172 98 309l-137 139l129 129l139 -139q140 98 311 98t308 -98l141 139l127 -129l-137 -141q98 -140 98 -307q0 -169 -98 -312zM741 213q145 0 246 104
q100 106 100 263q0 156 -100 256q-101 104 -246 104q-148 0 -249 -104q-103 -103 -103 -256q0 -154 103 -263q101 -104 249 -104z" />
    <glyph glyph-name="yen" unicode="&#xa5;" horiz-adv-x="1341" 
d="M424 649h-258v142h192l-307 643h295l295 -643h57l297 643h295l-307 -643h191v-142h-259l-59 -125h318v-141h-357v-383h-295v383h-356v141h319z" />
    <glyph glyph-name="brokenbar" unicode="&#xa6;" horiz-adv-x="552" 
d="M391 834h-229v720h229v-720zM391 -289h-229v721h229v-721z" />
    <glyph glyph-name="section" unicode="&#xa7;" horiz-adv-x="1292" 
d="M780 662l-295 88q-47 -14 -80.5 -56.5t-33.5 -95.5q0 -114 141 -154q33 -12 297 -88q46 22 78.5 63t32.5 89q0 59 -33 94.5t-107 59.5zM1182 551q0 -94 -55 -165.5t-130 -100.5v-54q97 -79 97 -227q0 -155 -127 -258q-126 -102 -338 -102q-210 0 -337 111t-134 311h264
q6 -93 62 -144t157 -51q90 0 139 39t49 102q0 99 -139 140l-268 73q-160 45 -236.5 124t-76.5 206q0 97 55 168t133 98v53q-96 75 -96 228q0 157 125 258q126 102 336 102q208 0 334.5 -109.5t133.5 -308.5h-262q-12 191 -219 191q-91 0 -138.5 -38t-47.5 -101
q0 -102 137 -142l102 -28l99 -29l84 -25q75 -24 141 -59q9 -5 17.5 -9.5t14.5 -8t13 -9.5t10 -8t10.5 -9.5l9 -9t11 -11.5t10.5 -11q60 -60 60 -186z" />
    <glyph glyph-name="dieresis" unicode="&#xa8;" horiz-adv-x="806" 
d="M725 1489v-256h-240v256h240zM324 1489v-256h-242v256h242z" />
    <glyph glyph-name="copyright" unicode="&#xa9;" horiz-adv-x="1740" 
d="M1053 610h178q-21 -129 -112 -206.5t-232 -77.5q-179 0 -279 112t-100 291q0 183 101.5 294.5t277.5 111.5q138 0 228.5 -72.5t109.5 -192.5h-181q-24 107 -157 107q-96 0 -146.5 -66.5t-50.5 -181.5t50.5 -180.5t146.5 -65.5q145 0 166 127zM870 1489q324 0 541 -217
q219 -219 219 -541q0 -326 -217 -543q-218 -215 -543 -215q-322 0 -540 215q-217 217 -217 543q0 324 217 541t540 217zM422 276q174 -180 448 -180q275 0 449 180q178 181 178 455t-178 455q-176 182 -449 182q-272 0 -448 -182q-174 -180 -174 -455t174 -455z" />
    <glyph glyph-name="ordfeminine" unicode="&#xaa;" horiz-adv-x="897" 
d="M780 686h-182v68h-33q-80 -86 -221 -86q-124 0 -198 73.5t-74 182.5q0 111 79.5 183.5t227.5 72.5h211v24q0 119 -144 119q-122 0 -137 -88h-192q6 109 94 175.5t227 66.5q164 0 253 -71t89 -214v-506zM406 825q80 0 132 47.5t52 120.5v56h-170q-72 0 -114 -30t-42 -81
q0 -54 38 -83.5t104 -29.5z" />
    <glyph glyph-name="guillemotleft" unicode="&#xab;" horiz-adv-x="1345" 
d="M721 991l-350 -373v-53l350 -375h-309l-306 318v168l306 315h309zM1239 991l-350 -373v-53l350 -375h-309l-305 318v168l305 315h309z" />
    <glyph glyph-name="logicalnot" unicode="&#xac;" horiz-adv-x="1396" 
d="M1235 205h-242v393h-831v244h1073v-637z" />
    <glyph glyph-name="uni00AD" unicode="&#xad;" horiz-adv-x="811" 
d="M715 702v-247h-621v247h621z" />
    <glyph glyph-name="registered" unicode="&#xae;" horiz-adv-x="1740" 
d="M573 1120h373q131 0 203 -64.5t72 -181.5q0 -142 -113 -206l117 -328h-181l-104 291h-190v-291h-177v780zM750 780h168q122 0 122 92q0 95 -122 95h-168v-187zM870 1489q324 0 541 -217q219 -219 219 -541q0 -326 -217 -543q-218 -215 -543 -215q-322 0 -540 215
q-217 217 -217 543q0 324 217 541t540 217zM422 276q174 -180 448 -180q275 0 449 180q178 181 178 455t-178 455q-176 182 -449 182q-272 0 -448 -182q-174 -180 -174 -455t174 -455z" />
    <glyph glyph-name="overscore" unicode="&#xaf;" horiz-adv-x="782" 
d="M700 1442v-174h-618v174h618z" />
    <glyph glyph-name="degree" unicode="&#xb0;" horiz-adv-x="950" 
d="M473 668q-173 0 -287 114t-114 289t114 289q114 117 287 117q175 0 289 -117q117 -114 117 -289t-117 -289q-114 -114 -289 -114zM254 1071q0 -99 61.5 -165t157.5 -66t158.5 66t62.5 165t-62.5 166.5t-158.5 67.5t-157.5 -66.5t-61.5 -167.5z" />
    <glyph glyph-name="plusminus" unicode="&#xb1;" horiz-adv-x="1378" 
d="M164 827h403v338h242v-338h408v-243h-408v-340h408v-244h-1055v244h405v340h-403v243z" />
    <glyph glyph-name="twosuperior" unicode="&#xb2;" horiz-adv-x="757" 
d="M365 881v-39h319v-160h-612v197l227 141q91 55 133.5 98.5t42.5 91.5q0 101 -104 101q-110 0 -113 -105h-186q4 129 85.5 200t219.5 71q129 0 207 -68t78 -188q0 -145 -154 -248z" />
    <glyph glyph-name="threesuperior" unicode="&#xb3;" horiz-adv-x="755" 
d="M502 1190v-37q78 -11 130 -69t52 -148q0 -121 -86 -194.5t-223 -73.5q-138 0 -224.5 74.5t-91.5 193.5h185q9 -102 131 -102q57 0 91 28.5t34 77.5q0 53 -32.5 81t-90.5 28q-39 0 -76 -11v148l121 80v37h-309v159h532v-192z" />
    <glyph glyph-name="acute" unicode="&#xb4;" horiz-adv-x="655" 
d="M270 1489h303l-239 -297h-252z" />
    <glyph glyph-name="mu" unicode="&#xb5;" 
d="M152 -410v1463h286v-596q0 -111 53 -170.5t152 -59.5q102 0 168 77.5t66 189.5v559h286v-1053h-276v96h-53q-94 -123 -293 -123q-39 0 -103 11v-394h-286z" />
    <glyph glyph-name="paragraph" unicode="&#xb6;" horiz-adv-x="1458" 
d="M762 1262v-1624h-242v1005q-204 0 -327 106t-123 304q0 203 118 306t332 103h848v-200h-164v-1624h-241v1624h-201z" />
    <glyph glyph-name="middot" unicode="&#xb7;" horiz-adv-x="600" 
d="M457 852v-311h-316v311h316z" />
    <glyph glyph-name="cedilla" unicode="&#xb8;" horiz-adv-x="608" 
d="M111 -238l108 283h105l-62 -164h29q27 21 80 21q68 0 112.5 -48.5t44.5 -127.5q0 -84 -60 -139.5t-171 -55.5q-95 0 -152.5 47.5t-62.5 118.5h147q12 -51 72 -51q45 -5 64 33t0 76t-64 32q-38 0 -63 -25h-127z" />
    <glyph glyph-name="onesuperior" unicode="&#xb9;" horiz-adv-x="688" 
d="M442 1462v-620h172v-160h-542v160h184v426h-39l-145 -88v174l186 108h184z" />
    <glyph glyph-name="ordmasculine" unicode="&#xba;" horiz-adv-x="931" 
d="M465 1477q176 0 285 -115q108 -114 108 -289q0 -179 -108 -293q-106 -112 -285 -112q-181 0 -287 112t-106 293q0 175 108 289q109 115 285 115zM465 838q95 0 148 66t53 169q0 102 -53 168t-148 66q-94 0 -147.5 -66t-53.5 -168q0 -103 53.5 -169t147.5 -66z" />
    <glyph glyph-name="guillemotright" unicode="&#xbb;" horiz-adv-x="1345" 
d="M625 190l350 375v53l-350 373h309l305 -315v-168l-305 -318h-309zM106 190l351 375v53l-351 373h310l305 -315v-168l-305 -318h-310z" />
    <glyph glyph-name="onequarter" unicode="&#xbc;" horiz-adv-x="1794" 
d="M1626 780v-465h94v-159h-94v-156h-180v156h-371v188l334 436h217zM1247 352v-37h205v258h-39zM442 1462v-620h172v-160h-542v160h184v426h-39l-145 -88v174l186 108h184zM1448 1434l-866 -1434h-209l868 1434h207z" />
    <glyph glyph-name="onehalf" unicode="&#xbd;" horiz-adv-x="1839" 
d="M1446 199v-39h319v-160h-612v197l227 141q91 55 133.5 98.5t42.5 91.5q0 101 -104 101q-110 0 -113 -105h-186q4 129 85.5 200t219.5 71q129 0 207 -68t78 -188q0 -145 -154 -248zM442 1462v-620h172v-160h-542v160h184v426h-39l-145 -88v174l186 108h184zM1448 1434
l-866 -1434h-209l868 1434h207z" />
    <glyph glyph-name="threequarters" unicode="&#xbe;" horiz-adv-x="1802" 
d="M1636 780v-465h95v-159h-95v-156h-180v156h-371v188l334 436h217zM1257 352v-37h205v258h-39zM500 1190v-37q78 -11 130 -69t52 -148q0 -121 -86 -194.5t-223 -73.5q-138 0 -224.5 74.5t-91.5 193.5h185q9 -102 131 -102q57 0 91 28.5t34 77.5q0 53 -32.5 81t-90.5 28
q-39 0 -76 -11v148l121 80v37h-309v159h532v-192zM1458 1434l-866 -1434h-209l868 1434h207z" />
    <glyph glyph-name="questiondown" unicode="&#xbf;" horiz-adv-x="1179" 
d="M602 -432q-242 0 -375 121q-129 120 -129 305q0 144 76 231q40 46 76 74q54 42 98 74q79 59 105 94t26 94v51h293v-51q0 -115 -43 -182q-43 -72 -145 -146l-60 -45q-39 -25 -57 -43q-30 -25 -54.5 -66t-17.5 -83q0 -76 53.5 -125t145.5 -49q208 0 217 215h291
q-3 -203 -133 -336t-367 -133zM471 741v312h313v-312h-313z" />
    <glyph glyph-name="Agrave" unicode="&#xc0;" horiz-adv-x="1478" 
d="M1442 0h-309l-119 395h-557l-119 -395h-301l465 1462h473zM778 1169h-90l-153 -507h397zM872 1571h-262l-237 264h311z" />
    <glyph glyph-name="Aacute" unicode="&#xc1;" horiz-adv-x="1478" 
d="M1442 0h-309l-119 395h-557l-119 -395h-301l465 1462h473zM778 1169h-90l-153 -507h397zM786 1835h314l-240 -264h-260z" />
    <glyph glyph-name="Acircumflex" unicode="&#xc2;" horiz-adv-x="1478" 
d="M1442 0h-309l-119 395h-557l-119 -395h-301l465 1462h473zM778 1169h-90l-153 -507h397zM614 1835h248l223 -264h-227l-96 112h-53l-95 -112h-223z" />
    <glyph glyph-name="Atilde" unicode="&#xc3;" horiz-adv-x="1478" 
d="M1442 0h-309l-119 395h-557l-119 -395h-301l465 1462h473zM778 1169h-90l-153 -507h397zM946 1835h131q0 -125 -54.5 -195.5t-156.5 -70.5q-69 0 -155 47q-82 49 -125 49q-34 0 -48 -22.5t-16 -71.5h-129q0 126 53.5 196t155.5 70q70 0 156 -47t129 -47q56 0 59 92z" />
    <glyph glyph-name="Adieresis" unicode="&#xc4;" horiz-adv-x="1478" 
d="M1442 0h-309l-119 395h-557l-119 -395h-301l465 1462h473zM778 1169h-90l-153 -507h397zM1065 1835v-233h-240v233h240zM664 1835v-233h-242v233h242z" />
    <glyph glyph-name="Aring" unicode="&#xc5;" horiz-adv-x="1478" 
d="M1442 0h-309l-119 395h-557l-119 -395h-301l465 1462h33q-39 56 -39 129q0 98 71 166q70 70 170 70t170 -70q72 -69 72 -166q0 -73 -39 -129h35zM778 1169h-90l-153 -507h397zM737 1487q43 0 74 30.5t31 73.5t-31 74t-74 31q-41 0 -71.5 -31t-30.5 -74t30.5 -73.5
t71.5 -30.5z" />
    <glyph glyph-name="AE" unicode="&#xc6;" horiz-adv-x="2152" 
d="M2062 0h-999v395h-508l-205 -395h-342l787 1462h1245v-272h-672v-307h500v-267h-500v-344h694v-272zM1063 1178h-100l-271 -516h371v516z" />
    <glyph glyph-name="Ccedilla" unicode="&#xc7;" horiz-adv-x="1509" 
d="M1094 467h317q-35 -221 -194 -356t-408 -138l-35 -92h29q27 21 80 21q68 0 112.5 -48.5t44.5 -127.5q0 -84 -60 -139.5t-171 -55.5q-95 0 -152.5 47.5t-62.5 118.5h147q12 -51 72 -51q45 -5 64 33t0 76t-64 32q-38 0 -63 -25h-127l82 218q-287 27 -447 231
q-158 208 -158 520q0 344 187 549q188 209 514 209q242 0 397 -125q159 -123 199 -328h-320q-52 181 -276 181q-186 0 -289 -136q-98 -134 -98 -350q0 -213 98 -350q102 -135 289 -135q118 0 194 58t99 163z" />
    <glyph glyph-name="Egrave" unicode="&#xc8;" horiz-adv-x="1363" 
d="M475 616v-344h799v-272h-1104v1462h1081v-272h-776v-307h604v-267h-604zM891 1571h-262l-238 264h311z" />
    <glyph glyph-name="Eacute" unicode="&#xc9;" horiz-adv-x="1363" 
d="M475 616v-344h799v-272h-1104v1462h1081v-272h-776v-307h604v-267h-604zM690 1835h314l-240 -264h-260z" />
    <glyph glyph-name="Ecircumflex" unicode="&#xca;" horiz-adv-x="1363" 
d="M475 616v-344h799v-272h-1104v1462h1081v-272h-776v-307h604v-267h-604zM592 1835h248l223 -264h-227l-97 112h-53l-94 -112h-223z" />
    <glyph glyph-name="Edieresis" unicode="&#xcb;" horiz-adv-x="1363" 
d="M475 616v-344h799v-272h-1104v1462h1081v-272h-776v-307h604v-267h-604zM1032 1835v-233h-239v233h239zM631 1835v-233h-242v233h242z" />
    <glyph glyph-name="Igrave" unicode="&#xcc;" horiz-adv-x="665" 
d="M180 0v1462h305v-1462h-305zM469 1571h-262l-238 264h312z" />
    <glyph glyph-name="Iacute" unicode="&#xcd;" horiz-adv-x="665" 
d="M180 0v1462h305v-1462h-305zM389 1835h313l-239 -264h-260z" />
    <glyph glyph-name="Icircumflex" unicode="&#xce;" horiz-adv-x="665" 
d="M211 1835h248l223 -264h-227l-97 112h-53l-94 -112h-223zM180 0v1462h305v-1462h-305z" />
    <glyph glyph-name="Idieresis" unicode="&#xcf;" horiz-adv-x="665" 
d="M655 1835v-233h-239v233h239zM254 1835v-233h-242v233h242zM180 0v1462h305v-1462h-305z" />
    <glyph glyph-name="Eth" unicode="&#xd0;" horiz-adv-x="1601" 
d="M213 625h-172v233h172v604h610q329 0 504 -196q174 -195 174 -535q0 -339 -174 -534q-176 -197 -504 -197h-610v625zM518 272h266q202 0 303 123t101 336q0 215 -100.5 337t-303.5 122h-266v-332h361v-233h-361v-353z" />
    <glyph glyph-name="Ntilde" unicode="&#xd1;" horiz-adv-x="1601" 
d="M1155 471v991h279v-1462h-396l-536 991h-53v-991h-279v1462h395l537 -991h53zM1014 1835h131q0 -125 -54.5 -195.5t-156.5 -70.5q-70 0 -156 47q-82 49 -125 49q-34 0 -47.5 -22.5t-15.5 -71.5h-129q0 126 53.5 196t155.5 70q69 0 155 -47t129 -47q57 0 60 92z" />
    <glyph glyph-name="Ograve" unicode="&#xd2;" horiz-adv-x="1626" 
d="M287 1276q189 213 526 213q335 0 524 -213t189 -545q0 -334 -189 -547q-187 -211 -524 -211q-339 0 -526 211t-187 547q0 334 187 545zM514 381q102 -135 299 -135q195 0 297 135t102 350t-102 350q-103 136 -297 136q-196 0 -299 -136q-100 -132 -100 -350t100 -350z
M956 1571h-262l-237 264h311z" />
    <glyph glyph-name="Oacute" unicode="&#xd3;" horiz-adv-x="1626" 
d="M287 1276q189 213 526 213q335 0 524 -213t189 -545q0 -334 -189 -547q-187 -211 -524 -211q-339 0 -526 211t-187 547q0 334 187 545zM514 381q102 -135 299 -135q195 0 297 135t102 350t-102 350q-103 136 -297 136q-196 0 -299 -136q-100 -132 -100 -350t100 -350z
M866 1835h314l-240 -264h-260z" />
    <glyph glyph-name="Ocircumflex" unicode="&#xd4;" horiz-adv-x="1626" 
d="M287 1276q189 213 526 213q335 0 524 -213t189 -545q0 -334 -189 -547q-187 -211 -524 -211q-339 0 -526 211t-187 547q0 334 187 545zM514 381q102 -135 299 -135q195 0 297 135t102 350t-102 350q-103 136 -297 136q-196 0 -299 -136q-100 -132 -100 -350t100 -350z
M692 1835h248l223 -264h-227l-96 112h-54l-94 -112h-223z" />
    <glyph glyph-name="Otilde" unicode="&#xd5;" horiz-adv-x="1626" 
d="M287 1276q189 213 526 213q335 0 524 -213t189 -545q0 -334 -189 -547q-187 -211 -524 -211q-339 0 -526 211t-187 547q0 334 187 545zM514 381q102 -135 299 -135q195 0 297 135t102 350t-102 350q-103 136 -297 136q-196 0 -299 -136q-100 -132 -100 -350t100 -350z
M1028 1835h131q0 -125 -54.5 -195.5t-156.5 -70.5q-69 0 -155 47q-82 49 -125 49q-34 0 -48 -22.5t-16 -71.5h-129q0 126 53.5 196t155.5 70q70 0 156 -47t129 -47q56 0 59 92z" />
    <glyph glyph-name="Odieresis" unicode="&#xd6;" horiz-adv-x="1626" 
d="M287 1276q189 213 526 213q335 0 524 -213t189 -545q0 -334 -189 -547q-187 -211 -524 -211q-339 0 -526 211t-187 547q0 334 187 545zM514 381q102 -135 299 -135q195 0 297 135t102 350t-102 350q-103 136 -297 136q-196 0 -299 -136q-100 -132 -100 -350t100 -350z
M1137 1835v-233h-240v233h240zM735 1835v-233h-241v233h241z" />
    <glyph glyph-name="multiply" unicode="&#xd7;" horiz-adv-x="1347" 
d="M164 250l340 342l-342 344l170 170l342 -342l344 342l168 -170l-340 -342l340 -346l-168 -168l-344 342l-340 -340z" />
    <glyph glyph-name="Oslash" unicode="&#xd8;" horiz-adv-x="1626" 
d="M813 1489q246 0 420 -121l78 94h215l-170 -207q170 -206 170 -524q0 -334 -189 -547q-187 -211 -524 -211q-246 0 -420 119l-76 -92h-217l170 205q-170 206 -170 526q0 334 187 545q189 213 526 213zM414 731q0 -168 59 -280l574 694q-97 72 -234 72
q-192 0 -295.5 -132.5t-103.5 -353.5zM813 246q192 0 295.5 132t103.5 353q0 169 -59 281l-573 -695q89 -71 233 -71z" />
    <glyph glyph-name="Ugrave" unicode="&#xd9;" horiz-adv-x="1556" 
d="M1085 545v917h306v-923q0 -270 -160.5 -418t-454.5 -148q-293 0 -451.5 147.5t-158.5 418.5v923h305v-917q0 -138 81 -218.5t226 -80.5q146 0 226.5 80.5t80.5 218.5zM934 1571h-262l-238 264h311z" />
    <glyph glyph-name="Uacute" unicode="&#xda;" horiz-adv-x="1556" 
d="M1085 545v917h306v-923q0 -270 -160.5 -418t-454.5 -148q-293 0 -451.5 147.5t-158.5 418.5v923h305v-917q0 -138 81 -218.5t226 -80.5q146 0 226.5 80.5t80.5 218.5zM809 1835h313l-239 -264h-260z" />
    <glyph glyph-name="Ucircumflex" unicode="&#xdb;" horiz-adv-x="1556" 
d="M1085 545v917h306v-923q0 -270 -160.5 -418t-454.5 -148q-293 0 -451.5 147.5t-158.5 418.5v923h305v-917q0 -138 81 -218.5t226 -80.5q146 0 226.5 80.5t80.5 218.5zM655 1835h248l223 -264h-227l-96 112h-53l-95 -112h-223z" />
    <glyph glyph-name="Udieresis" unicode="&#xdc;" horiz-adv-x="1556" 
d="M1085 545v917h306v-923q0 -270 -160.5 -418t-454.5 -148q-293 0 -451.5 147.5t-158.5 418.5v923h305v-917q0 -138 81 -218.5t226 -80.5q146 0 226.5 80.5t80.5 218.5zM1100 1835v-233h-240v233h240zM698 1835v-233h-241v233h241z" />
    <glyph glyph-name="Yacute" unicode="&#xdd;" horiz-adv-x="1390" 
d="M352 1462l314 -583h57l313 583h324l-512 -942v-520h-307v520l-510 942h321zM729 1835h313l-239 -264h-260z" />
    <glyph glyph-name="Thorn" unicode="&#xde;" horiz-adv-x="1396" 
d="M475 1184h316q239 0 373 -119.5t134 -333.5q0 -211 -134 -331.5t-373 -120.5h-316v-279h-305v1462h305v-278zM475 547h275q235 0 235 186q0 92 -56 137t-179 45h-275v-368z" />
    <glyph glyph-name="germandbls" unicode="&#xdf;" horiz-adv-x="1316" 
d="M993 831v-51q110 -33 178 -128.5t68 -223.5q0 -201 -124.5 -314.5t-340.5 -113.5h-139v238h86q108 0 169.5 52.5t61.5 158.5q0 109 -65.5 167t-192.5 58h-26v237h26q85 0 130.5 47.5t45.5 124.5q0 78 -49.5 126t-130.5 48q-194 0 -194 -237v-1020h-287v813h-176v240h178
q0 206 131 324t354 118q201 0 328 -109q129 -108 129 -282q0 -93 -44 -167.5t-116 -105.5z" />
    <glyph glyph-name="agrave" unicode="&#xe0;" horiz-adv-x="1200" 
d="M1063 0h-264v90h-54q-99 -117 -294 -117q-172 0 -273 101q-100 100 -100 250q0 142 106 245q108 105 322 105h280v26q0 164 -186 164q-166 0 -178 -112h-285q6 148 129 237q128 90 320 90q231 0 354 -98t123 -297v-684zM551 201q103 0 169 62t66 159v65h-225
q-196 0 -196 -141q0 -145 186 -145zM768 1192h-254l-238 297h302z" />
    <glyph glyph-name="aacute" unicode="&#xe1;" horiz-adv-x="1200" 
d="M1063 0h-264v90h-54q-99 -117 -294 -117q-172 0 -273 101q-100 100 -100 250q0 142 106 245q108 105 322 105h280v26q0 164 -186 164q-166 0 -178 -112h-285q6 148 129 237q128 90 320 90q231 0 354 -98t123 -297v-684zM551 201q103 0 169 62t66 159v65h-225
q-196 0 -196 -141q0 -145 186 -145zM621 1489h303l-240 -297h-252z" />
    <glyph glyph-name="acircumflex" unicode="&#xe2;" horiz-adv-x="1200" 
d="M1063 0h-264v90h-54q-99 -117 -294 -117q-172 0 -273 101q-100 100 -100 250q0 142 106 245q108 105 322 105h280v26q0 164 -186 164q-166 0 -178 -112h-285q6 148 129 237q128 90 320 90q231 0 354 -98t123 -297v-684zM551 201q103 0 169 62t66 159v65h-225
q-196 0 -196 -141q0 -145 186 -145zM485 1489h244l225 -297h-217l-106 135h-53l-105 -135h-213z" />
    <glyph glyph-name="atilde" unicode="&#xe3;" horiz-adv-x="1200" 
d="M1063 0h-264v90h-54q-99 -117 -294 -117q-172 0 -273 101q-100 100 -100 250q0 142 106 245q108 105 322 105h280v26q0 164 -186 164q-166 0 -178 -112h-285q6 148 129 237q128 90 320 90q231 0 354 -98t123 -297v-684zM551 201q103 0 169 62t66 159v65h-225
q-196 0 -196 -141q0 -145 186 -145zM838 1483h129q0 -135 -54 -211t-155 -76q-73 0 -156 57q-85 60 -121 60q-67 0 -67 -117h-129q0 135 54 211t155 76q67 0 155 -60q83 -57 123 -57q66 0 66 117z" />
    <glyph glyph-name="adieresis" unicode="&#xe4;" horiz-adv-x="1200" 
d="M1063 0h-264v90h-54q-99 -117 -294 -117q-172 0 -273 101q-100 100 -100 250q0 142 106 245q108 105 322 105h280v26q0 164 -186 164q-166 0 -178 -112h-285q6 148 129 237q128 90 320 90q231 0 354 -98t123 -297v-684zM551 201q103 0 169 62t66 159v65h-225
q-196 0 -196 -141q0 -145 186 -145zM940 1489v-256h-240v256h240zM539 1489v-256h-242v256h242z" />
    <glyph glyph-name="aring" unicode="&#xe5;" horiz-adv-x="1200" 
d="M1063 0h-264v90h-54q-99 -117 -294 -117q-172 0 -273 101q-100 100 -100 250q0 142 106 245q108 105 322 105h280v26q0 164 -186 164q-166 0 -178 -112h-285q6 148 129 237q128 90 320 90q231 0 354 -98t123 -297v-684zM551 201q103 0 169 62t66 159v65h-225
q-196 0 -196 -141q0 -145 186 -145zM606 1640q101 0 170 -69q72 -69 72 -166q0 -96 -72 -168q-71 -68 -170 -68t-170 68q-71 71 -71 168q0 98 71 166q69 69 170 69zM606 1303q43 0 74 30t31 72q0 43 -31 73.5t-74 30.5q-41 0 -71.5 -30.5t-30.5 -73.5q0 -42 30 -72t72 -30z
" />
    <glyph glyph-name="ae" unicode="&#xe6;" horiz-adv-x="1878" 
d="M1786 573v-79h-744q8 -135 71.5 -209t178.5 -74q146 0 193 111h291q-74 -349 -484 -349q-242 0 -381 177h-49q-139 -177 -389 -177q-183 0 -289 95.5t-106 250.5q0 162 116 258.5t320 96.5h256v26q0 164 -182 164q-155 0 -170 -112h-285q8 148 128 237.5t314 89.5
q226 0 340 -129h52q129 129 331 129q221 0 353 -141t135 -365zM770 416v71h-211q-194 0 -194 -143q0 -69 46.5 -106t131.5 -37q103 0 165 59t62 156zM1284 864q-186 0 -227 -188h438q-12 89 -66 138.5t-145 49.5z" />
    <glyph glyph-name="ccedilla" unicode="&#xe7;" horiz-adv-x="1193" 
d="M821 354h283q-21 -170 -152 -274t-327 -107l-35 -92h28q27 21 80 21q68 0 113 -49t45 -127q0 -84 -60 -139.5t-171 -55.5q-95 0 -152.5 47.5t-62.5 118.5h147q12 -51 72 -51q45 -5 64 33t0 76t-64 32q-39 0 -64 -25h-127l84 220q-201 29 -315.5 173.5t-114.5 370.5
q0 252 144 402q145 151 387 151q195 0 322.5 -98.5t150.5 -263.5h-285q-35 123 -186 123q-121 0 -183.5 -85t-62.5 -227q0 -145 62.5 -231t183.5 -86q169 0 196 143z" />
    <glyph glyph-name="egrave" unicode="&#xe8;" horiz-adv-x="1222" 
d="M1130 580v-86h-753q12 -283 256 -283q153 0 196 111h291q-33 -164 -160 -256.5t-331 -92.5q-247 0 -393 152q-144 150 -144 405q0 253 144 400q143 149 387 149q232 0 368 -139t139 -360zM621 864q-188 0 -234 -180h451q-12 86 -68 133t-149 47zM801 1192h-254l-238 297
h301z" />
    <glyph glyph-name="eacute" unicode="&#xe9;" horiz-adv-x="1222" 
d="M1130 580v-86h-753q12 -283 256 -283q153 0 196 111h291q-33 -164 -160 -256.5t-331 -92.5q-247 0 -393 152q-144 150 -144 405q0 253 144 400q143 149 387 149q232 0 368 -139t139 -360zM621 864q-188 0 -234 -180h451q-12 86 -68 133t-149 47zM670 1489h303l-240 -297
h-252z" />
    <glyph glyph-name="ecircumflex" unicode="&#xea;" horiz-adv-x="1222" 
d="M1130 580v-86h-753q12 -283 256 -283q153 0 196 111h291q-33 -164 -160 -256.5t-331 -92.5q-247 0 -393 152q-144 150 -144 405q0 253 144 400q143 149 387 149q232 0 368 -139t139 -360zM621 864q-188 0 -234 -180h451q-12 86 -68 133t-149 47zM498 1489h243l226 -297
h-217l-107 135h-53l-105 -135h-213z" />
    <glyph glyph-name="edieresis" unicode="&#xeb;" horiz-adv-x="1222" 
d="M1130 580v-86h-753q12 -283 256 -283q153 0 196 111h291q-33 -164 -160 -256.5t-331 -92.5q-247 0 -393 152q-144 150 -144 405q0 253 144 400q143 149 387 149q232 0 368 -139t139 -360zM621 864q-188 0 -234 -180h451q-12 86 -68 133t-149 47zM946 1489v-256h-239v256
h239zM545 1489v-256h-242v256h242z" />
    <glyph glyph-name="igrave" unicode="&#xec;" horiz-adv-x="595" 
d="M154 1053h286v-1053h-286v1053zM440 1192h-254l-237 297h301z" />
    <glyph glyph-name="iacute" unicode="&#xed;" horiz-adv-x="593" 
d="M154 1053h286v-1053h-286v1053zM360 1489h304l-240 -297h-252z" />
    <glyph glyph-name="icircumflex" unicode="&#xee;" horiz-adv-x="593" 
d="M154 1053h286v-1053h-286v1053zM176 1489h244l225 -297h-217l-106 135h-54l-104 -135h-213z" />
    <glyph glyph-name="idieresis" unicode="&#xef;" horiz-adv-x="593" 
d="M618 1489v-256h-239v256h239zM217 1489v-256h-242v256h242zM154 1053h286v-1053h-286v1053z" />
    <glyph glyph-name="eth" unicode="&#xf0;" horiz-adv-x="1261" 
d="M694 1141h-413v135h286q-100 95 -272 213h342q134 -91 244 -213h225v-135h-121q184 -269 184 -596q0 -259 -143 -414q-143 -158 -399 -158q-247 0 -391 150t-144 383q0 228 127 373q130 145 318 145q151 0 225 -68h53q-37 84 -121 185zM881 504q0 135 -64.5 215
t-185.5 80q-124 0 -189 -80t-65 -215q0 -133 66 -213t188 -80q121 0 185.5 80t64.5 213z" />
    <glyph glyph-name="ntilde" unicode="&#xf1;" horiz-adv-x="1300" 
d="M1163 647v-647h-286v596q0 111 -53 170t-152 59q-103 0 -168.5 -77t-65.5 -189v-559h-286v1053h276v-97h53q95 123 293 123q190 0 289.5 -113t99.5 -319zM872 1483h129q0 -136 -53.5 -211.5t-154.5 -75.5q-73 0 -156 57q-85 60 -121 60q-67 0 -67 -117h-130q0 135 54 211
t155 76q68 0 156 -60q83 -57 123 -57q65 0 65 117z" />
    <glyph glyph-name="ograve" unicode="&#xf2;" horiz-adv-x="1273" 
d="M240 926q150 153 397 153t395 -151q150 -150 150 -402q0 -251 -150 -401q-149 -152 -395 -152q-245 0 -397 152q-148 154 -148 401q0 249 148 400zM637 211q125 0 191.5 86.5t66.5 228.5q0 140 -66.5 227t-191.5 87q-124 0 -191 -87t-67 -227q0 -141 67 -228t191 -87z
M776 1192h-254l-237 297h301z" />
    <glyph glyph-name="oacute" unicode="&#xf3;" horiz-adv-x="1273" 
d="M240 926q150 153 397 153t395 -151q150 -150 150 -402q0 -251 -150 -401q-149 -152 -395 -152q-245 0 -397 152q-148 154 -148 401q0 249 148 400zM637 211q125 0 191.5 86.5t66.5 228.5q0 140 -66.5 227t-191.5 87q-124 0 -191 -87t-67 -227q0 -141 67 -228t191 -87z
M688 1489h303l-239 -297h-252z" />
    <glyph glyph-name="ocircumflex" unicode="&#xf4;" horiz-adv-x="1273" 
d="M240 926q150 153 397 153t395 -151q150 -150 150 -402q0 -251 -150 -401q-149 -152 -395 -152q-245 0 -397 152q-148 154 -148 401q0 249 148 400zM637 211q125 0 191.5 86.5t66.5 228.5q0 140 -66.5 227t-191.5 87q-124 0 -191 -87t-67 -227q0 -141 67 -228t191 -87z
M516 1489h244l225 -297h-217l-106 135h-54l-104 -135h-213z" />
    <glyph glyph-name="otilde" unicode="&#xf5;" horiz-adv-x="1273" 
d="M240 926q150 153 397 153t395 -151q150 -150 150 -402q0 -251 -150 -401q-149 -152 -395 -152q-245 0 -397 152q-148 154 -148 401q0 249 148 400zM637 211q125 0 191.5 86.5t66.5 228.5q0 140 -66.5 227t-191.5 87q-124 0 -191 -87t-67 -227q0 -141 67 -228t191 -87z
M848 1483h129q0 -135 -54 -211t-155 -76q-73 0 -156 57q-85 60 -120 60q-68 0 -68 -117h-129q0 135 54 211t155 76q67 0 155 -60q83 -57 123 -57q66 0 66 117z" />
    <glyph glyph-name="odieresis" unicode="&#xf6;" horiz-adv-x="1273" 
d="M240 926q150 153 397 153t395 -151q150 -150 150 -402q0 -251 -150 -401q-149 -152 -395 -152q-245 0 -397 152q-148 154 -148 401q0 249 148 400zM637 211q125 0 191.5 86.5t66.5 228.5q0 140 -66.5 227t-191.5 87q-124 0 -191 -87t-67 -227q0 -141 67 -228t191 -87z
M958 1489v-256h-239v256h239zM557 1489v-256h-242v256h242z" />
    <glyph glyph-name="divide" unicode="&#xf7;" horiz-adv-x="1406" 
d="M866 297v-279h-325v279h325zM866 1165v-278h-325v278h325zM1245 715v-244h-1083v244h1083z" />
    <glyph glyph-name="oslash" unicode="&#xf8;" horiz-adv-x="1273" 
d="M637 1079q177 0 311 -84l49 58h185l-127 -150q127 -145 127 -377q0 -251 -150 -401q-149 -152 -395 -152q-183 0 -311 84l-50 -57h-184l127 147q-127 151 -127 379q0 249 148 400q150 153 397 153zM637 211q125 0 191.5 86.5t66.5 228.5q0 91 -31 158l-368 -430
q55 -43 141 -43zM379 526q0 -99 31 -159l366 430q-55 43 -139 43q-124 0 -191 -87t-67 -227z" />
    <glyph glyph-name="ugrave" unicode="&#xf9;" horiz-adv-x="1300" 
d="M137 406v647h287v-596q0 -111 53 -170.5t152 -59.5q102 0 167.5 77.5t65.5 189.5v559h287v-1053h-277v96h-53q-95 -123 -293 -123q-190 0 -289.5 113.5t-99.5 319.5zM786 1192h-254l-237 297h301z" />
    <glyph glyph-name="uacute" unicode="&#xfa;" horiz-adv-x="1300" 
d="M137 406v647h287v-596q0 -111 53 -170.5t152 -59.5q102 0 167.5 77.5t65.5 189.5v559h287v-1053h-277v96h-53q-95 -123 -293 -123q-190 0 -289.5 113.5t-99.5 319.5zM690 1489h303l-239 -297h-252z" />
    <glyph glyph-name="ucircumflex" unicode="&#xfb;" horiz-adv-x="1300" 
d="M137 406v647h287v-596q0 -111 53 -170.5t152 -59.5q102 0 167.5 77.5t65.5 189.5v559h287v-1053h-277v96h-53q-95 -123 -293 -123q-190 0 -289.5 113.5t-99.5 319.5zM520 1489h244l225 -297h-217l-106 135h-54l-104 -135h-213z" />
    <glyph glyph-name="udieresis" unicode="&#xfc;" horiz-adv-x="1300" 
d="M137 406v647h287v-596q0 -111 53 -170.5t152 -59.5q102 0 167.5 77.5t65.5 189.5v559h287v-1053h-277v96h-53q-95 -123 -293 -123q-190 0 -289.5 113.5t-99.5 319.5zM963 1489v-256h-240v256h240zM561 1489v-256h-242v256h242z" />
    <glyph glyph-name="yacute" unicode="&#xfd;" horiz-adv-x="1216" 
d="M1182 1053l-635 -1463h-287l223 519l-446 944h299l262 -561h53l242 561h289zM657 1489h304l-240 -297h-252z" />
    <glyph glyph-name="thorn" unicode="&#xfe;" 
d="M684 840q-123 0 -189.5 -87t-66.5 -227t66.5 -227.5t189.5 -87.5q120 0 186 86t66 229t-66 228.5t-186 85.5zM152 -410v1899h286v-533h54q94 123 286 123q205 0 324 -155q121 -154 121 -398q0 -242 -121 -399q-121 -154 -326 -154q-192 0 -284 123h-54v-506h-286z" />
    <glyph glyph-name="ydieresis" unicode="&#xff;" horiz-adv-x="1216" 
d="M1182 1053l-635 -1463h-287l223 519l-446 944h299l262 -561h53l242 561h289zM938 1489v-256h-240v256h240zM537 1489v-256h-242v256h242z" />
    <glyph glyph-name="Amacron" unicode="&#x100;" horiz-adv-x="1478" 
d="M1442 0h-309l-119 395h-557l-119 -395h-301l465 1462h473zM778 1169h-90l-153 -507h397zM1049 1796v-168h-619v168h619z" />
    <glyph glyph-name="amacron" unicode="&#x101;" horiz-adv-x="1200" 
d="M1063 0h-264v90h-54q-99 -117 -294 -117q-172 0 -273 101q-100 100 -100 250q0 142 106 245q108 105 322 105h280v26q0 164 -186 164q-166 0 -178 -112h-285q6 148 129 237q128 90 320 90q231 0 354 -98t123 -297v-684zM551 201q103 0 169 62t66 159v65h-225
q-196 0 -196 -141q0 -145 186 -145zM920 1442v-174h-619v174h619z" />
    <glyph glyph-name="Abreve" unicode="&#x102;" horiz-adv-x="1478" 
d="M1442 0h-309l-119 395h-557l-119 -395h-301l465 1462h473zM778 1169h-90l-153 -507h397zM866 1835h170q-5 -125 -81.5 -194.5t-215.5 -69.5q-138 0 -214 70t-81 194h172q3 -113 123 -113q58 0 92 29.5t35 83.5z" />
    <glyph glyph-name="abreve" unicode="&#x103;" horiz-adv-x="1200" 
d="M1063 0h-264v90h-54q-99 -117 -294 -117q-172 0 -273 101q-100 100 -100 250q0 142 106 245q108 105 322 105h280v26q0 164 -186 164q-166 0 -178 -112h-285q6 148 129 237q128 90 320 90q231 0 354 -98t123 -297v-684zM551 201q103 0 169 62t66 159v65h-225
q-196 0 -196 -141q0 -145 186 -145zM727 1489h170q0 -138 -77 -217.5t-218 -79.5t-219 79.5t-78 217.5h172q0 -139 125 -139q61 0 93 36t32 103z" />
    <glyph glyph-name="Aogonek" unicode="&#x104;" horiz-adv-x="1482" 
d="M1264 0h-131l-119 395h-557l-119 -395h-301l465 1462h473l467 -1462q-119 -64 -119 -150q0 -42 32 -67t91 -25v-168h-62q-135 0 -204.5 53t-69.5 144q0 65 40.5 123.5t113.5 89.5zM778 1169h-90l-153 -507h397z" />
    <glyph glyph-name="aogonek" unicode="&#x105;" horiz-adv-x="1200" 
d="M885 0h-86v90h-54q-99 -117 -294 -117q-172 0 -273 101q-100 100 -100 250q0 142 106 245q108 105 322 105h280v26q0 164 -186 164q-166 0 -178 -112h-285q6 148 129 237q128 90 320 90q231 0 354 -98t123 -297v-684q-119 -64 -119 -150q0 -42 32 -67t91 -25v-168h-61
q-135 0 -205 53t-70 144q0 65 40.5 123.5t113.5 89.5zM551 201q103 0 169 62t66 159v65h-225q-196 0 -196 -141q0 -145 186 -145z" />
    <glyph glyph-name="Cacute" unicode="&#x106;" horiz-adv-x="1536" 
d="M1092 467h317q-34 -224 -197 -358q-165 -136 -413 -136q-327 0 -516 207q-185 209 -185 551q0 344 187 549q188 209 514 209q242 0 397 -125q159 -123 199 -328h-320q-52 181 -276 181q-186 0 -289 -136q-98 -134 -98 -350q0 -213 98 -350q102 -135 289 -135
q118 0 194 58t99 163zM852 1835h313l-239 -264h-260z" />
    <glyph glyph-name="cacute" unicode="&#x107;" horiz-adv-x="1193" 
d="M821 354h283q-21 -170 -154 -276q-132 -105 -327 -105q-243 0 -387 150t-144 403q0 252 144 402q145 151 387 151q195 0 322.5 -98.5t150.5 -263.5h-285q-35 123 -186 123q-121 0 -183.5 -85t-62.5 -227q0 -145 62.5 -231t183.5 -86q169 0 196 143zM655 1489h303
l-239 -297h-252z" />
    <glyph glyph-name="Ccaron" unicode="&#x10c;" horiz-adv-x="1536" 
d="M1092 467h317q-34 -224 -197 -358q-165 -136 -413 -136q-327 0 -516 207q-185 209 -185 551q0 344 187 549q188 209 514 209q242 0 397 -125q159 -123 199 -328h-320q-52 181 -276 181q-186 0 -289 -136q-98 -134 -98 -350q0 -213 98 -350q102 -135 289 -135
q118 0 194 58t99 163zM928 1571h-248l-223 264h227l94 -113h53l97 113h223z" />
    <glyph glyph-name="ccaron" unicode="&#x10d;" horiz-adv-x="1193" 
d="M821 354h283q-21 -170 -154 -276q-132 -105 -327 -105q-243 0 -387 150t-144 403q0 252 144 402q145 151 387 151q195 0 322.5 -98.5t150.5 -263.5h-285q-35 123 -186 123q-121 0 -183.5 -85t-62.5 -227q0 -145 62.5 -231t183.5 -86q169 0 196 143zM741 1192h-243
l-226 297h217l105 -135h53l105 135h215z" />
    <glyph glyph-name="Dcaron" unicode="&#x10e;" horiz-adv-x="1560" 
d="M170 1462h610q329 0 504 -196q174 -195 174 -535q0 -339 -174 -534q-176 -197 -504 -197h-610v1462zM475 272h266q202 0 303 123t101 336q0 215 -100.5 337t-303.5 122h-266v-918zM842 1571h-248l-223 264h227l94 -113h53l97 113h223z" />
    <glyph glyph-name="dcaron" unicode="&#x10f;" horiz-adv-x="1587" 
d="M1479 1190v51h-140v248h301v-299l-155 -170h-162zM539 1079q193 0 284 -123h54v533h286v-1489h-276v96h-53q-99 -123 -295 -123q-207 0 -328 154q-119 155 -119 399t121 398q119 155 326 155zM631 211q123 0 189.5 87.5t66.5 227.5t-66.5 227t-189.5 87
q-122 0 -187 -85.5t-65 -228.5q0 -144 65.5 -229.5t186.5 -85.5z" />
    <glyph glyph-name="Dcroat" unicode="&#x110;" horiz-adv-x="1601" 
d="M213 625h-172v233h172v604h610q329 0 504 -196q174 -195 174 -535q0 -339 -174 -534q-176 -197 -504 -197h-610v625zM518 272h266q202 0 303 123t101 336q0 215 -100.5 337t-303.5 122h-266v-332h361v-233h-361v-353z" />
    <glyph glyph-name="dslash" unicode="&#x111;" horiz-adv-x="1353" 
d="M539 1079q193 0 284 -123h54v224h-320v145h320v164h286v-164h158v-145h-158v-1180h-278v96h-51q-99 -123 -295 -123q-207 0 -328 154q-119 155 -119 399t121 398q119 155 326 155zM629 211q123 0 189.5 87.5t66.5 227.5t-66.5 227t-189.5 87q-120 0 -185 -85.5
t-65 -228.5t65 -229t185 -86z" />
    <glyph glyph-name="Emacron" unicode="&#x112;" horiz-adv-x="1363" 
d="M475 616v-344h799v-272h-1104v1462h1081v-272h-776v-307h604v-267h-604zM1030 1796v-168h-618v168h618z" />
    <glyph glyph-name="emacron" unicode="&#x113;" horiz-adv-x="1222" 
d="M1130 580v-86h-753q12 -283 256 -283q153 0 196 111h291q-33 -164 -160 -256.5t-331 -92.5q-247 0 -393 152q-144 150 -144 405q0 253 144 400q143 149 387 149q232 0 368 -139t139 -360zM621 864q-188 0 -234 -180h451q-12 86 -68 133t-149 47zM944 1442v-174h-618v174
h618z" />
    <glyph glyph-name="Edotaccent" unicode="&#x116;" horiz-adv-x="1363" 
d="M475 616v-344h799v-272h-1104v1462h1081v-272h-776v-307h604v-267h-604zM866 1835v-233h-291v233h291z" />
    <glyph glyph-name="edotaccent" unicode="&#x117;" horiz-adv-x="1222" 
d="M1130 580v-86h-753q12 -283 256 -283q153 0 196 111h291q-33 -164 -160 -256.5t-331 -92.5q-247 0 -393 152q-144 150 -144 405q0 253 144 400q143 149 387 149q232 0 368 -139t139 -360zM621 864q-188 0 -234 -180h451q-12 86 -68 133t-149 47zM770 1489v-256h-291v256
h291z" />
    <glyph glyph-name="Eogonek" unicode="&#x118;" horiz-adv-x="1363" 
d="M475 616v-344h799v-272q-119 -64 -119 -150q0 -42 32 -67t91 -25v-168h-61q-135 0 -205 53t-70 144q0 65 40.5 123.5t113.5 89.5h-926v1462h1081v-272h-776v-307h604v-267h-604z" />
    <glyph glyph-name="eogonek" unicode="&#x119;" horiz-adv-x="1222" 
d="M1130 580v-86h-753q12 -283 256 -283q153 0 196 111h291q-41 -195 -221 -293q-127 -71 -127 -152q0 -42 32 -67t91 -25v-168h-61q-135 0 -205 53t-70 144q0 87 72 159h-2q-247 0 -393 152q-144 150 -144 405q0 253 144 400q143 149 387 149q232 0 368 -139t139 -360z
M621 864q-188 0 -234 -180h451q-12 86 -68 133t-149 47z" />
    <glyph glyph-name="Ecaron" unicode="&#x11a;" horiz-adv-x="1363" 
d="M475 616v-344h799v-272h-1104v1462h1081v-272h-776v-307h604v-267h-604zM846 1571h-248l-223 264h227l94 -113h54l96 113h223z" />
    <glyph glyph-name="ecaron" unicode="&#x11b;" horiz-adv-x="1222" 
d="M1130 580v-86h-753q12 -283 256 -283q153 0 196 111h291q-33 -164 -160 -256.5t-331 -92.5q-247 0 -393 152q-144 150 -144 405q0 253 144 400q143 149 387 149q232 0 368 -139t139 -360zM621 864q-188 0 -234 -180h451q-12 86 -68 133t-149 47zM745 1192h-243l-226 297
h218l104 -135h53l105 135h215z" />
    <glyph glyph-name="uni0122" unicode="&#x122;" horiz-adv-x="1576" 
d="M799 563v250h651v-172q0 -105 -22 -201t-72 -182t-123 -148.5t-181.5 -99.5t-242.5 -37q-334 0 -522 209q-185 209 -185 549q0 341 187 549q188 209 522 209q243 0 400 -119t200 -326h-317q-53 173 -285 173q-187 0 -290 -132.5t-103 -353.5q0 -217 102 -352t293 -135
q159 0 244 84.5t90 234.5h-346zM956 -348l-139 -127h-168l142 127v43h-121v194h286v-237z" />
    <glyph glyph-name="uni0123" unicode="&#x123;" horiz-adv-x="1316" 
d="M891 956v97h276v-1002q0 -220 -147 -352q-143 -131 -381 -131q-222 0 -357.5 93t-148.5 261h285q21 -129 217 -129q246 0 246 283v61h-54q-83 -121 -274 -121q-207 0 -334 148q-125 146 -125 383t125 383q125 149 336 149q98 0 171.5 -34.5t111.5 -88.5h53zM633 256
q120 0 189 81.5t69 209.5q0 130 -69 211.5t-189 81.5q-116 0 -184 -81t-68 -212q0 -130 68 -210.5t184 -80.5zM492 1421l139 127h168l-142 -127v-43h121v-194h-286v237z" />
    <glyph glyph-name="Itilde" unicode="&#x128;" horiz-adv-x="665" 
d="M545 1835h131q0 -125 -54.5 -195.5t-156.5 -70.5q-70 0 -156 47q-82 49 -125 49q-34 0 -47.5 -22.5t-15.5 -71.5h-129q0 126 53.5 196t155.5 70q69 0 155 -47t129 -47q57 0 60 92zM180 0v1462h305v-1462h-305z" />
    <glyph glyph-name="itilde" unicode="&#x129;" horiz-adv-x="593" 
d="M510 1483h129q0 -135 -54 -211t-155 -76q-73 0 -156 57q-85 60 -120 60q-68 0 -68 -117h-129q0 135 54 211t155 76q68 0 156 -60q83 -57 122 -57q66 0 66 117zM154 1053h286v-1053h-286v1053z" />
    <glyph glyph-name="Imacron" unicode="&#x12a;" horiz-adv-x="665" 
d="M641 1796v-168h-618v168h618zM180 0v1462h305v-1462h-305z" />
    <glyph glyph-name="imacron" unicode="&#x12b;" horiz-adv-x="593" 
d="M154 1053h286v-1053h-286v1053zM606 1442v-174h-618v174h618z" />
    <glyph glyph-name="Iogonek" unicode="&#x12e;" horiz-adv-x="665" 
d="M180 0v1462h305v-1462q-118 -63 -118 -150q0 -42 31.5 -67t90.5 -25v-168h-61q-135 0 -204.5 53t-69.5 144q0 65 40 123.5t113 89.5h-127z" />
    <glyph glyph-name="iogonek" unicode="&#x12f;" horiz-adv-x="593" 
d="M154 1053h286v-1053q-118 -63 -118 -150q0 -42 31.5 -67t90.5 -25v-168h-61q-135 0 -204.5 53t-69.5 144q0 65 40 123.5t113 89.5h-108v1053zM442 1489v-256h-290v256h290z" />
    <glyph glyph-name="dotlessi" unicode="&#x131;" horiz-adv-x="593" 
d="M154 1053h286v-1053h-286v1053z" />
    <glyph glyph-name="uni0136" unicode="&#x136;" horiz-adv-x="1542" 
d="M475 0h-305v1462h305v-604l598 604h357l-439 -458l508 -1004h-336l-370 735h-54l-264 -264v-471zM963 -348l-140 -127h-168l142 127v43h-121v194h287v-237z" />
    <glyph glyph-name="uni0137" unicode="&#x137;" horiz-adv-x="1220" 
d="M850 727l354 -727h-301l-244 494h-53l-166 -187v-307h-288v1489h288v-848l389 412h320zM817 -348l-139 -127h-168l141 127v43h-121v194h287v-237z" />
    <glyph glyph-name="kgreenlandic" unicode="&#x138;" horiz-adv-x="1226" 
d="M850 727l354 -727h-301l-244 494h-53l-166 -187v-307h-288v1053h288v-412l389 412h320z" />
    <glyph glyph-name="Lacute" unicode="&#x139;" horiz-adv-x="1333" 
d="M475 1462v-1183h774v-279h-1079v1462h305zM377 1835h313l-239 -264h-261z" />
    <glyph glyph-name="lacute" unicode="&#x13a;" horiz-adv-x="589" 
d="M152 0v1489h286v-1489h-286zM352 1835h314l-240 -264h-260z" />
    <glyph glyph-name="uni013B" unicode="&#x13b;" horiz-adv-x="1333" 
d="M852 -348l-139 -127h-168l141 127v43h-121v194h287v-237zM475 1462v-1183h774v-279h-1079v1462h305z" />
    <glyph glyph-name="uni013C" unicode="&#x13c;" horiz-adv-x="589" 
d="M438 -348l-139 -127h-168l141 127v43h-120v194h286v-237zM152 0v1489h286v-1489h-286z" />
    <glyph glyph-name="Lcaron" unicode="&#x13d;" horiz-adv-x="1333" 
d="M928 1163v51h-140v248h302v-299l-156 -170h-162zM475 1462v-1183h774v-279h-1079v1462h305z" />
    <glyph glyph-name="lcaron" unicode="&#x13e;" horiz-adv-x="862" 
d="M754 1241h-140v248h301v-299l-155 -170h-162l156 170v51zM152 0v1489h286v-1489h-286z" />
    <glyph glyph-name="Lslash" unicode="&#x141;" horiz-adv-x="1388" 
d="M528 668v-389h777v-279h-1082v545l-182 -72v252l182 72v665h305v-542l361 145v-252z" />
    <glyph glyph-name="lslash" unicode="&#x142;" horiz-adv-x="761" 
d="M238 811v678h286v-549l199 88v-254l-199 -88v-686h-286v557l-199 -88v254z" />
    <glyph glyph-name="Nacute" unicode="&#x143;" horiz-adv-x="1599" 
d="M1153 471v991h279v-1462h-396l-536 991h-54v-991h-278v1462h395l537 -991h53zM838 1835h313l-240 -264h-260z" />
    <glyph glyph-name="nacute" unicode="&#x144;" horiz-adv-x="1300" 
d="M1163 647v-647h-286v596q0 111 -53 170t-152 59q-103 0 -168.5 -77t-65.5 -189v-559h-286v1053h276v-97h53q95 123 293 123q190 0 289.5 -113t99.5 -319zM713 1489h303l-240 -297h-252z" />
    <glyph glyph-name="uni0145" unicode="&#x145;" horiz-adv-x="1599" 
d="M1153 471v991h279v-1462h-396l-536 991h-54v-991h-278v1462h395l537 -991h53zM946 -348l-139 -127h-168l141 127v43h-121v194h287v-237z" />
    <glyph glyph-name="uni0146" unicode="&#x146;" horiz-adv-x="1300" 
d="M1163 647v-647h-286v596q0 111 -53 170t-152 59q-103 0 -168.5 -77t-65.5 -189v-559h-286v1053h276v-97h53q95 123 293 123q190 0 289.5 -113t99.5 -319zM803 -348l-139 -127h-168l141 127v43h-121v194h287v-237z" />
    <glyph glyph-name="Ncaron" unicode="&#x147;" horiz-adv-x="1599" 
d="M1153 471v991h279v-1462h-396l-536 991h-54v-991h-278v1462h395l537 -991h53zM924 1571h-248l-223 264h227l94 -113h53l97 113h223z" />
    <glyph glyph-name="ncaron" unicode="&#x148;" horiz-adv-x="1300" 
d="M1163 647v-647h-286v596q0 111 -53 170t-152 59q-103 0 -168.5 -77t-65.5 -189v-559h-286v1053h276v-97h53q95 123 293 123q190 0 289.5 -113t99.5 -319zM772 1192h-244l-225 297h217l105 -135h53l104 135h215z" />
    <glyph glyph-name="Eng" unicode="&#x14a;" horiz-adv-x="1599" 
d="M1153 471v991h281v-1421q0 -215 -125 -333t-346 -118h-95v248h84q95 0 144 38.5t59 123.5h-117l-536 991h-53v-991h-279v1462h395l537 -991h51z" />
    <glyph glyph-name="eng" unicode="&#x14b;" horiz-adv-x="1300" 
d="M1163 647v-680q0 -190 -106.5 -283.5t-296.5 -93.5h-133v238h94q156 0 156 162v606q0 111 -53 170t-152 59q-104 0 -169 -76.5t-65 -191.5v-557h-286v1053h276v-97h53q95 123 293 123q190 0 289.5 -113t99.5 -319z" />
    <glyph glyph-name="Omacron" unicode="&#x14c;" horiz-adv-x="1630" 
d="M287 1276q189 213 526 213q335 0 524 -213t189 -545q0 -334 -189 -547q-187 -211 -524 -211q-339 0 -526 211t-187 547q0 334 187 545zM514 381q102 -135 299 -135q195 0 297 135t102 350t-102 350q-103 136 -297 136q-196 0 -299 -136q-100 -132 -100 -350t100 -350z
M1124 1796v-168h-618v168h618z" />
    <glyph glyph-name="omacron" unicode="&#x14d;" horiz-adv-x="1273" 
d="M240 926q150 153 397 153t395 -151q150 -150 150 -402q0 -251 -150 -401q-149 -152 -395 -152q-245 0 -397 152q-148 154 -148 401q0 249 148 400zM637 211q125 0 191.5 86.5t66.5 228.5q0 140 -66.5 227t-191.5 87q-124 0 -191 -87t-67 -227q0 -141 67 -228t191 -87z
M946 1442v-174h-618v174h618z" />
    <glyph glyph-name="Ohungarumlaut" unicode="&#x150;" horiz-adv-x="1630" 
d="M287 1276q189 213 526 213q335 0 524 -213t189 -545q0 -334 -189 -547q-187 -211 -524 -211q-339 0 -526 211t-187 547q0 334 187 545zM514 381q102 -135 299 -135q195 0 297 135t102 350t-102 350q-103 136 -297 136q-196 0 -299 -136q-100 -132 -100 -350t100 -350z
M643 1835h277l-207 -264h-228zM1022 1835h274l-209 -264h-225z" />
    <glyph glyph-name="ohungarumlaut" unicode="&#x151;" horiz-adv-x="1273" 
d="M240 926q150 153 397 153t395 -151q150 -150 150 -402q0 -251 -150 -401q-149 -152 -395 -152q-245 0 -397 152q-148 154 -148 401q0 249 148 400zM637 211q125 0 191.5 86.5t66.5 228.5q0 140 -66.5 227t-191.5 87q-124 0 -191 -87t-67 -227q0 -141 67 -228t191 -87z
M461 1489h274l-198 -297h-228zM838 1489h274l-201 -297h-225z" />
    <glyph glyph-name="OE" unicode="&#x152;" horiz-adv-x="2234" 
d="M1450 616v-344h694v-272h-999v86h-53q-128 -113 -340 -113q-292 0 -473 205q-179 206 -179 553q0 345 179 551q183 207 473 207q209 0 340 -113h53v86h977v-272h-672v-307h500v-267h-500zM813 246q238 0 332 174v622q-44 80 -130.5 127.5t-201.5 47.5q-192 0 -297 -138
q-102 -135 -102 -348q0 -212 102 -350q105 -135 297 -135z" />
    <glyph glyph-name="oe" unicode="&#x153;" horiz-adv-x="2002" 
d="M1911 580v-86h-744q15 -283 246 -283q151 0 197 111h291q-33 -167 -157.5 -258t-330.5 -91q-219 0 -362 158h-54q-137 -158 -368 -158q-241 0 -389 154t-148 399q0 246 148 400q147 153 389 153q236 0 375 -161h53q130 161 366 161q221 0 353 -141q135 -138 135 -358z
M883 526q0 140 -65.5 227t-186.5 87q-120 0 -186 -87t-66 -227q0 -141 65.5 -228t186.5 -87t186.5 87t65.5 228zM1409 864q-189 0 -229 -180h436q-11 86 -63.5 133t-143.5 47z" />
    <glyph glyph-name="Racute" unicode="&#x154;" horiz-adv-x="1476" 
d="M170 1462h688q242 0 378 -120t136 -334q0 -278 -217 -392l219 -616h-307l-197 551h-395v-551h-305v1462zM784 1194h-309v-383h340q246 0 246 193q0 103 -64 146.5t-213 43.5zM743 1835h314l-240 -264h-260z" />
    <glyph glyph-name="racute" unicode="&#x155;" horiz-adv-x="917" 
d="M764 1053h98v-267h-102q-322 0 -322 -325v-461h-286v1053h276v-119h53q82 119 283 119zM487 1489h304l-240 -297h-252z" />
    <glyph glyph-name="uni0156" unicode="&#x156;" horiz-adv-x="1476" 
d="M170 1462h688q242 0 378 -120t136 -334q0 -278 -217 -392l219 -616h-307l-197 551h-395v-551h-305v1462zM784 1194h-309v-383h340q246 0 246 193q0 103 -64 146.5t-213 43.5zM897 -348l-139 -127h-168l141 127v43h-121v194h287v-237z" />
    <glyph glyph-name="uni0157" unicode="&#x157;" horiz-adv-x="917" 
d="M764 1053h98v-267h-102q-322 0 -322 -325v-461h-286v1053h276v-119h53q82 119 283 119zM438 -348l-139 -127h-168l141 127v43h-120v194h286v-237z" />
    <glyph glyph-name="Rcaron" unicode="&#x158;" horiz-adv-x="1476" 
d="M170 1462h688q242 0 378 -120t136 -334q0 -278 -217 -392l219 -616h-307l-197 551h-395v-551h-305v1462zM784 1194h-309v-383h340q246 0 246 193q0 103 -64 146.5t-213 43.5zM844 1571h-248l-223 264h227l94 -113h54l96 113h223z" />
    <glyph glyph-name="rcaron" unicode="&#x159;" horiz-adv-x="917" 
d="M764 1053h98v-267h-102q-322 0 -322 -325v-461h-286v1053h276v-119h53q82 119 283 119zM625 1192h-244l-225 297h217l104 -135h53l105 135h215z" />
    <glyph glyph-name="Sacute" unicode="&#x15a;" horiz-adv-x="1413" 
d="M1268 1061h-312q-37 166 -266 166q-108 0 -173.5 -43t-65.5 -123q0 -115 182 -150l272 -49q398 -71 398 -428q0 -195 -154 -328q-151 -133 -434 -133q-273 0 -437.5 126t-187.5 347h311q34 -210 326 -210q123 0 195.5 49t72.5 135q0 148 -198 182l-279 49
q-183 32 -279 134t-96 266q0 186 148 313q146 125 403 125q240 0 396 -117q157 -115 178 -311zM719 1835h313l-239 -264h-261z" />
    <glyph glyph-name="sacute" unicode="&#x15b;" horiz-adv-x="1118" 
d="M1008 764h-285q-15 94 -170 94q-154 0 -154 -90q0 -40 25 -57.5t88 -28.5l190 -29q336 -53 336 -338q0 -139 -123 -241q-122 -101 -344 -101q-227 0 -352 94t-143 265h284q21 -137 209 -137q183 0 183 114q0 51 -35 77t-117 40l-205 33q-282 49 -282 291q0 150 116 239.5
t332 89.5q190 0 310 -85.5t137 -229.5zM592 1489h303l-240 -297h-252z" />
    <glyph glyph-name="Scedilla" unicode="&#x15e;" horiz-adv-x="1413" 
d="M1268 1061h-312q-37 166 -266 166q-108 0 -173.5 -43t-65.5 -123q0 -115 182 -150l272 -49q398 -71 398 -428q0 -195 -154 -328q-151 -133 -434 -133h-17l-34 -92h28q27 21 80 21q68 0 113 -49t45 -127q0 -84 -60.5 -139.5t-171.5 -55.5q-95 0 -152.5 47.5t-62.5 118.5
h148q12 -51 71 -51q45 -5 64 33t0 76t-64 32q-38 0 -63 -25h-127l84 220q-222 26 -354.5 148.5t-151.5 315.5h311q34 -210 326 -210q123 0 195.5 49t72.5 135q0 148 -198 182l-279 49q-183 32 -279 134t-96 266q0 186 148 313q146 125 403 125q240 0 396 -117
q157 -115 178 -311z" />
    <glyph glyph-name="scedilla" unicode="&#x15f;" horiz-adv-x="1118" 
d="M1008 764h-285q-15 94 -170 94q-154 0 -154 -90q0 -40 25 -57.5t88 -28.5l190 -29q336 -53 336 -338q0 -139 -123 -241q-122 -101 -344 -101h-20l-35 -92h29q27 21 80 21q68 0 112.5 -48.5t44.5 -127.5q0 -84 -60 -139.5t-171 -55.5q-95 0 -152.5 47.5t-62.5 118.5h147
q12 -51 72 -51q45 -5 64 33t0 76t-64 32q-38 0 -63 -25h-127l84 220q-346 49 -373 350h284q21 -137 209 -137q183 0 183 114q0 51 -35 77t-117 40l-205 33q-282 49 -282 291q0 150 116 239.5t332 89.5q190 0 310 -85.5t137 -229.5z" />
    <glyph glyph-name="Scaron" unicode="&#x160;" horiz-adv-x="1413" 
d="M1268 1061h-312q-37 166 -266 166q-108 0 -173.5 -43t-65.5 -123q0 -115 182 -150l272 -49q398 -71 398 -428q0 -195 -154 -328q-151 -133 -434 -133q-273 0 -437.5 126t-187.5 347h311q34 -210 326 -210q123 0 195.5 49t72.5 135q0 148 -198 182l-279 49
q-183 32 -279 134t-96 266q0 186 148 313q146 125 403 125q240 0 396 -117q157 -115 178 -311zM823 1571h-248l-223 264h228l94 -113h53l96 113h224z" />
    <glyph glyph-name="scaron" unicode="&#x161;" horiz-adv-x="1118" 
d="M1008 764h-285q-15 94 -170 94q-154 0 -154 -90q0 -40 25 -57.5t88 -28.5l190 -29q336 -53 336 -338q0 -139 -123 -241q-122 -101 -344 -101q-227 0 -352 94t-143 265h284q21 -137 209 -137q183 0 183 114q0 51 -35 77t-117 40l-205 33q-282 49 -282 291q0 150 116 239.5
t332 89.5q190 0 310 -85.5t137 -229.5zM686 1192h-244l-225 297h217l105 -135h53l104 135h215z" />
    <glyph glyph-name="uni0162" unicode="&#x162;" horiz-adv-x="1280" 
d="M33 1462h1214v-268h-454v-1194h-306v1194h-454v268zM782 -348l-139 -127h-168l141 127v43h-120v194h286v-237z" />
    <glyph glyph-name="uni0163" unicode="&#x163;" horiz-adv-x="829" 
d="M489 1348v-295h232v-240h-232v-453q0 -116 136 -116h96v-244h-100q-207 0 -312.5 76t-105.5 250v487h-154v240h154v295h286zM612 -348l-139 -127h-168l141 127v43h-120v194h286v-237z" />
    <glyph glyph-name="Tcaron" unicode="&#x164;" horiz-adv-x="1280" 
d="M33 1462h1214v-268h-454v-1194h-306v1194h-454v268zM764 1571h-248l-223 264h227l94 -113h54l96 113h223z" />
    <glyph glyph-name="tcaron" unicode="&#x165;" horiz-adv-x="907" 
d="M809 1319v51h-139v248h301v-299l-156 -168h-162zM489 1348v-295h232v-240h-232v-453q0 -116 136 -116h96v-244h-100q-207 0 -312.5 76t-105.5 250v487h-154v240h154v295h286z" />
    <glyph glyph-name="Tbar" unicode="&#x166;" horiz-adv-x="1280" 
d="M33 1462h1214v-268h-454v-336h297v-233h-297v-625h-306v625h-299v233h299v336h-454v268z" />
    <glyph glyph-name="tbar" unicode="&#x167;" horiz-adv-x="823" 
d="M489 1348v-295h232v-213h-232v-160h232v-213h-232v-107q0 -116 136 -116h96v-244h-100q-207 0 -312.5 76t-105.5 250v141h-154v213h154v160h-154v213h154v295h286z" />
    <glyph glyph-name="Utilde" unicode="&#x168;" horiz-adv-x="1556" 
d="M991 1835h131q0 -125 -54.5 -195.5t-156.5 -70.5q-69 0 -155 47q-82 49 -125 49q-34 0 -48 -22.5t-16 -71.5h-129q0 126 53.5 196t155.5 70q70 0 156 -47t129 -47q56 0 59 92zM1085 545v917h306v-923q0 -270 -160.5 -418t-454.5 -148q-293 0 -451.5 147.5t-158.5 418.5
v923h305v-917q0 -138 81 -218.5t226 -80.5q146 0 226.5 80.5t80.5 218.5z" />
    <glyph glyph-name="utilde" unicode="&#x169;" horiz-adv-x="1300" 
d="M137 406v647h287v-596q0 -111 53 -170.5t152 -59.5q102 0 167.5 77.5t65.5 189.5v559h287v-1053h-277v96h-53q-95 -123 -293 -123q-190 0 -289.5 113.5t-99.5 319.5zM856 1483h129q0 -135 -54 -211t-155 -76q-72 0 -155 57q-85 60 -121 60q-68 0 -68 -117h-129
q0 135 54 211t155 76q68 0 156 -60q83 -57 123 -57q65 0 65 117z" />
    <glyph glyph-name="Umacron" unicode="&#x16a;" horiz-adv-x="1556" 
d="M1085 545v917h306v-923q0 -270 -160.5 -418t-454.5 -148q-293 0 -451.5 147.5t-158.5 418.5v923h305v-917q0 -138 81 -218.5t226 -80.5q146 0 226.5 80.5t80.5 218.5zM1087 1796v-168h-618v168h618z" />
    <glyph glyph-name="umacron" unicode="&#x16b;" horiz-adv-x="1300" 
d="M139 406v647h287v-596q0 -111 53 -170.5t152 -59.5q102 0 167.5 77.5t65.5 189.5v559h287v-1053h-277v96h-53q-95 -123 -293 -123q-190 0 -289.5 113.5t-99.5 319.5zM952 1442v-174h-618v174h618z" />
    <glyph glyph-name="Uring" unicode="&#x16e;" horiz-adv-x="1556" 
d="M776 2003q100 0 170 -70q72 -69 72 -166q0 -96 -72 -168q-70 -67 -170 -67t-170 67q-71 71 -71 168q0 98 71 166q70 70 170 70zM776 1663q43 0 74 30.5t31 73.5t-31 74t-74 31q-41 0 -71.5 -31t-30.5 -74t30.5 -73.5t71.5 -30.5zM1085 545v917h306v-923
q0 -270 -160.5 -418t-454.5 -148q-293 0 -451.5 147.5t-158.5 418.5v923h305v-917q0 -138 81 -218.5t226 -80.5q146 0 226.5 80.5t80.5 218.5z" />
    <glyph glyph-name="uring" unicode="&#x16f;" horiz-adv-x="1300" 
d="M139 406v647h287v-596q0 -111 53 -170.5t152 -59.5q102 0 167.5 77.5t65.5 189.5v559h287v-1053h-277v96h-53q-95 -123 -293 -123q-190 0 -289.5 113.5t-99.5 319.5zM643 1640q101 0 170 -69q72 -69 72 -166q0 -96 -72 -168q-71 -68 -170 -68t-170 68q-72 72 -72 168
q0 97 72 166q69 69 170 69zM643 1303q43 0 74 30t31 72q0 43 -31 73.5t-74 30.5q-41 0 -71.5 -30.5t-30.5 -73.5q0 -42 30 -72t72 -30z" />
    <glyph glyph-name="Uhungarumlaut" unicode="&#x170;" horiz-adv-x="1556" 
d="M1085 545v917h306v-923q0 -270 -160.5 -418t-454.5 -148q-293 0 -451.5 147.5t-158.5 418.5v923h305v-917q0 -138 81 -218.5t226 -80.5q146 0 226.5 80.5t80.5 218.5zM627 1835h276l-207 -264h-227zM1006 1835h274l-209 -264h-225z" />
    <glyph glyph-name="uhungarumlaut" unicode="&#x171;" horiz-adv-x="1300" 
d="M139 406v647h287v-596q0 -111 53 -170.5t152 -59.5q102 0 167.5 77.5t65.5 189.5v559h287v-1053h-277v96h-53q-95 -123 -293 -123q-190 0 -289.5 113.5t-99.5 319.5zM453 1489h274l-199 -297h-227zM829 1489h275l-201 -297h-225z" />
    <glyph glyph-name="Uogonek" unicode="&#x172;" horiz-adv-x="1556" 
d="M1085 545v917h306v-923q0 -388 -314 -514q-107 -42 -150.5 -82.5t-43.5 -92.5q0 -42 32 -67t91 -25v-168h-62q-135 0 -204.5 53t-69.5 144q0 116 104 186q-293 1 -450.5 148.5t-157.5 417.5v923h305v-917q0 -138 81 -218.5t226 -80.5q146 0 226.5 80.5t80.5 218.5z" />
    <glyph glyph-name="uogonek" unicode="&#x173;" horiz-adv-x="1300" 
d="M139 406v647h287v-596q0 -111 53 -170.5t152 -59.5q102 0 167.5 77.5t65.5 189.5v559h287v-1053q-119 -64 -119 -150q0 -42 32 -67t91 -25v-168h-61q-135 0 -205 53t-70 144q0 65 40.5 123.5t113.5 89.5h-99v96h-53q-95 -123 -293 -123q-190 0 -289.5 113.5t-99.5 319.5z
" />
    <glyph glyph-name="Ydieresis" unicode="&#x178;" horiz-adv-x="1390" 
d="M352 1462l314 -583h57l313 583h324l-512 -942v-520h-307v520l-510 942h321zM1016 1835v-233h-240v233h240zM614 1835v-233h-241v233h241z" />
    <glyph glyph-name="Zacute" unicode="&#x179;" horiz-adv-x="1363" 
d="M145 1462h1096v-329l-762 -803v-58h795v-272h-1184v330l766 803v57h-711v272zM715 1835h313l-240 -264h-260z" />
    <glyph glyph-name="zacute" unicode="&#x17a;" horiz-adv-x="1134" 
d="M1032 238v-238h-930v291l527 469v53h-494v240h881v-293l-527 -469v-53h543zM584 1489h303l-240 -297h-252z" />
    <glyph glyph-name="Zdotaccent" unicode="&#x17b;" horiz-adv-x="1363" 
d="M145 1462h1096v-329l-762 -803v-58h795v-272h-1184v330l766 803v57h-711v272zM827 1835v-233h-290v233h290z" />
    <glyph glyph-name="zdotaccent" unicode="&#x17c;" horiz-adv-x="1134" 
d="M1032 238v-238h-930v291l527 469v53h-494v240h881v-293l-527 -469v-53h543zM709 1489v-256h-291v256h291z" />
    <glyph glyph-name="Zcaron" unicode="&#x17d;" horiz-adv-x="1363" 
d="M145 1462h1096v-329l-762 -803v-58h795v-272h-1184v330l766 803v57h-711v272zM807 1571h-248l-223 264h227l94 -113h54l96 113h223z" />
    <glyph glyph-name="zcaron" unicode="&#x17e;" horiz-adv-x="1134" 
d="M1032 238v-238h-930v291l527 469v53h-494v240h881v-293l-527 -469v-53h543zM705 1192h-244l-225 297h217l104 -135h53l105 135h215z" />
    <glyph glyph-name="florin" unicode="&#x192;" horiz-adv-x="942" 
d="M557 674l-190 -1084h-285l188 1084h-182v239h225l25 142q41 231 157 332.5t326 101.5h101v-240h-86q-96 0 -145 -52.5t-73 -172.5l-20 -111h217v-239h-258z" />
    <glyph glyph-name="circumflex" unicode="&#x2c6;" horiz-adv-x="858" 
d="M307 1489h244l225 -297h-217l-106 135h-54l-104 -135h-213z" />
    <glyph glyph-name="caron" unicode="&#x2c7;" horiz-adv-x="858" 
d="M551 1192h-244l-225 297h217l104 -135h54l104 135h215z" />
    <glyph glyph-name="breve" unicode="&#x2d8;" horiz-adv-x="755" 
d="M504 1489h170q0 -138 -77 -217.5t-218 -79.5t-219 79.5t-78 217.5h172q0 -139 125 -139q61 0 93 36t32 103z" />
    <glyph glyph-name="dotaccent" unicode="&#x2d9;" horiz-adv-x="454" 
d="M373 1489v-256h-291v256h291z" />
    <glyph glyph-name="ring" unicode="&#x2da;" horiz-adv-x="647" 
d="M324 1640q101 0 170 -69q71 -68 71 -166q0 -97 -71 -168q-71 -68 -170 -68t-170 68q-72 72 -72 168q0 97 72 166q69 69 170 69zM324 1303q43 0 73.5 29.5t30.5 72.5t-30.5 73.5t-73.5 30.5q-42 0 -72.5 -30.5t-30.5 -73.5q0 -42 30.5 -72t72.5 -30z" />
    <glyph glyph-name="ogonek" unicode="&#x2db;" horiz-adv-x="497" 
d="M279 18l122 -18q-118 -63 -118 -150q0 -42 32 -67t91 -25v-168h-62q-135 0 -204.5 53t-69.5 144q0 76 56 141.5t153 89.5z" />
    <glyph glyph-name="tilde" unicode="&#x2dc;" horiz-adv-x="845" 
d="M635 1483h129q0 -135 -54 -211t-155 -76q-73 0 -156 57q-85 60 -120 60q-68 0 -68 -117h-129q0 135 54 211t155 76q67 0 155 -60q83 -57 123 -57q66 0 66 117z" />
    <glyph glyph-name="hungarumlaut" unicode="&#x2dd;" horiz-adv-x="966" 
d="M233 1489h275l-199 -297h-227zM610 1489h275l-201 -297h-225z" />
    <glyph glyph-name="uni03A9" unicode="&#x3a9;" horiz-adv-x="1581" 
d="M1241 293v-53h236v-240h-603v250q291 198 291 524q0 205 -102.5 324t-271.5 119q-172 0 -274.5 -119t-102.5 -324q0 -329 288 -524v-250h-600v240h236v53q-238 194 -238 510q0 299 185 493q187 193 506 193q317 0 501 -193q185 -194 185 -493q0 -323 -236 -510z" />
    <glyph glyph-name="pi" unicode="&#x3c0;" horiz-adv-x="1323" 
d="M1231 238v-238h-115q-189 0 -271.5 83t-82.5 273v457h-268v-813h-287v813h-158v240h1180v-240h-180v-442q0 -70 25 -101.5t85 -31.5h72z" />
    <glyph glyph-name="uni0401" unicode="&#x401;" horiz-adv-x="1363" 
d="M475 616v-344h799v-272h-1104v1462h1081v-272h-776v-307h604v-267h-604zM1028 1835v-233h-240v233h240zM627 1835v-233h-242v233h242z" />
    <glyph glyph-name="uni0402" unicode="&#x402;" horiz-adv-x="1697" 
d="M1599 432q0 -243 -139 -352q-137 -107 -364 -107q-88 0 -109 9v272q31 -8 78 -8q221 0 221 182q0 188 -295 188q-129 0 -260 -28v-588h-305v1194h-393v268h1202v-268h-504v-336q152 31 322 31q287 0 415 -131q131 -128 131 -326z" />
    <glyph glyph-name="uni0403" unicode="&#x403;" horiz-adv-x="1306" 
d="M1225 1462v-272h-750v-1190h-305v1462h1055zM702 1847h304l-240 -297h-252z" />
    <glyph glyph-name="uni0404" unicode="&#x404;" horiz-adv-x="1505" 
d="M1087 432h320q-27 -205 -195 -332q-165 -127 -415 -127q-327 0 -512 209t-185 549q0 342 183 549q185 209 512 209q240 0 397 -121q159 -120 199 -317h-318q-26 78 -100 122t-182 44q-153 0 -247.5 -92.5t-115.5 -250.5h541v-266h-543q18 -167 114 -264.5t255 -97.5
q116 0 194 49.5t98 136.5z" />
    <glyph glyph-name="uni0405" unicode="&#x405;" horiz-adv-x="1413" 
d="M1268 1061h-312q-37 166 -266 166q-108 0 -173.5 -43t-65.5 -123q0 -115 182 -150l272 -49q398 -71 398 -428q0 -195 -154 -328q-151 -133 -434 -133q-273 0 -437.5 126t-187.5 347h311q34 -210 326 -210q123 0 195.5 49t72.5 135q0 148 -198 182l-279 49
q-183 32 -279 134t-96 266q0 186 148 313q146 125 403 125q240 0 396 -117q157 -115 178 -311z" />
    <glyph glyph-name="uni0406" unicode="&#x406;" horiz-adv-x="663" 
d="M180 0v1462h305v-1462h-305z" />
    <glyph glyph-name="uni0407" unicode="&#x407;" horiz-adv-x="665" 
d="M653 1835v-233h-239v233h239zM252 1835v-233h-242v233h242zM180 0v1462h305v-1462h-305z" />
    <glyph glyph-name="uni0408" unicode="&#x408;" horiz-adv-x="1236" 
d="M573 -27q-225 0 -366 129q-139 130 -148 363h303q15 -219 209 -219q94 0 144.5 63.5t50.5 184.5v968h305v-970q0 -244 -132 -381.5t-366 -137.5z" />
    <glyph glyph-name="uni0409" unicode="&#x409;" horiz-adv-x="2355" 
d="M1382 268h285q146 0 212.5 52.5t66.5 162.5q0 108 -67 161.5t-212 53.5h-285v-430zM324 815v647h1058v-495h332q256 0 399.5 -128t143.5 -354q0 -228 -143.5 -356.5t-399.5 -128.5h-639v1190h-463v-395q0 -376 -80 -574q-61 -128 -162 -174.5t-274 -46.5h-53v299h51
q88 0 133 31q97 67 97 485z" />
    <glyph glyph-name="uni040A" unicode="&#x40a;" horiz-adv-x="2379" 
d="M1741 0h-639v612h-627v-612h-305v1462h305v-569h627v569h305v-495h334q256 0 398 -127.5t142 -354.5q0 -228 -142 -356.5t-398 -128.5zM1407 268h285q147 0 212.5 52.5t65.5 162.5q0 108 -66 161.5t-212 53.5h-285v-430z" />
    <glyph glyph-name="uni040B" unicode="&#x40b;" horiz-adv-x="1703" 
d="M1593 422v-422h-305v373v21.5v19.5t-0.5 16t-1 16t-2 14t-3.5 15.5t-5.5 15t-7.5 17.5q-22 54 -86 79t-199 29q-135 0 -252 -32v-584h-305v1194h-393v268h1202v-268h-504v-340q152 35 326 35q140 0 246 -27t165 -69q58 -42 84 -111q32 -76 35 -123q6 -52 6 -137z" />
    <glyph glyph-name="uni040C" unicode="&#x40c;" horiz-adv-x="1507" 
d="M475 0h-305v1462h305v-571h346l269 571h315l-328 -710l346 -752h-315l-285 614h-348v-614zM797 1835h313l-240 -264h-260z" />
    <glyph glyph-name="uni040E" unicode="&#x40e;" horiz-adv-x="1396" 
d="M342 1462l342 -655h57l310 655h309l-701 -1462h-305l209 438l-540 1024h319zM864 1851h226q-12 -148 -114.5 -231.5t-273.5 -83.5t-273 83.5t-114 231.5h226q6 -57 48.5 -92t112.5 -35t112 34.5t50 92.5z" />
    <glyph glyph-name="uni040F" unicode="&#x40f;" horiz-adv-x="1572" 
d="M940 -358h-305v358h-465v1462h305v-1190h625v1190h305v-1462h-465v-358z" />
    <glyph glyph-name="uni0410" unicode="&#x410;" horiz-adv-x="1478" 
d="M1442 0h-309l-119 395h-557l-119 -395h-301l465 1462h473zM778 1169h-90l-153 -507h397z" />
    <glyph glyph-name="uni0411" unicode="&#x411;" horiz-adv-x="1468" 
d="M475 911h385q241 0 375.5 -120t134.5 -334t-134.5 -335.5t-375.5 -121.5h-690v1462h1071v-272h-766v-279zM475 268h328q135 0 194.5 46.5t59.5 146.5q0 98 -60.5 146t-193.5 48h-328v-387z" />
    <glyph glyph-name="uni0412" unicode="&#x412;" horiz-adv-x="1482" 
d="M1188 786v-53q82 -36 136 -121.5t54 -187.5q0 -197 -129.5 -310.5t-374.5 -113.5h-704v1462h686q231 0 356 -110t125 -277q0 -98 -40 -175t-109 -114zM475 883h344q205 0 205 164q0 161 -207 161h-342v-325zM475 260h354q236 0 236 180q0 187 -231 187h-359v-367z" />
    <glyph glyph-name="uni0413" unicode="&#x413;" horiz-adv-x="1306" 
d="M1225 1462v-272h-750v-1190h-305v1462h1055z" />
    <glyph glyph-name="uni0414" unicode="&#x414;" horiz-adv-x="1636" 
d="M1378 1462v-1190h209v-630h-297v358h-960v-358h-297v630h151q174 308 174 869v321h1020zM494 272h587v918h-440v-129q0 -513 -147 -789z" />
    <glyph glyph-name="uni0415" unicode="&#x415;" horiz-adv-x="1363" 
d="M475 616v-344h799v-272h-1104v1462h1081v-272h-776v-307h604v-267h-604z" />
    <glyph glyph-name="uni0416" unicode="&#x416;" horiz-adv-x="2205" 
d="M1802 0l-248 604h-303v-604h-297v604h-303l-248 -604h-311l309 741l-290 721h311l229 -581h303v581h297v-581h303l230 581h311l-291 -721l310 -741h-312z" />
    <glyph glyph-name="uni0417" unicode="&#x417;" horiz-adv-x="1425" 
d="M954 1051q0 78 -66 122t-171 44q-232 0 -266 -168h-316q20 206 176.5 323t409.5 117q256 0 399 -113q148 -112 148 -289q0 -204 -148 -284v-53q201 -74 201 -326q0 -196 -162 -324q-160 -127 -436 -127q-292 0 -454 121.5t-189 349.5h321q52 -198 322 -198q128 0 203 51
t75 139q0 182 -256 182h-215v267h215q209 0 209 166z" />
    <glyph glyph-name="uni0418" unicode="&#x418;" horiz-adv-x="1613" 
d="M170 0v1462h285v-1020h53l526 1020h412v-1462h-287v1042h-53l-539 -1042h-397z" />
    <glyph glyph-name="uni0419" unicode="&#x419;" horiz-adv-x="1613" 
d="M170 0v1462h285v-1020h53l526 1020h412v-1462h-287v1042h-53l-539 -1042h-397zM969 1851h225q-12 -148 -114 -231.5t-273 -83.5t-273 83.5t-114 231.5h225q6 -57 49 -92t113 -35t112 34.5t50 92.5z" />
    <glyph glyph-name="uni041A" unicode="&#x41a;" horiz-adv-x="1466" 
d="M475 0h-305v1462h305v-571h346l269 571h315l-328 -710l346 -752h-315l-285 614h-348v-614z" />
    <glyph glyph-name="uni041B" unicode="&#x41b;" horiz-adv-x="1562" 
d="M43 0v299h51q88 0 133 31q97 67 97 485v647h1071v-1462h-308v1190h-475v-395q0 -376 -80 -574q-61 -128 -162 -174.5t-274 -46.5h-53z" />
    <glyph glyph-name="uni041C" unicode="&#x41c;" horiz-adv-x="1808" 
d="M455 0h-285v1462h469l240 -590h53l237 590h471v-1462h-284v1090h-53l-246 -590h-305l-244 590h-53v-1090z" />
    <glyph glyph-name="uni041D" unicode="&#x41d;" horiz-adv-x="1595" 
d="M1122 893v569h305v-1462h-305v612h-647v-612h-305v1462h305v-569h647z" />
    <glyph glyph-name="uni041E" unicode="&#x41e;" horiz-adv-x="1626" 
d="M287 1276q189 213 526 213q335 0 524 -213t189 -545q0 -334 -189 -547q-187 -211 -524 -211q-339 0 -526 211t-187 547q0 334 187 545zM514 381q102 -135 299 -135q195 0 297 135t102 350t-102 350q-103 136 -297 136q-196 0 -299 -136q-100 -132 -100 -350t100 -350z
" />
    <glyph glyph-name="uni041F" unicode="&#x41f;" horiz-adv-x="1579" 
d="M170 0v1462h1241v-1462h-305v1190h-631v-1190h-305z" />
    <glyph glyph-name="uni0420" unicode="&#x420;" horiz-adv-x="1464" 
d="M170 1462h668q250 0 389 -122.5t139 -342.5q0 -222 -139 -347.5t-389 -125.5h-363v-524h-305v1462zM475 793h320q258 0 258 200q0 101 -62 151t-196 50h-320v-401z" />
    <glyph glyph-name="uni0421" unicode="&#x421;" horiz-adv-x="1509" 
d="M1094 467h317q-34 -224 -197 -358q-165 -136 -413 -136q-327 0 -516 207q-185 209 -185 551q0 344 187 549q188 209 514 209q242 0 397 -125q159 -123 199 -328h-320q-52 181 -276 181q-186 0 -289 -136q-98 -134 -98 -350q0 -213 98 -350q102 -135 289 -135
q118 0 194 58t99 163z" />
    <glyph glyph-name="uni0422" unicode="&#x422;" horiz-adv-x="1280" 
d="M33 1462h1214v-268h-454v-1194h-306v1194h-454v268z" />
    <glyph glyph-name="uni0423" unicode="&#x423;" horiz-adv-x="1396" 
d="M342 1462l342 -655h57l310 655h309l-701 -1462h-305l209 438l-540 1024h319z" />
    <glyph glyph-name="uni0424" unicode="&#x424;" horiz-adv-x="1837" 
d="M1063 1509v-172h20q301 0 484 -151q182 -150 182 -434q0 -288 -180 -437t-486 -149h-20v-193h-291v193h-18q-314 0 -491 151t-177 435q0 285 180 434q183 151 488 151h18v172h291zM754 426h18v651h-18q-174 0 -268.5 -81t-94.5 -244q0 -159 95 -242.5t268 -83.5z
M1063 1077v-651h20q170 0 265.5 83.5t95.5 242.5q0 163 -93.5 244t-267.5 81h-20z" />
    <glyph glyph-name="uni0425" unicode="&#x425;" horiz-adv-x="1421" 
d="M1382 0h-335l-306 602h-63l-311 -602h-328l403 768l-348 694h314l272 -536h63l281 536h309l-354 -686z" />
    <glyph glyph-name="uni0426" unicode="&#x426;" horiz-adv-x="1660" 
d="M1612 -358h-297v358h-1145v1462h305v-1190h623v1190h305v-1190h209v-630z" />
    <glyph glyph-name="uni0427" unicode="&#x427;" horiz-adv-x="1443" 
d="M109 997v465h305v-418v-21.5v-19.5t0.5 -16t1 -15.5t2 -13.5t3.5 -15.5t5.5 -15t7.5 -18.5q49 -106 285 -106q131 0 252 33v626h305v-1462h-305v565q-152 -35 -326 -35q-140 0 -246.5 27.5t-167.5 69.5q-57 44 -84 108q-19 44 -27.5 87t-9.5 73t-1 102z" />
    <glyph glyph-name="uni0428" unicode="&#x428;" horiz-adv-x="2154" 
d="M467 272h463v1190h297v-1190h463v1190h297v-1462h-1817v1462h297v-1190z" />
    <glyph glyph-name="uni0429" unicode="&#x429;" horiz-adv-x="2244" 
d="M2195 -358h-297v358h-1728v1462h297v-1190h463v1190h297v-1190h463v1190h297v-1190h208v-630z" />
    <glyph glyph-name="uni042A" unicode="&#x42a;" horiz-adv-x="1685" 
d="M1044 0h-657v1190h-373v272h678v-495h352q256 0 399.5 -128t143.5 -354q0 -228 -143 -356.5t-400 -128.5zM692 268h305q146 0 211.5 52.5t65.5 162.5q0 108 -66 161.5t-211 53.5h-305v-430z" />
    <glyph glyph-name="uni042B" unicode="&#x42b;" horiz-adv-x="1957" 
d="M1485 0v1462h305v-1462h-305zM475 268h258q146 0 211.5 52.5t65.5 162.5q0 108 -66 161.5t-211 53.5h-258v-430zM780 0h-610v1462h305v-495h305q256 0 399.5 -128t143.5 -354q0 -228 -143.5 -356.5t-399.5 -128.5z" />
    <glyph glyph-name="uni042C" unicode="&#x42c;" horiz-adv-x="1468" 
d="M475 268h303q147 0 213 53t66 164q0 108 -66 160.5t-213 52.5h-303v-430zM829 0h-659v1462h305v-495h354q256 0 398.5 -128t142.5 -354q0 -228 -142.5 -356.5t-398.5 -128.5z" />
    <glyph glyph-name="uni042D" unicode="&#x42d;" horiz-adv-x="1486" 
d="M80 432h319q20 -87 98.5 -136.5t194.5 -49.5q159 0 255 97.5t114 264.5h-543v266h541q-21 158 -115.5 250.5t-247.5 92.5q-108 0 -182 -44t-100 -122h-318q40 196 197 317q160 121 399 121q328 0 510 -209q184 -205 184 -549q0 -341 -184 -549q-185 -209 -512 -209
q-250 0 -418 127q-165 127 -192 332z" />
    <glyph glyph-name="uni042E" unicode="&#x42e;" horiz-adv-x="2220" 
d="M1417 1489q330 0 516 -213q187 -211 187 -545q0 -336 -187 -547q-184 -211 -516 -211q-298 0 -481 177q-178 172 -213 462h-248v-612h-305v1462h305v-569h254q44 270 221 432q182 164 467 164zM1128 381q102 -135 289 -135t289 135q100 135 100 350q0 216 -100 348
q-102 138 -289 138t-289 -138q-100 -132 -100 -348q0 -215 100 -350z" />
    <glyph glyph-name="uni042F" unicode="&#x42f;" horiz-adv-x="1474" 
d="M618 1462h689v-1462h-306v551h-395l-196 -551h-308l220 616q-218 114 -218 392q0 214 136 334t378 120zM662 811h339v383h-309q-149 0 -212.5 -43.5t-63.5 -146.5q0 -193 246 -193z" />
    <glyph glyph-name="uni0430" unicode="&#x430;" horiz-adv-x="1200" 
d="M1063 0h-264v90h-54q-99 -117 -294 -117q-172 0 -273 101q-100 100 -100 250q0 142 106 245q108 105 322 105h280v26q0 164 -186 164q-166 0 -178 -112h-285q6 148 129 237q128 90 320 90q231 0 354 -98t123 -297v-684zM551 201q103 0 169 62t66 159v65h-225
q-196 0 -196 -141q0 -145 186 -145z" />
    <glyph glyph-name="uni0431" unicode="&#x431;" horiz-adv-x="1280" 
d="M686 1018q224 0 363 -148q139 -145 139 -374q0 -228 -152 -377q-152 -146 -393 -146q-264 0 -407.5 168t-143.5 482q0 680 416 745l270 43q63 11 84.5 26t22.5 52h231q-2 -125 -48.5 -196.5t-164.5 -90.5l-346 -55q-110 -17 -167.5 -80.5t-80.5 -192.5h53
q102 144 324 144zM899 504q0 128 -67.5 208.5t-190.5 80.5q-124 0 -192 -80.5t-68 -208.5q0 -129 68 -211t192 -82q123 0 190.5 81.5t67.5 211.5z" />
    <glyph glyph-name="uni0432" unicode="&#x432;" horiz-adv-x="1239" 
d="M965 584v-54q82 -21 130 -83t48 -156q0 -142 -96 -216.5t-277 -74.5h-618v1053h602q157 0 244 -71t87 -196q0 -69 -33.5 -122.5t-86.5 -79.5zM432 207h273q149 0 149 117q0 118 -149 118h-273v-235zM676 846h-244v-203h244q123 0 123 100q0 103 -123 103z" />
    <glyph glyph-name="uni0433" unicode="&#x433;" horiz-adv-x="1062" 
d="M438 0h-286v1053h852v-240h-566v-813z" />
    <glyph glyph-name="uni0434" unicode="&#x434;" horiz-adv-x="1419" 
d="M1174 1053v-815h186v-531h-270v293h-781v-293h-270v531h156q92 238 92 512v303h887zM467 238h420v575h-342v-65q0 -278 -78 -510z" />
    <glyph glyph-name="uni0435" unicode="&#x435;" horiz-adv-x="1222" 
d="M1130 580v-86h-753q12 -283 256 -283q153 0 196 111h291q-33 -164 -160 -256.5t-331 -92.5q-247 0 -393 152q-144 150 -144 405q0 253 144 400q143 149 387 149q232 0 368 -139t139 -360zM621 864q-188 0 -234 -180h451q-12 86 -68 133t-149 47z" />
    <glyph glyph-name="uni0436" unicode="&#x436;" horiz-adv-x="1775" 
d="M756 418h-203l-191 -418h-290l247 541l-231 512h287l178 -396h203v396h266v-396h201l178 396h289l-234 -512l250 -541h-293l-190 418h-201v-418h-266v418z" />
    <glyph glyph-name="uni0437" unicode="&#x437;" horiz-adv-x="1167" 
d="M752 743q0 103 -181 103q-172 0 -196 -115h-262q17 168 145 258t334 90q202 0 323 -84t121 -219q0 -152 -106 -201v-53q137 -46 137 -217q0 -145 -131 -239q-134 -93 -344 -93q-236 0 -366.5 92.5t-149.5 264.5h264q34 -123 238 -123q202 0 202 112q0 56 -39.5 80.5
t-130.5 24.5h-172v219h162q152 0 152 100z" />
    <glyph glyph-name="uni0438" unicode="&#x438;" horiz-adv-x="1320" 
d="M842 592l-412 -592h-278v1053h278v-594h49l408 594h282v-1053h-278v592h-49z" />
    <glyph glyph-name="uni0439" unicode="&#x439;" horiz-adv-x="1320" 
d="M842 592l-412 -592h-278v1053h278v-594h49l408 594h282v-1053h-278v592h-49zM811 1470h221q-12 -147 -108 -227t-265 -80q-167 0 -262.5 80t-107.5 227h221q6 -57 44 -90.5t105 -33.5q137 0 152 124z" />
    <glyph glyph-name="uni043A" unicode="&#x43a;" horiz-adv-x="1251" 
d="M1182 0h-301l-213 420h-230v-420h-286v1053h286v-394h234l200 394h293l-258 -508z" />
    <glyph glyph-name="uni043B" unicode="&#x43b;" horiz-adv-x="1325" 
d="M82 0h-37v274h37q104 0 148 74t44 262v443h900v-1053h-287v813h-348v-213q0 -326 -109 -465q-108 -135 -348 -135z" />
    <glyph glyph-name="uni043C" unicode="&#x43c;" horiz-adv-x="1542" 
d="M430 0h-278v1053h380l213 -443h54l213 443h379v-1053h-279v672h-53l-168 -340h-240l-168 340h-53v-672z" />
    <glyph glyph-name="uni043D" unicode="&#x43d;" 
d="M1163 1053v-1053h-286v420h-439v-420h-286v1053h286v-394h439v394h286z" />
    <glyph glyph-name="uni043E" unicode="&#x43e;" horiz-adv-x="1273" 
d="M240 926q150 153 397 153t395 -151q150 -150 150 -402q0 -251 -150 -401q-149 -152 -395 -152q-245 0 -397 152q-148 154 -148 401q0 249 148 400zM637 211q125 0 191.5 86.5t66.5 228.5q0 140 -66.5 227t-191.5 87q-124 0 -191 -87t-67 -227q0 -141 67 -228t191 -87z
" />
    <glyph glyph-name="uni043F" unicode="&#x43f;" horiz-adv-x="1306" 
d="M1155 1053v-1053h-287v813h-430v-813h-286v1053h1003z" />
    <glyph glyph-name="uni0440" unicode="&#x440;" 
d="M684 840q-123 0 -189.5 -87t-66.5 -227t66.5 -227.5t189.5 -87.5q120 0 186 86t66 229t-66 228.5t-186 85.5zM152 -410v1463h276v-97h53q99 123 295 123q207 0 326 -155q121 -154 121 -398q0 -242 -121 -399q-121 -154 -326 -154q-192 0 -284 123h-54v-506h-286z" />
    <glyph glyph-name="uni0441" unicode="&#x441;" horiz-adv-x="1193" 
d="M821 354h283q-21 -170 -154 -276q-132 -105 -327 -105q-243 0 -387 150t-144 403q0 252 144 402q145 151 387 151q195 0 322.5 -98.5t150.5 -263.5h-285q-35 123 -186 123q-121 0 -183.5 -85t-62.5 -227q0 -145 62.5 -231t183.5 -86q169 0 196 143z" />
    <glyph glyph-name="uni0442" unicode="&#x442;" horiz-adv-x="1099" 
d="M408 813h-347v240h977v-240h-344v-813h-286v813z" />
    <glyph glyph-name="uni0443" unicode="&#x443;" horiz-adv-x="1216" 
d="M1182 1053l-635 -1463h-287l223 519l-446 944h299l262 -561h53l242 561h289z" />
    <glyph glyph-name="uni0444" unicode="&#x444;" horiz-adv-x="1601" 
d="M940 0v-410h-278v410h-19q-263 3 -405 145q-146 146 -146 381q0 233 144 377q144 147 397 150h29v436h278v-436h29q251 -3 395 -150q145 -148 145 -377q0 -238 -151 -383q-149 -143 -418 -143zM639 221h23v610h-21q-127 -1 -197.5 -85.5t-70.5 -219.5t69.5 -219.5
t196.5 -85.5zM940 831v-610h16q127 1 199 86t72 219t-72 219t-199 86h-16z" />
    <glyph glyph-name="uni0445" unicode="&#x445;" horiz-adv-x="1236" 
d="M1169 0h-309l-205 387h-75l-209 -387h-303l301 541l-271 512h297l189 -363h75l193 363h293l-275 -508z" />
    <glyph glyph-name="uni0446" unicode="&#x446;" horiz-adv-x="1392" 
d="M860 238v815h287v-815h186v-531h-270v293h-911v1053h286v-815h422z" />
    <glyph glyph-name="uni0447" unicode="&#x447;" horiz-adv-x="1202" 
d="M92 690v363h289v-308q0 -36 5.5 -59t23.5 -48.5t61 -38.5t109 -13q85 0 198 22v445h287v-1053h-287v377q-142 -29 -293 -29q-254 0 -331 109q-36 54 -49 105.5t-13 127.5z" />
    <glyph glyph-name="uni0448" unicode="&#x448;" horiz-adv-x="1761" 
d="M1333 238v815h277v-1053h-1458v1053h278v-815h313v815h277v-815h313z" />
    <glyph glyph-name="uni0449" unicode="&#x449;" horiz-adv-x="1855" 
d="M1333 238v815h277v-815h186v-531h-270v293h-1374v1053h278v-815h313v815h277v-815h313z" />
    <glyph glyph-name="uni044A" unicode="&#x44a;" horiz-adv-x="1378" 
d="M338 813h-303v240h590v-308h258q202 0 312 -97t110 -271q0 -178 -110.5 -277.5t-311.5 -99.5h-545v813zM625 238h215q95 0 136.5 35t41.5 106q0 74 -41 107.5t-137 33.5h-215v-282z" />
    <glyph glyph-name="uni044B" unicode="&#x44b;" horiz-adv-x="1693" 
d="M152 0v1053h286v-308h238q202 0 312 -97t110 -271q0 -178 -110.5 -277.5t-311.5 -99.5h-524zM635 520h-197v-282h197q94 0 135 35t41 106q0 73 -40.5 107t-135.5 34zM1255 0v1053h287v-1053h-287z" />
    <glyph glyph-name="uni044C" unicode="&#x44c;" horiz-adv-x="1191" 
d="M152 1053h286v-308h258q202 0 312 -97t110 -271q0 -178 -110.5 -277.5t-311.5 -99.5h-544v1053zM438 238h217q94 0 135 35t41 106q0 73 -40.5 107t-135.5 34h-217v-282z" />
    <glyph glyph-name="uni044D" unicode="&#x44d;" horiz-adv-x="1208" 
d="M92 336h268q38 -129 218 -129q107 0 171 58.5t76 158.5h-370v219h366q-14 94 -77.5 148.5t-165.5 54.5q-162 0 -203 -111h-269q29 156 158 250t320 94q241 0 385 -153q147 -153 147 -400q0 -248 -147 -401q-146 -152 -387 -152q-201 0 -332 101q-135 104 -158 262z" />
    <glyph glyph-name="uni044E" unicode="&#x44e;" horiz-adv-x="1783" 
d="M1153 1079q240 0 389 -155q150 -156 150 -398q0 -241 -150 -397t-389 -156q-211 0 -356 121q-142 124 -172 326h-193v-420h-280v1053h280v-394h199q38 192 176 306q141 114 346 114zM1151 211q121 0 187.5 87t66.5 228q0 140 -66.5 227t-187.5 87q-123 0 -189.5 -87
t-66.5 -227q0 -142 66 -228.5t190 -86.5z" />
    <glyph glyph-name="uni044F" unicode="&#x44f;" horiz-adv-x="1222" 
d="M539 1053h534v-1053h-287v352h-262l-135 -352h-283l160 414q-155 88 -155 286q0 165 112.5 259t315.5 94zM561 563h225v260h-225q-168 0 -168 -129q0 -68 39 -99.5t129 -31.5z" />
    <glyph glyph-name="uni0451" unicode="&#x451;" horiz-adv-x="1222" 
d="M1130 580v-86h-753q12 -283 256 -283q153 0 196 111h291q-33 -164 -160 -256.5t-331 -92.5q-247 0 -393 152q-144 150 -144 405q0 253 144 400q143 149 387 149q232 0 368 -139t139 -360zM621 864q-188 0 -234 -180h451q-12 86 -68 133t-149 47zM946 1464v-256h-239v256
h239zM545 1464v-256h-242v256h242z" />
    <glyph glyph-name="uni0452" unicode="&#x452;" horiz-adv-x="1331" 
d="M1210 557v-590q0 -201 -112.5 -289t-327.5 -88h-96v240h94q156 0 156 162v514q0 229 -203 229q-104 0 -170 -77t-66 -189v-469h-286v1145h-150v180h150v164h286v-164h371v-180h-371v-279h54q95 123 286 123q188 0 286.5 -113t98.5 -319z" />
    <glyph glyph-name="uni0453" unicode="&#x453;" horiz-adv-x="1062" 
d="M438 0h-286v1053h852v-240h-566v-813zM567 1489h303l-239 -297h-252z" />
    <glyph glyph-name="uni0454" unicode="&#x454;" horiz-adv-x="1206" 
d="M848 336h268q-23 -158 -158 -262q-131 -101 -331 -101q-240 0 -389 152q-146 155 -146 401q0 245 146 400q147 153 387 153q191 0 319.5 -94t157.5 -250h-268q-40 111 -203 111q-103 0 -166.5 -54.5t-77.5 -148.5h367v-219h-371q12 -100 76.5 -158.5t171.5 -58.5
q179 0 217 129z" />
    <glyph glyph-name="uni0455" unicode="&#x455;" horiz-adv-x="1118" 
d="M1008 764h-285q-15 94 -170 94q-154 0 -154 -90q0 -40 25 -57.5t88 -28.5l190 -29q336 -53 336 -338q0 -139 -123 -241q-122 -101 -344 -101q-227 0 -352 94t-143 265h284q21 -137 209 -137q183 0 183 114q0 51 -35 77t-117 40l-205 33q-282 49 -282 291q0 150 116 239.5
t332 89.5q190 0 310 -85.5t137 -229.5z" />
    <glyph glyph-name="uni0456" unicode="&#x456;" horiz-adv-x="593" 
d="M442 1489v-256h-290v256h290zM154 1053h286v-1053h-286v1053z" />
    <glyph glyph-name="uni0457" unicode="&#x457;" horiz-adv-x="593" 
d="M618 1489v-256h-239v256h239zM217 1489v-256h-242v256h242zM154 1053h286v-1053h-286v1053z" />
    <glyph glyph-name="uni0458" unicode="&#x458;" horiz-adv-x="616" 
d="M465 1489v-256h-291v256h291zM59 -410h-133v240h94q156 0 156 162v1061h287v-1086q0 -191 -106.5 -284t-297.5 -93z" />
    <glyph glyph-name="uni0459" unicode="&#x459;" horiz-adv-x="1908" 
d="M82 0h-37v274h37q104 0 148 74t44 262v443h889v-308h250q202 0 312 -97t110 -271q0 -178 -110.5 -277.5t-311.5 -99.5h-536v813h-338v-213q0 -326 -109 -465q-108 -135 -348 -135zM1163 238h207q95 0 136.5 35t41.5 106q0 76 -43.5 108.5t-154.5 32.5h-187v-282z" />
    <glyph glyph-name="uni045A" unicode="&#x45a;" horiz-adv-x="1890" 
d="M858 1053h287v-308h250q202 0 312 -97t110 -271q0 -178 -110.5 -277.5t-311.5 -99.5h-537v420h-420v-420h-286v1053h286v-394h420v394zM1145 238h207q95 0 136.5 35t41.5 106q0 76 -44 108.5t-153 32.5h-188v-282z" />
    <glyph glyph-name="uni045B" unicode="&#x45b;" horiz-adv-x="1347" 
d="M1210 557v-557h-286v506q0 229 -203 229q-104 0 -170 -77t-66 -189v-469h-286v1145h-150v180h150v164h286v-164h371v-180h-371v-279h54q95 123 286 123q188 0 286.5 -113t98.5 -319z" />
    <glyph glyph-name="uni045C" unicode="&#x45c;" horiz-adv-x="1243" 
d="M1182 0h-301l-213 420h-230v-420h-286v1053h286v-394h234l200 394h293l-258 -508zM676 1489h303l-240 -297h-252z" />
    <glyph glyph-name="uni045E" unicode="&#x45e;" horiz-adv-x="1216" 
d="M1182 1053l-635 -1463h-287l223 519l-446 944h299l262 -561h53l242 561h289zM758 1470h221q-12 -147 -108 -227t-265 -80q-167 0 -262.5 80t-107.5 227h221q6 -57 44 -90.5t105 -33.5q137 0 152 124z" />
    <glyph glyph-name="uni045F" unicode="&#x45f;" horiz-adv-x="1298" 
d="M860 238v815h287v-1053h-363v-293h-270v293h-362v1053h286v-815h422z" />
    <glyph glyph-name="uni0490" unicode="&#x490;" horiz-adv-x="1306" 
d="M1225 1190h-750v-1190h-305v1462h748v307h307v-579z" />
    <glyph glyph-name="uni0491" unicode="&#x491;" horiz-adv-x="1038" 
d="M711 1053v276h268v-516h-541v-813h-286v1053h559z" />
    <glyph glyph-name="uni0492" unicode="&#x492;" horiz-adv-x="1370" 
d="M233 608h-188v234h188v620h1055v-272h-749v-348h419v-234h-419v-608h-306v608z" />
    <glyph glyph-name="uni0493" unicode="&#x493;" horiz-adv-x="1087" 
d="M195 354h-154v205h154v494h833v-240h-547v-254h348v-205h-348v-354h-286v354z" />
    <glyph glyph-name="uni049A" unicode="&#x49a;" horiz-adv-x="1574" 
d="M475 0h-305v1462h305v-571h346l269 571h315l-328 -710l219 -480h230v-630h-297v358h-121l-285 614h-348v-614z" />
    <glyph glyph-name="uni049B" unicode="&#x49b;" horiz-adv-x="1316" 
d="M987 0h-106l-213 420h-230v-420h-286v1053h286v-394h234l200 394h293l-258 -508l154 -307h196v-531h-270v293z" />
    <glyph glyph-name="uni04A2" unicode="&#x4a2;" horiz-adv-x="1685" 
d="M1122 893v569h305v-1190h209v-630h-297v358h-217v612h-647v-612h-305v1462h305v-569h647z" />
    <glyph glyph-name="uni04A3" unicode="&#x4a3;" horiz-adv-x="1409" 
d="M877 1053h286v-815h187v-531h-271v293h-202v420h-439v-420h-286v1053h286v-394h439v394z" />
    <glyph glyph-name="uni04AE" unicode="&#x4ae;" horiz-adv-x="1390" 
d="M352 1462l314 -583h57l313 583h324l-512 -942v-520h-307v520l-510 942h321z" />
    <glyph glyph-name="uni04AF" unicode="&#x4af;" horiz-adv-x="1185" 
d="M446 -88h-106l-299 1141h293l217 -887h88l209 887h293l-303 -1141h-105v-322h-287v322z" />
    <glyph glyph-name="uni04B0" unicode="&#x4b0;" horiz-adv-x="1390" 
d="M352 1462l314 -583h57l313 583h324l-424 -778h281v-233h-369v-451h-307v451h-369v233h281l-422 778h321z" />
    <glyph glyph-name="uni04B1" unicode="&#x4b1;" horiz-adv-x="1210" 
d="M446 -176h-309v176h178l-274 1053h293l217 -887h88l209 887h293l-281 -1053h174v-176h-301v-234h-287v234z" />
    <glyph glyph-name="uni04BA" unicode="&#x4ba;" horiz-adv-x="1445" 
d="M1337 465v-465h-305v418v21.5v19t-0.5 15.5t-1 16t-2 14t-3.5 15t-5.5 14.5t-7.5 17.5q-22 54 -86 79t-199 29q-135 0 -252 -32v-627h-305v1462h305v-565q152 35 326 35q140 0 246 -27t165 -69q59 -43 84 -109q32 -76 35 -123q6 -52 6 -139z" />
    <glyph glyph-name="uni04BB" unicode="&#x4bb;" horiz-adv-x="1300" 
d="M1163 647v-647h-286v596q0 229 -205 229q-103 0 -168.5 -77t-65.5 -189v-559h-286v1489h286v-533h54q94 123 286 123q188 0 286.5 -113t98.5 -319z" />
    <glyph glyph-name="uni04D8" unicode="&#x4d8;" horiz-adv-x="1579" 
d="M774 242q170 0 269.5 99.5t111.5 270.5h-745q11 -171 104 -270.5t260 -99.5zM770 1489q338 0 522 -211q187 -208 187 -547q0 -334 -183 -547q-181 -211 -514 -211q-320 0 -503 213q-179 215 -179 596q0 14 4 80h1051q-19 165 -118.5 262t-262.5 97q-232 0 -291 -170h-317
q42 203 201 320.5t403 117.5z" />
    <glyph glyph-name="uni04D9" unicode="&#x4d9;" horiz-adv-x="1222" 
d="M602 -27q-245 0 -379 152q-131 152 -131 403q0 54 2 72h748q-12 117 -76.5 179.5t-173.5 62.5q-159 0 -199 -111h-291q31 164 160.5 256t331.5 92q246 0 391 -151t145 -406q0 -252 -143 -401q-145 -148 -385 -148zM604 188q225 0 240 222h-469q1 -104 62.5 -163
t166.5 -59z" />
    <glyph glyph-name="uni04E8" unicode="&#x4e8;" horiz-adv-x="1626" 
d="M287 1276q189 213 526 213q335 0 524 -213t189 -545q0 -334 -189 -547q-187 -211 -524 -211q-339 0 -526 211t-187 547q0 334 187 545zM1208 616h-790q19 -171 122 -270.5t273 -99.5t272 99.5t123 270.5zM420 866h786q-27 165 -127 258t-266 93q-168 0 -268 -92
t-125 -259z" />
    <glyph glyph-name="uni04E9" unicode="&#x4e9;" horiz-adv-x="1273" 
d="M240 926q150 153 397 153t395 -151q150 -150 150 -402q0 -251 -150 -401q-149 -152 -395 -152q-245 0 -397 152q-148 154 -148 401q0 249 148 400zM887 434h-500q18 -105 82 -164t168 -59t168 59t82 164zM389 625h496q-18 101 -81.5 158t-166.5 57q-102 0 -165.5 -56.5
t-82.5 -158.5z" />
    <glyph glyph-name="endash" unicode="&#x2013;" horiz-adv-x="1271" 
d="M1180 690v-221h-1090v221h1090z" />
    <glyph glyph-name="emdash" unicode="&#x2014;" horiz-adv-x="1800" 
d="M1708 690v-221h-1618v221h1618z" />
    <glyph glyph-name="quoteleft" unicode="&#x2018;" horiz-adv-x="600" 
d="M319 1223v-52h140v-311h-316v363l158 239h174z" />
    <glyph glyph-name="quoteright" unicode="&#x2019;" horiz-adv-x="600" 
d="M281 1100v51h-140v311h316v-362l-158 -240h-174z" />
    <glyph glyph-name="quotesinglbase" unicode="&#x201a;" horiz-adv-x="600" 
d="M281 -51v51h-140v311h316v-362l-158 -240h-174z" />
    <glyph glyph-name="quotedblleft" unicode="&#x201c;" horiz-adv-x="1054" 
d="M319 1223v-52h140v-311h-316v363l158 239h174zM774 1223v-52h139v-311h-315v363l158 239h174z" />
    <glyph glyph-name="quotedblright" unicode="&#x201d;" horiz-adv-x="1054" 
d="M281 1100v51h-140v311h316v-362l-158 -240h-174zM735 1100v51h-139v311h315v-362l-157 -240h-174z" />
    <glyph glyph-name="quotedblbase" unicode="&#x201e;" horiz-adv-x="1054" 
d="M281 -51v51h-140v311h316v-362l-158 -240h-174zM735 -51v51h-139v311h315v-362l-157 -240h-174z" />
    <glyph glyph-name="dagger" unicode="&#x2020;" horiz-adv-x="1124" 
d="M434 -311v1138h-356v240h356v395h258v-395h357v-240h-357v-1138h-258z" />
    <glyph glyph-name="daggerdbl" unicode="&#x2021;" horiz-adv-x="1124" 
d="M434 332v495h-356v240h356v395h258v-395h357v-240h-357v-495h357v-240h-357v-403h-258v403h-356v240h356z" />
    <glyph glyph-name="bullet" unicode="&#x2022;" horiz-adv-x="851" 
d="M213 516q-88 88 -88 213t88 213t213 88t213 -88t88 -213t-88 -213t-213 -88t-213 88z" />
    <glyph glyph-name="ellipsis" unicode="&#x2026;" horiz-adv-x="1732" 
d="M457 311v-311h-316v311h316zM1022 311v-311h-313v311h313zM1589 311v-311h-315v311h315z" />
    <glyph glyph-name="perthousand" unicode="&#x2030;" horiz-adv-x="2584" 
d="M1448 1434l-866 -1434h-209l868 1434h207zM426 1462q162 0 251 -105.5t89 -281.5t-89 -281.5t-251 -105.5q-161 0 -250.5 106t-89.5 281q0 174 89.5 280.5t250.5 106.5zM578 1075q0 101 -39.5 160t-112.5 59t-111.5 -59t-38.5 -160q0 -102 38.5 -160.5t111.5 -58.5
q74 0 113 58.5t39 160.5zM1395 748q161 0 250.5 -107t89.5 -281q0 -175 -89.5 -281t-250.5 -106q-162 0 -252 105.5t-90 281.5q0 175 90 281.5t252 106.5zM1546 360q0 101 -39 160.5t-112 59.5t-112.5 -59.5t-39.5 -160.5q0 -102 39 -160.5t113 -58.5t112.5 58.5t38.5 160.5
zM2499 360q0 -175 -90.5 -281t-251.5 -106t-250.5 106t-89.5 281q0 174 89.5 281t250.5 107t251.5 -107t90.5 -281zM2308 360q0 101 -39 160.5t-112 59.5t-112.5 -59.5t-39.5 -160.5q0 -102 39 -160.5t113 -58.5t112.5 58.5t38.5 160.5z" />
    <glyph glyph-name="guilsinglleft" unicode="&#x2039;" horiz-adv-x="827" 
d="M721 991l-350 -373v-53l350 -375h-309l-306 318v168l306 315h309z" />
    <glyph glyph-name="guilsinglright" unicode="&#x203a;" horiz-adv-x="827" 
d="M106 190l351 375v53l-351 373h310l305 -315v-168l-305 -318h-310z" />
    <glyph glyph-name="fraction" unicode="&#x2044;" horiz-adv-x="501" 
d="M788 1434l-866 -1434h-209l869 1434h206z" />
    <glyph glyph-name="Euro" unicode="&#x20ac;" horiz-adv-x="1437" 
d="M508 653h354l-47 -141h-291q46 -276 285 -276q103 0 166 56.5t76 162.5h288q-30 -223 -170.5 -352.5t-361.5 -129.5q-232 0 -382 140.5t-194 398.5h-184l47 141h123q-5 51 -2 125h-168l47 142h137q43 257 194 399.5t382 142.5q212 0 351 -119.5t171 -324.5h-293
q-35 182 -229 182q-230 0 -283 -280h430l-49 -142h-397q-3 -76 0 -125z" />
    <glyph glyph-name="uni20B4" unicode="&#x20b4;" horiz-adv-x="1415" 
d="M215 518h-149v141h1284v-141h-842q-12 -34 -12 -82q0 -98 64.5 -153.5t170.5 -55.5q199 0 242 166h299q-31 -201 -169 -310.5t-372 -109.5q-253 0 -391 129q-137 128 -137 322q0 56 12 94zM66 784v142h839q25 45 25 98q0 86 -55.5 135t-147.5 49q-184 0 -211 -153h-293
q18 184 156 295q136 112 350 112q229 0 361 -123q131 -122 131 -303q0 -58 -19 -110h148v-142h-1284z" />
    <glyph glyph-name="uni20B8" unicode="&#x20b8;" horiz-adv-x="1126" 
d="M416 1026h-383v141h1061v-141h-383v-1026h-295v1026zM1094 1292h-1061v142h1061v-142z" />
    <glyph glyph-name="uni20BD" unicode="&#x20bd;" horiz-adv-x="1447" 
d="M248 770v664h588q244 0 379 -119.5t135 -333.5q0 -216 -135 -337.5t-379 -121.5h-293v-125h372v-141h-372v-256h-295v256h-189v141h189v125h-189v248h189zM793 1186h-250v-416h250q264 0 264 211q0 205 -264 205z" />
    <glyph glyph-name="uni2116" unicode="&#x2116;" horiz-adv-x="2373" 
d="M1135 461v973h272v-1434h-387l-526 973h-52v-973h-272v1434h387l524 -973h54zM2273 578v-164h-682v164h682zM1929 1462q162 0 252 -106t90 -281q0 -176 -90 -281.5t-252 -105.5q-161 0 -249.5 105.5t-88.5 281.5q0 175 88.5 281t249.5 106zM2081 1075q0 101 -39.5 160
t-112.5 59t-111 -59t-38 -160q0 -102 38 -160.5t111 -58.5q74 0 113 58.5t39 160.5z" />
    <glyph glyph-name="trademark" unicode="&#x2122;" horiz-adv-x="1761" 
d="M838 1462h266l123 -307h30l117 307h268v-776h-163v567h-33l-123 -309h-166l-123 309h-30v-567h-166v776zM45 1462h662v-157h-244v-619h-176v619h-242v157z" />
    <glyph glyph-name="Omega" unicode="&#x2126;" horiz-adv-x="1576" 
d="M1241 293v-53h236v-240h-603v250q291 198 291 524q0 205 -102.5 324t-271.5 119q-172 0 -274.5 -119t-102.5 -324q0 -329 288 -524v-250h-600v240h236v53q-238 194 -238 510q0 299 185 493q187 193 506 193q317 0 501 -193q185 -194 185 -493q0 -323 -236 -510z" />
    <glyph glyph-name="arrowleft" unicode="&#x2190;" horiz-adv-x="1654" 
d="M86 528l526 525h340l-354 -351v-53h950v-243h-950v-54l354 -352h-340z" />
    <glyph glyph-name="arrowup" unicode="&#x2191;" horiz-adv-x="1378" 
d="M690 1462l527 -526v-340l-353 354h-53v-950h-244v950h-53l-352 -354v340z" />
    <glyph glyph-name="arrowright" unicode="&#x2192;" horiz-adv-x="1654" 
d="M1057 702l-355 351h340l527 -525l-527 -528h-340l355 352v54h-951v243h951v53z" />
    <glyph glyph-name="arrowdown" unicode="&#x2193;" horiz-adv-x="1378" 
d="M688 0l-526 526v340l352 -354h53v950h244v-950h53l353 354v-340z" />
    <glyph glyph-name="uni2196" unicode="&#x2196;" horiz-adv-x="1443" 
d="M162 1462h745l240 -239h-500l-37 -37l672 -672l-172 -174l-672 674l-39 -39v-500l-237 242v745z" />
    <glyph glyph-name="uni2197" unicode="&#x2197;" horiz-adv-x="1443" 
d="M797 1223h-500l240 239h745v-745l-238 -242v500l-38 39l-672 -674l-172 174l672 672z" />
    <glyph glyph-name="uni2198" unicode="&#x2198;" horiz-adv-x="1443" 
d="M647 240h500l-240 -240h-745v745l237 242v-500l39 -38l672 673l172 -174l-672 -672z" />
    <glyph glyph-name="uni2199" unicode="&#x2199;" horiz-adv-x="1443" 
d="M1282 0h-745l-240 240h500l37 36l-672 672l172 174l672 -673l38 38v500l238 -242v-745z" />
    <glyph glyph-name="partialdiff" unicode="&#x2202;" horiz-adv-x="1261" 
d="M881 504q0 135 -64.5 215t-185.5 80q-124 0 -189 -80t-65 -215q0 -133 66 -213t188 -80q121 0 185.5 80t64.5 213zM295 1489h342q78 -54 142.5 -112t133.5 -144q74 -86 129 -189q58 -100 92.5 -232t34.5 -267q0 -259 -143 -414q-143 -158 -399 -158q-247 0 -391 150
t-144 383q0 230 125 373q127 145 315 145q158 0 226 -68h57q-108 250 -520 533z" />
    <glyph glyph-name="increment" unicode="&#x2206;" horiz-adv-x="1337" 
d="M518 1434h299l436 -1145v-289h-1171v289zM334 236h670v53l-308 815h-55l-307 -815v-53z" />
    <glyph glyph-name="product" unicode="&#x220f;" horiz-adv-x="1275" 
d="M1028 1237v-1647h-244v1647h-292v-1647h-244v1647h-195v225h1170v-225h-195z" />
    <glyph glyph-name="summation" unicode="&#x2211;" horiz-adv-x="1169" 
d="M418 319v-51h700v-268h-1048v319l360 386v53l-346 385v319h997v-268h-653v-51l311 -352v-121z" />
    <glyph glyph-name="minus" unicode="&#x2212;" horiz-adv-x="1378" 
d="M1217 715v-244h-1055v244h1055z" />
    <glyph glyph-name="radical" unicode="&#x221a;" horiz-adv-x="1366" 
d="M377 0l-311 1053h239l215 -762h53l349 1143h391v-213h-217l-383 -1221h-336z" />
    <glyph glyph-name="infinity" unicode="&#x221e;" horiz-adv-x="1873" 
d="M911 664h52q75 82 112 114q44 41 129 86q83 45 172 45q151 0 243.5 -90t92.5 -241t-93 -241.5t-243 -90.5q-87 0 -172 43q-86 48 -129 86q-32 30 -112 117h-52q-80 -87 -112 -117q-45 -39 -131 -86q-82 -43 -170 -43q-150 0 -243 90.5t-93 241.5t92.5 241t243.5 90
q90 0 170 -45q86 -44 131 -86q37 -32 112 -114zM848 578q-59 71 -98 108q-46 48 -114 83.5t-132 35.5q-100 0 -165 -62t-65 -165t65 -165.5t165 -62.5q70 0 137 37q62 35 102.5 74t104.5 117zM1026 578q56 -68 96 -111q49 -47 116.5 -82t131.5 -35q100 0 164.5 62.5
t64.5 165.5t-64.5 165t-164.5 62q-72 0 -137 -39q-62 -34 -103 -72.5t-104 -115.5z" />
    <glyph glyph-name="integral" unicode="&#x222b;" horiz-adv-x="1056" 
d="M934 1489h100v-240h-84q-97 0 -147.5 -53t-69.5 -170l-176 -1001q-41 -231 -157 -333t-326 -102h-101v240h84q97 0 147.5 53t69.5 170l177 1002q41 231 157 332.5t326 101.5z" />
    <glyph glyph-name="approxequal" unicode="&#x2248;" horiz-adv-x="1374" 
d="M1016 993h196q0 -180 -76 -271t-218 -91q-44 -2 -98 17.5t-103.5 48t-96 56.5t-89 47t-70.5 17q-103 0 -103 -145h-196q0 180 77 271t216 91q55 3 125.5 -26.5t125.5 -66t114 -66t93 -27.5q103 0 103 145zM1016 532h196q0 -180 -76 -271t-218 -91q-59 0 -127.5 26.5
t-122.5 65.5q-127 94 -207 94q-103 0 -103 -145h-196q0 180 77 271t216 91q45 2 99 -17.5t103 -48t95.5 -56.5t89.5 -47t71 -17q103 0 103 145z" />
    <glyph glyph-name="notequal" unicode="&#x2260;" horiz-adv-x="1376" 
d="M758 502h456v-244h-612l-151 -240h-254l151 240h-186v244h344l115 180h-459v244h614l154 239h250l-152 -239h186v-244h-342z" />
    <glyph glyph-name="lessequal" unicode="&#x2264;" horiz-adv-x="1378" 
d="M1217 557v-248l-1055 320v245l1055 291v-245l-619 -156v-51zM1217 0h-1055v244h1055v-244z" />
    <glyph glyph-name="greaterequal" unicode="&#x2265;" horiz-adv-x="1378" 
d="M1217 874v-245l-1055 -320v248l618 156v51l-618 156v245zM162 244h1055v-244h-1055v244z" />
    <glyph glyph-name="lozenge" unicode="&#x25ca;" horiz-adv-x="1175" 
d="M463 1462h250l354 -731l-354 -731h-250l-357 731zM561 328h53l183 403l-183 404h-53l-182 -404z" />
    <glyph glyph-name="commaaccent" unicode="&#xf6c3;" horiz-adv-x="460" 
d="M385 -348l-139 -127h-168l141 127v43h-121v194h287v-237z" />
    <glyph glyph-name="NULL" horiz-adv-x="0" 
 />
    <glyph glyph-name="CR" horiz-adv-x="681" 
 />
    <glyph glyph-name="zero.numr" horiz-adv-x="794" 
d="M721 1071q0 -197 -87.5 -300t-238.5 -103t-237 103t-86 300q0 198 86 302t237 104q153 0 239.5 -103.5t86.5 -302.5zM395 834q71 0 106.5 66t35.5 171q0 240 -142 240q-139 0 -139 -240q0 -237 139 -237z" />
    <glyph glyph-name="one.numr" horiz-adv-x="688" 
d="M442 1462v-620h172v-160h-542v160h184v426h-39l-145 -88v174l186 108h184z" />
    <glyph glyph-name="two.numr" horiz-adv-x="757" 
d="M365 881v-39h319v-160h-612v197l227 141q91 55 133.5 98.5t42.5 91.5q0 101 -104 101q-110 0 -113 -105h-186q4 129 85.5 200t219.5 71q129 0 207 -68t78 -188q0 -145 -154 -248z" />
    <glyph glyph-name="three.numr" horiz-adv-x="753" 
d="M500 1190v-37q78 -11 130 -69t52 -148q0 -121 -86 -194.5t-223 -73.5q-138 0 -224.5 74.5t-91.5 193.5h185q9 -102 131 -102q57 0 91 28.5t34 77.5q0 53 -32.5 81t-90.5 28q-39 0 -76 -11v148l121 80v37h-309v159h532v-192z" />
    <glyph glyph-name="four.numr" horiz-adv-x="776" 
d="M610 1462v-465h95v-159h-95v-156h-180v156h-371v188l334 436h217zM231 1034v-37h205v258h-39z" />
    <glyph glyph-name="five.numr" horiz-adv-x="763" 
d="M434 1217q111 0 183.5 -74.5t72.5 -190.5q0 -127 -86 -207q-86 -77 -217 -77q-139 0 -223 73.5t-92 194.5h186q12 -107 123 -107q57 0 90 33t33 90t-32.5 89t-88.5 32q-78 0 -123 -57h-168l39 446h508v-159h-369l-8 -125h41q42 39 131 39z" />
    <glyph glyph-name="six.numr" horiz-adv-x="774" 
d="M438 1206q109 0 185 -73q77 -74 77 -185q0 -116 -84 -200q-83 -80 -215 -80q-329 0 -329 391q0 194 84.5 306t246.5 112q108 0 185.5 -63.5t91.5 -158.5h-180q-21 72 -101 72q-63 0 -104.5 -45t-48.5 -131h39q55 55 153 55zM516 944q0 56 -33 87.5t-88 31.5
q-54 0 -90 -31q-33 -31 -33 -88t35 -92q26 -25 64 -30.5t71.5 6t55.5 42.5t18 74z" />
    <glyph glyph-name="seven.numr" horiz-adv-x="706" 
d="M72 1303v159h561v-200l-303 -580h-193l299 580v41h-364z" />
    <glyph glyph-name="eight.numr" horiz-adv-x="778" 
d="M389 1335q-68 5 -96.5 -42.5t0 -95.5t96.5 -44q49 0 79 26.5t30 65.5q0 37 -31 63.5t-78 26.5zM518 922q0 44 -34 73t-95 29t-96 -29t-35 -73q0 -46 35 -75.5t96 -29.5t95 29.5t34 75.5zM186 1081v35q-84 50 -84 148q0 93 78 153t209 60t208 -59.5t77 -153.5
q0 -98 -84 -148v-35q115 -53 115 -180q0 -100 -87 -166.5t-231 -66.5t-229.5 66.5t-85.5 166.5q0 127 114 180z" />
    <glyph glyph-name="nine.numr" horiz-adv-x="774" 
d="M334 938q-110 0 -187 74q-75 72 -75 184q0 120 82 199q82 82 217 82q329 0 329 -392q0 -194 -84.5 -305.5t-246.5 -111.5q-108 0 -185.5 63t-91.5 158h180q21 -72 101 -72q63 0 104.5 45t48.5 131h-39q-55 -55 -153 -55zM256 1200q0 -56 33 -87.5t88 -31.5q52 0 88 31
q35 31 35 88.5t-35 89.5q-26 26 -64 32.5t-71 -5.5t-55.5 -43t-18.5 -74z" />
    <glyph glyph-name="zero.dnom" horiz-adv-x="794" 
d="M721 389q0 -197 -87.5 -300t-238.5 -103t-237 103t-86 300q0 198 86 302t237 104q153 0 239.5 -103.5t86.5 -302.5zM395 152q71 0 106.5 66t35.5 171q0 240 -142 240q-139 0 -139 -240q0 -237 139 -237z" />
    <glyph glyph-name="one.dnom" horiz-adv-x="688" 
d="M442 780v-620h172v-160h-542v160h184v426h-39l-145 -88v174l186 108h184z" />
    <glyph glyph-name="two.dnom" horiz-adv-x="757" 
d="M365 199v-39h319v-160h-612v197l227 141q91 55 133.5 98.5t42.5 91.5q0 101 -104 101q-110 0 -113 -105h-186q4 129 85.5 200t219.5 71q129 0 207 -68t78 -188q0 -145 -154 -248z" />
    <glyph glyph-name="three.dnom" horiz-adv-x="755" 
d="M502 508v-37q78 -11 130 -69t52 -148q0 -121 -86 -194.5t-223 -73.5q-138 0 -224.5 74.5t-91.5 193.5h185q9 -102 131 -102q57 0 91 28.5t34 77.5q0 53 -32.5 81t-90.5 28q-39 0 -76 -11v148l121 80v37h-309v159h532v-192z" />
    <glyph glyph-name="four.dnom" horiz-adv-x="776" 
d="M610 780v-465h95v-159h-95v-156h-180v156h-371v188l334 436h217zM231 352v-37h205v258h-39z" />
    <glyph glyph-name="five.dnom" horiz-adv-x="763" 
d="M434 535q111 0 183.5 -74.5t72.5 -190.5q0 -127 -86 -207q-86 -77 -217 -77q-139 0 -223 73.5t-92 194.5h186q12 -107 123 -107q57 0 90 33t33 90t-32.5 89t-88.5 32q-78 0 -123 -57h-168l39 446h508v-159h-369l-8 -125h41q42 39 131 39z" />
    <glyph glyph-name="six.dnom" horiz-adv-x="774" 
d="M438 524q109 0 185 -73q77 -74 77 -185q0 -116 -84 -200q-83 -80 -215 -80q-329 0 -329 391q0 194 84.5 306t246.5 112q108 0 185.5 -63.5t91.5 -158.5h-180q-21 72 -101 72q-63 0 -104.5 -45t-48.5 -131h39q55 55 153 55zM516 262q0 56 -33 87.5t-88 31.5q-54 0 -90 -31
q-33 -31 -33 -88t35 -92q26 -25 64 -31t71.5 5.5t55.5 43t18 74.5z" />
    <glyph glyph-name="seven.dnom" horiz-adv-x="706" 
d="M72 621v159h561v-200l-303 -580h-193l299 580v41h-364z" />
    <glyph glyph-name="eight.dnom" horiz-adv-x="778" 
d="M389 653q-68 5 -96.5 -42.5t0 -95.5t96.5 -44q49 0 79 26.5t30 65.5q0 37 -31 63.5t-78 26.5zM518 240q0 44 -34 73t-95 29t-96 -29t-35 -73q0 -46 35 -75.5t96 -29.5t95 29.5t34 75.5zM186 399v35q-84 50 -84 148q0 93 78 153t209 60t208 -59.5t77 -153.5
q0 -98 -84 -148v-35q115 -53 115 -180q0 -100 -87 -166.5t-231 -66.5t-229.5 66.5t-85.5 166.5q0 127 114 180z" />
    <glyph glyph-name="nine.dnom" horiz-adv-x="774" 
d="M334 256q-110 0 -187 74q-75 72 -75 184q0 120 82 199q82 82 217 82q329 0 329 -392q0 -194 -84.5 -305.5t-246.5 -111.5q-108 0 -185.5 63t-91.5 158h180q21 -72 101 -72q63 0 104.5 45t48.5 131h-39q-55 -55 -153 -55zM256 518q0 -56 33 -87.5t88 -31.5q52 0 88 31
q35 31 35 88.5t-35 89.5q-26 26 -64 32.5t-71 -5.5t-55.5 -43t-18.5 -74z" />
    <glyph glyph-name="zero.onum" horiz-adv-x="1280" 
d="M641 1079q243 0 399 -153q156 -150 156 -400q0 -248 -156 -401q-158 -152 -399 -152t-399 152q-156 153 -156 401q0 250 156 400q156 153 399 153zM442 307q70 -82 199 -82t199 82q69 81 69 219t-69 219q-70 82 -199 82t-199 -82q-69 -81 -69 -219t69 -219z" />
    <glyph glyph-name="one.onum" horiz-adv-x="1048" 
d="M963 0h-840v246h291v524h-56l-235 -152v281l235 154h344v-807h261v-246z" />
    <glyph glyph-name="two.onum" horiz-adv-x="1140" 
d="M586 246h477v-246h-979v283l414 194q137 63 187 108t50 111q0 62 -46.5 98.5t-127.5 36.5q-191 0 -188 -178h-289q-3 187 127 305q133 121 356 121q217 0 336 -104q119 -101 119 -252q0 -116 -63 -194.5t-193 -143.5l-180 -88v-51z" />
    <glyph glyph-name="three.onum" horiz-adv-x="1228" 
d="M141 807v246h920v-297l-277 -209v-51q158 -14 255.5 -122.5t97.5 -287.5q0 -222 -152 -356q-151 -133 -391 -133t-389 131q-150 132 -156 331h287q12 -96 83 -153.5t175 -57.5q116 0 186 66.5t70 171.5q0 109 -69 174.5t-187 65.5q-66 0 -131 -15v240l274 205v51h-596z
" />
    <glyph glyph-name="four.onum" horiz-adv-x="1298" 
d="M1038 1053v-807h181v-246h-181v-381h-280v381h-684v299l626 754h338zM350 299v-53h418v499h-53z" />
    <glyph glyph-name="five.onum" horiz-adv-x="1277" 
d="M723 598q197 0 326 -135q131 -131 131 -346q0 -233 -150 -377q-146 -143 -379 -143q-243 0 -387 129q-143 128 -155 333h286q14 -99 79 -155t167 -56q115 0 183.5 72.5t68.5 190.5q0 121 -69 190.5t-181 69.5q-148 0 -225 -109h-275l64 791h883v-246h-658l-22 -295h53
q103 86 260 86z" />
    <glyph glyph-name="six.onum" horiz-adv-x="1271" 
d="M733 952q195 0 328 -133q131 -131 131 -338q0 -216 -143 -362q-146 -146 -379 -146q-263 0 -416 170q-152 175 -152 547q0 352 144 561q144 211 432 211q189 0 321 -108q135 -111 156 -271h-287q-35 140 -196 140q-129 0 -205 -99t-86 -286h53q102 114 299 114zM662 723
q-108 0 -176 -67.5t-68 -182.5q0 -119 69 -188q70 -70 177 -70q106 0 174 68q67 67 67 188q0 119 -66 185.5t-177 66.5z" />
    <glyph glyph-name="seven.onum" horiz-adv-x="1173" 
d="M1075 1053v-303l-573 -1131h-301l573 1131v53h-674v250h975z" />
    <glyph glyph-name="eight.onum" horiz-adv-x="1292" 
d="M983 786v-53q91 -35 152 -122t61 -208q0 -180 -145 -307q-144 -123 -404 -123q-258 0 -405 123q-146 128 -146 307q0 121 61 208t152 122v53q-73 40 -119.5 114.5t-46.5 176.5q0 166 136 275q137 110 368 110q233 0 367 -110q135 -108 135 -275q0 -103 -46.5 -177
t-119.5 -114zM647 1237q-98 0 -161.5 -54t-63.5 -136t63.5 -137.5t161.5 -55.5q99 0 162 55t63 138q0 82 -63 136t-162 54zM909 430q0 93 -71 154t-191 61q-121 0 -192.5 -61t-71.5 -154q0 -94 71 -154.5t193 -60.5t192 60t70 155z" />
    <glyph glyph-name="nine.onum" horiz-adv-x="1271" 
d="M535 100q-195 0 -326 131t-131 340q0 217 141 361q144 147 379 147q264 0 414 -172q153 -172 153 -545q0 -355 -143 -559q-144 -206 -432 -206q-191 0 -322 110q-131 107 -155 270h288q35 -141 195 -141q131 0 207 96t86 283h-53q-103 -115 -301 -115zM606 838
q-110 0 -175.5 -68t-65.5 -188q0 -119 66 -185.5t177 -66.5q106 0 174 67.5t68 182.5q0 117 -68.5 187.5t-175.5 70.5z" />
    <glyph glyph-name="zero.tnum" horiz-adv-x="1290" 
d="M643 1462q256 0 408 -186q155 -183 155 -559q0 -373 -155 -559q-153 -185 -408 -185q-259 0 -409 190t-150 554q0 366 150 555.5t409 189.5zM381 717q0 -190 39 -297l358 737q-52 43 -135 43q-262 0 -262 -483zM645 236q266 0 266 481q0 188 -39 295l-358 -736
q52 -40 131 -40z" />
    <glyph glyph-name="one.tnum" horiz-adv-x="1290" 
d="M1167 0h-1038v256h410v883h-52l-266 -176v292l266 179h347v-1178h333v-256z" />
    <glyph glyph-name="two.tnum" horiz-adv-x="1290" 
d="M406 1001h-295q10 220 149.5 340.5t374.5 120.5q222 0 360 -123q138 -120 138 -338q0 -253 -267 -458l-301 -234v-53h606v-256h-1058v307l491 367q119 87 175.5 160t56.5 161q0 99 -55.5 152t-153.5 53q-203 0 -221 -199z" />
    <glyph glyph-name="three.tnum" horiz-adv-x="1290" 
d="M178 1186v248h922v-301l-275 -203v-56q158 -14 255.5 -122.5t97.5 -288.5q0 -224 -154 -357q-151 -133 -393 -133q-240 0 -389 131q-150 132 -156 332h295q12 -96 78.5 -148t171.5 -52q116 0 184 62t68 167q0 110 -66 172.5t-186 62.5q-82 0 -131 -14v244l274 203v53
h-596z" />
    <glyph glyph-name="four.tnum" horiz-adv-x="1290" 
d="M1044 1434v-871h179v-256h-179v-307h-284v307h-682v309l627 818h339zM354 616v-53h416v539h-53z" />
    <glyph glyph-name="five.tnum" horiz-adv-x="1290" 
d="M731 977q196 0 328 -135q131 -134 131 -348q0 -233 -150 -377t-381 -144q-245 0 -389 129q-143 128 -155 334h295q12 -98 73 -149t166 -51q112 0 179 68.5t67 184.5q0 121 -66.5 188.5t-177.5 67.5q-149 0 -227 -106h-274l63 795h885v-248h-656l-22 -293h53
q110 84 258 84z" />
    <glyph glyph-name="six.tnum" horiz-adv-x="1290" 
d="M733 952q197 0 330 -133t133 -338q0 -214 -145 -362q-146 -146 -381 -146q-262 0 -418 170q-154 174 -154 547q0 347 146 561q144 211 434 211q191 0 323 -108q137 -110 158 -271h-293q-41 136 -194 136q-129 0 -205 -97.5t-86 -281.5h53q97 112 299 112zM899 471
q0 117 -64.5 182.5t-172.5 65.5t-173 -65t-65 -181q0 -117 66.5 -185.5t173.5 -68.5q108 0 171.5 66t63.5 186z" />
    <glyph glyph-name="seven.tnum" horiz-adv-x="1290" 
d="M1122 1434v-308l-573 -1126h-307l575 1126v52h-674v256h979z" />
    <glyph glyph-name="eight.tnum" horiz-adv-x="1290" 
d="M987 786v-53q91 -35 152 -122t61 -208q0 -181 -147 -307q-144 -123 -406 -123q-260 0 -407 123q-146 128 -146 307q0 121 61 208t152 122v53q-166 88 -166 291q0 167 138 275q137 110 368 110q232 0 369 -110q137 -107 137 -275q0 -102 -46.5 -176.5t-119.5 -114.5z
M647 1235q-98 0 -159.5 -53t-61.5 -135q0 -85 61.5 -138t159.5 -53q99 0 160 53t61 138q0 82 -61 135t-160 53zM907 432q0 93 -70 153t-190 60q-125 0 -192 -61q-68 -59 -68 -152q0 -91 68 -153q69 -60 192 -60q122 0 191 59t69 154z" />
    <glyph glyph-name="nine.tnum" horiz-adv-x="1290" 
d="M557 483q-199 0 -330 131q-133 133 -133 340q0 217 144 361q144 147 383 147q262 0 415 -172q156 -170 156 -545q0 -348 -145 -561q-144 -211 -435 -211q-189 0 -325 109q-136 111 -156 270h293q40 -135 194 -135q129 0 205 97.5t86 281.5h-53q-98 -113 -299 -113z
M391 965q0 -117 65 -182.5t173 -65.5t172.5 65t64.5 181q0 117 -66 185.5t-173 68.5q-108 0 -172 -66.5t-64 -185.5z" />
    <glyph glyph-name="dollar.tnum" horiz-adv-x="1290" 
d="M582 1462v172h129v-174q185 -20 306 -134t144 -288h-291q-35 142 -159 166v-346l106 -22q381 -76 381 -412q0 -184 -125 -309q-127 -127 -362 -142v-174h-129v178q-219 19 -344 139.5t-150 329.5h291q34 -181 203 -215v394l-105 20q-346 70 -346 387q0 174 119 293
q119 122 332 137zM750 590l-39 8v-373q88 8 142 58t54 125q0 141 -157 182zM582 883v325q-74 -11 -116 -53.5t-42 -110.5q0 -126 158 -161z" />
    <glyph glyph-name="Euro.tnum" horiz-adv-x="1290" 
d="M444 653h324l-47 -141h-262q41 -276 266 -276q95 0 155 60t72 159h289q-36 -229 -169 -355.5t-347 -126.5q-225 0 -370.5 142t-186.5 397h-154l47 141h91q-3 47 0 125h-138l49 142h103q41 254 188 398t369 144q208 0 337.5 -117t168.5 -327h-293q-35 182 -211 182
q-225 0 -266 -280h401l-49 -142h-367q-6 -64 0 -125z" />
    <glyph glyph-name="sterling.tnum" horiz-adv-x="1290" 
d="M487 309v-53h732v-256h-1133v256h35q127 0 127 176v127h-160v229h160v203q0 217 121.5 344t339.5 127q212 0 333 -120t127 -324h-292q-6 182 -164 182q-172 0 -172 -196v-216h428v-229h-428v-96q0 -106 -54 -154z" />
    <glyph glyph-name="yen.tnum" horiz-adv-x="1290" 
d="M403 649h-237v142h174l-293 643h293l274 -643h58l276 643h295l-295 -643h174v-142h-235l-58 -125h293v-141h-329v-383h-295v383h-332v141h295z" />
    <glyph glyph-name="uni20BD.tnum" horiz-adv-x="1290" 
d="M219 770v664h520q244 0 376 -118.5t132 -334.5q0 -218 -132.5 -338.5t-375.5 -120.5h-225v-125h358v-141h-358v-256h-295v256h-160v141h160v125h-160v248h160zM514 770h180q260 0 260 213q0 102 -61.5 152.5t-198.5 50.5h-180v-416z" />
    <glyph glyph-name="uni20B4.tnum" horiz-adv-x="1290" 
d="M66 518v141h1159v-141h-758q-12 -40 -12 -84q0 -97 58 -152t153 -55q177 0 217 166h299q-33 -200 -164.5 -310t-353.5 -110q-243 0 -373 127q-129 129 -129 318q0 54 12 100h-108zM66 784v142h751q27 46 27 104q0 82 -47 130t-129 48q-157 0 -191 -153h-291
q18 184 150 295q130 112 334 112q222 0 342 -123q123 -120 123 -299q0 -52 -19 -114h109v-142h-1159z" />
    <glyph glyph-name="uni20B8.tnum" horiz-adv-x="1290" 
d="M498 1026h-383v141h1061v-141h-383v-1026h-295v1026zM1176 1292h-1061v142h1061v-142z" />
    <glyph glyph-name="cent.tnum" horiz-adv-x="1290" 
d="M870 354h283q-20 -162 -137 -264.5t-297 -114.5v-139h-109v141q-217 19 -343 166.5t-126 382.5q0 233 127 381q126 150 342 168v142h109v-140q176 -10 291 -108.5t135 -251.5h-285q-30 109 -141 121v-623q61 6 100.5 42.5t50.5 96.5zM428 528q0 -126 46.5 -209
t135.5 -100v615q-89 -17 -135.5 -100t-46.5 -206z" />
    <glyph glyph-name="circumflex.cap" horiz-adv-x="858" 
d="M305 1835h248l223 -264h-227l-96 112h-54l-94 -112h-223z" />
    <glyph glyph-name="dieresis.cap" horiz-adv-x="806" 
d="M725 1835v-233h-240v233h240zM324 1835v-233h-242v233h242z" />
    <glyph glyph-name="acute.cap" horiz-adv-x="669" 
d="M274 1835h314l-240 -264h-260z" />
    <glyph glyph-name="grave.cap" horiz-adv-x="669" 
d="M588 1571h-262l-238 264h311z" />
    <glyph glyph-name="ring.cap" horiz-adv-x="647" 
d="M324 1982q101 0 170 -69q71 -68 71 -166q0 -97 -71 -168q-71 -68 -170 -68t-170 68q-72 72 -72 168q0 97 72 166q69 69 170 69zM324 1642q43 0 73.5 31t30.5 74t-30.5 73.5t-73.5 30.5q-42 0 -72.5 -30.5t-30.5 -73.5t31 -74t72 -31z" />
    <glyph glyph-name="caron.cap" horiz-adv-x="858" 
d="M553 1571h-248l-223 264h227l94 -113h54l96 113h223z" />
    <glyph glyph-name="dotaccent.cap" horiz-adv-x="454" 
d="M373 1835v-233h-291v233h291z" />
    <glyph glyph-name="breve.cap" horiz-adv-x="755" 
d="M504 1835h170q-5 -125 -81.5 -194.5t-215.5 -69.5q-138 0 -214 70t-81 194h172q3 -113 123 -113q58 0 92 29.5t35 83.5z" />
    <glyph glyph-name="hungarumlaut.cap" horiz-adv-x="974" 
d="M240 1835h276l-207 -264h-227zM618 1835h275l-209 -264h-225z" />
    <glyph glyph-name="tilde.cap" horiz-adv-x="847" 
d="M635 1835h131q0 -125 -54.5 -195.5t-156.5 -70.5q-70 0 -156 47q-82 49 -125 49q-34 0 -47.5 -22.5t-15.5 -71.5h-129q0 126 53.5 196t155.5 70q69 0 155 -47t129 -47q57 0 60 92z" />
    <glyph glyph-name="macron.cap" horiz-adv-x="782" 
d="M700 1796v-168h-618v168h618z" />
    <glyph glyph-name="cyrbreve" horiz-adv-x="931" 
d="M616 1470h222q-12 -147 -108 -227t-265 -80q-167 0 -263 80t-108 227h221q6 -57 44.5 -90.5t105.5 -33.5q136 0 151 124z" />
    <glyph glyph-name="cyrbreve.cap" horiz-adv-x="937" 
d="M631 1851h225q-12 -148 -114 -231.5t-273 -83.5t-273 83.5t-114 231.5h225q6 -57 49 -92t113 -35t112 34.5t50 92.5z" />
    <glyph glyph-name="hyphen.case" horiz-adv-x="800" 
d="M711 877v-248h-621v248h621z" />
    <glyph glyph-name="endash.case" horiz-adv-x="1271" 
d="M1180 864v-221h-1090v221h1090z" />
    <glyph glyph-name="emdash.case" horiz-adv-x="1798" 
d="M1708 864v-221h-1618v221h1618z" />
    <glyph glyph-name="emdash.ss02.case" horiz-adv-x="2957" 
d="M2867 864v-221h-2777v221h2777z" />
    <glyph glyph-name="bracketleft.case" horiz-adv-x="780" 
d="M672 20v-210h-531v1843h531v-211h-283v-1422h283z" />
    <glyph glyph-name="bracketright.case" horiz-adv-x="780" 
d="M639 1653v-1843h-530v210h282v1422h-282v211h530z" />
    <glyph glyph-name="braceleft.case" horiz-adv-x="874" 
d="M412 758v-53q63 -21 100 -81t37 -151v-235q0 -218 182 -218h72v-210h-115q-179 0 -283 101.5t-104 272.5v242q0 100 -34 147.5t-111 47.5h-50v221h50q77 0 111 47t34 147v242q0 171 104 273t283 102h115v-211h-72q-182 0 -182 -217v-236q0 -91 -37 -150.5t-100 -80.5z
" />
    <glyph glyph-name="braceright.case" horiz-adv-x="874" 
d="M463 705v53q-63 21 -100 80.5t-37 150.5v236q0 217 -183 217h-71v211h114q179 0 283 -102t104 -273v-242q0 -100 34.5 -147t111.5 -47h49v-221h-49q-77 0 -111.5 -47.5t-34.5 -147.5v-242q0 -171 -104 -272.5t-283 -101.5h-114v210h71q183 0 183 218v235q0 91 37 151
t100 81z" />
    <glyph glyph-name="parenleft.case" horiz-adv-x="665" 
d="M338 735q0 -480 319 -925h-249q-318 386 -318 925q0 533 311 918h250q-313 -445 -313 -918z" />
    <glyph glyph-name="parenright.case" horiz-adv-x="665" 
d="M328 735q0 472 -314 918h250q311 -385 311 -918q0 -540 -317 -925h-250q320 446 320 925z" />
    <glyph glyph-name="guillemotright.case" horiz-adv-x="1345" 
d="M625 326l350 374v54l-350 372h309l305 -315v-168l-305 -317h-309zM106 326l351 374v54l-351 372h310l305 -315v-168l-305 -317h-310z" />
    <glyph glyph-name="guillemotleft.case" horiz-adv-x="1345" 
d="M721 1126l-350 -372v-54l350 -374h-309l-306 317v168l306 315h309zM1239 1126l-350 -372v-54l350 -374h-309l-305 317v168l305 315h309z" />
    <glyph glyph-name="guilsinglright.case" horiz-adv-x="827" 
d="M106 326l351 374v54l-351 372h310l305 -315v-168l-305 -317h-310z" />
    <glyph glyph-name="guilsinglleft.case" horiz-adv-x="827" 
d="M721 1126l-350 -372v-54l350 -374h-309l-306 317v168l306 315h309z" />
    <glyph glyph-name="exclamdown.case" horiz-adv-x="706" 
d="M498 594v-594h-289v594l53 428h182zM197 1151v311h313v-311h-313z" />
    <glyph glyph-name="questiondown.case" horiz-adv-x="1183" 
d="M610 -27q-239 0 -370 116t-131 310q0 97 36 168q40 76 82 115q40 35 129 98q79 57 105 92.5t26 96.5v53h293v-53q0 -119 -45 -187q-46 -74 -155 -153q-2 -1 -7.5 -5.5t-14.5 -11t-19 -12.5q-37 -28 -70 -55q-14 -11 -20.5 -19t-13.5 -22.5t-11 -20.5q-18 -28 -18 -82
q0 -76 52.5 -125t143.5 -49q209 0 215 215h293q-3 -205 -133 -338q-128 -131 -367 -131zM479 1151v311h314v-311h-314z" />
    <glyph glyph-name="a.ss03" 
d="M539 1079q203 0 295 -123h53v97h276v-1053h-276v96h-53q-94 -123 -295 -123q-207 0 -328 154q-119 155 -119 399t121 398q119 155 326 155zM631 211q123 0 189.5 87.5t66.5 227.5t-66.5 227t-189.5 87q-122 0 -187 -85.5t-65 -228.5q0 -144 65.5 -229.5t186.5 -85.5z" />
    <glyph glyph-name="aacute.ss03" 
d="M539 1079q203 0 295 -123h53v97h276v-1053h-276v96h-53q-94 -123 -295 -123q-207 0 -328 154q-119 155 -119 399t121 398q119 155 326 155zM631 211q123 0 189.5 87.5t66.5 227.5t-66.5 227t-189.5 87q-122 0 -187 -85.5t-65 -228.5q0 -144 65.5 -229.5t186.5 -85.5z
M684 1489h303l-239 -297h-252z" />
    <glyph glyph-name="agrave.ss03" 
d="M539 1079q203 0 295 -123h53v97h276v-1053h-276v96h-53q-94 -123 -295 -123q-207 0 -328 154q-119 155 -119 399t121 398q119 155 326 155zM631 211q123 0 189.5 87.5t66.5 227.5t-66.5 227t-189.5 87q-122 0 -187 -85.5t-65 -228.5q0 -144 65.5 -229.5t186.5 -85.5z
M827 1192h-254l-237 297h301z" />
    <glyph glyph-name="acircumflex.ss03" 
d="M539 1079q203 0 295 -123h53v97h276v-1053h-276v96h-53q-94 -123 -295 -123q-207 0 -328 154q-119 155 -119 399t121 398q119 155 326 155zM631 211q123 0 189.5 87.5t66.5 227.5t-66.5 227t-189.5 87q-122 0 -187 -85.5t-65 -228.5q0 -144 65.5 -229.5t186.5 -85.5z
M543 1489h243l226 -297h-217l-107 135h-53l-105 -135h-213z" />
    <glyph glyph-name="adieresis.ss03" 
d="M539 1079q203 0 295 -123h53v97h276v-1053h-276v96h-53q-94 -123 -295 -123q-207 0 -328 154q-119 155 -119 399t121 398q119 155 326 155zM631 211q123 0 189.5 87.5t66.5 227.5t-66.5 227t-189.5 87q-122 0 -187 -85.5t-65 -228.5q0 -144 65.5 -229.5t186.5 -85.5z
M979 1489v-256h-240v256h240zM578 1489v-256h-242v256h242z" />
    <glyph glyph-name="atilde.ss03" 
d="M539 1079q203 0 295 -123h53v97h276v-1053h-276v96h-53q-94 -123 -295 -123q-207 0 -328 154q-119 155 -119 399t121 398q119 155 326 155zM631 211q123 0 189.5 87.5t66.5 227.5t-66.5 227t-189.5 87q-122 0 -187 -85.5t-65 -228.5q0 -144 65.5 -229.5t186.5 -85.5z
M866 1483h129q0 -135 -54 -211t-155 -76q-72 0 -155 57q-85 60 -121 60q-68 0 -68 -117h-129q0 135 54 211t155 76q68 0 156 -60q83 -57 123 -57q65 0 65 117z" />
    <glyph glyph-name="aring.ss03" 
d="M539 1079q203 0 295 -123h53v97h276v-1053h-276v96h-53q-94 -123 -295 -123q-207 0 -328 154q-119 155 -119 399t121 398q119 155 326 155zM631 211q123 0 189.5 87.5t66.5 227.5t-66.5 227t-189.5 87q-122 0 -187 -85.5t-65 -228.5q0 -144 65.5 -229.5t186.5 -85.5z
M653 1640q101 0 170 -69q72 -69 72 -166q0 -96 -72 -168q-71 -68 -170 -68t-170 68q-71 71 -71 168q0 98 71 166q69 69 170 69zM653 1303q43 0 74 30t31 72q0 43 -31 73.5t-74 30.5q-41 0 -71.5 -30.5t-30.5 -73.5q0 -42 30 -72t72 -30z" />
    <glyph glyph-name="amacron.ss03" 
d="M539 1079q203 0 295 -123h53v97h276v-1053h-276v96h-53q-94 -123 -295 -123q-207 0 -328 154q-119 155 -119 399t121 398q119 155 326 155zM631 211q123 0 189.5 87.5t66.5 227.5t-66.5 227t-189.5 87q-122 0 -187 -85.5t-65 -228.5q0 -144 65.5 -229.5t186.5 -85.5z
M981 1442v-174h-619v174h619z" />
    <glyph glyph-name="abreve.ss03" 
d="M539 1079q203 0 295 -123h53v97h276v-1053h-276v96h-53q-94 -123 -295 -123q-207 0 -328 154q-119 155 -119 399t121 398q119 155 326 155zM631 211q123 0 189.5 87.5t66.5 227.5t-66.5 227t-189.5 87q-122 0 -187 -85.5t-65 -228.5q0 -144 65.5 -229.5t186.5 -85.5z
M784 1489h170q0 -138 -77 -217.5t-218 -79.5t-219 79.5t-78 217.5h173q0 -139 124 -139q61 0 93 36t32 103z" />
    <glyph glyph-name="aogonek.ss03" 
d="M539 1079q203 0 295 -123h53v97h276v-1053q-119 -64 -119 -150q0 -42 32 -67t91 -25v-168h-61q-135 0 -205 53t-70 144q0 65 40.5 123.5t113.5 89.5h-98v96h-53q-94 -123 -295 -123q-207 0 -328 154q-119 155 -119 399t121 398q119 155 326 155zM631 211
q123 0 189.5 87.5t66.5 227.5t-66.5 227t-189.5 87q-122 0 -187 -85.5t-65 -228.5q0 -144 65.5 -229.5t186.5 -85.5z" />
    <glyph glyph-name="t.ss04" horiz-adv-x="778" 
d="M489 813v-813h-286v813h-154v240h154v295h286v-295h232v-240h-232z" />
    <glyph glyph-name="tcaron.ss04" horiz-adv-x="907" 
d="M807 1319v51h-137v248h301v-299l-156 -168h-164zM489 813v-813h-286v813h-154v240h154v295h286v-295h232v-240h-232z" />
    <glyph glyph-name="uni0163.ss04" horiz-adv-x="778" 
d="M489 813v-813h-286v813h-154v240h154v295h286v-295h232v-240h-232zM489 -348l-139 -127h-168l142 127v43h-121v194h286v-237z" />
    <glyph glyph-name="Y.ss05" horiz-adv-x="1396" 
d="M342 1462l342 -655h57l310 655h309l-701 -1462h-305l209 438l-540 1024h319z" />
    <glyph glyph-name="Yacute.ss05" horiz-adv-x="1396" 
d="M342 1462l342 -655h57l310 655h309l-701 -1462h-305l209 438l-540 1024h319zM723 1835h313l-239 -264h-260z" />
    <glyph glyph-name="Ydieresis.ss05" horiz-adv-x="1396" 
d="M342 1462l342 -655h57l310 655h309l-701 -1462h-305l209 438l-540 1024h319zM1022 1835v-233h-240v233h240zM621 1835v-233h-242v233h242z" />
    <glyph glyph-name="ampersand.ss06" horiz-adv-x="1394" 
d="M918 885h423v-242h-135v-178q0 -217 -155 -354q-153 -138 -402 -138q-255 0 -409 121q-152 125 -152 324q0 124 58 210t149 120v53q-152 81 -152 272q0 172 136 281q138 108 350 108q207 0 330.5 -96t146.5 -270h-289q-34 125 -194 125q-88 0 -141.5 -45t-53.5 -119
q0 -80 55.5 -126t153.5 -46h94v-242h-94q-258 0 -258 -209q0 -99 71.5 -155t198.5 -56q128 0 198.5 63t70.5 179v420z" />
    <glyph glyph-name="zero.ss07" horiz-adv-x="1323" 
d="M659 1462q256 0 408 -186q156 -184 156 -559q0 -371 -156 -559q-153 -185 -408 -185q-259 0 -409 190t-150 554q0 366 150 555.5t409 189.5zM397 717q0 -190 39 -297l359 737q-52 43 -136 43q-262 0 -262 -483zM662 236q266 0 266 481q0 188 -39 295l-359 -736
q52 -40 132 -40z" />
    <glyph glyph-name="emdash.ss02" horiz-adv-x="2957" 
d="M2867 690v-221h-2777v221h2777z" />
    <glyph glyph-name="uni0430.ss03" 
d="M539 1079q203 0 295 -123h53v97h276v-1053h-276v96h-53q-94 -123 -295 -123q-207 0 -328 154q-119 155 -119 399t121 398q119 155 326 155zM631 211q123 0 189.5 87.5t66.5 227.5t-66.5 227t-189.5 87q-122 0 -187 -85.5t-65 -228.5q0 -144 65.5 -229.5t186.5 -85.5z" />
    <glyph glyph-name="uni0423.ss08" horiz-adv-x="1400" 
d="M365 0h-74v289h65q139 0 191 106l24 51l-536 1016h321l338 -649h58l305 649h309l-541 -1134q-81 -175 -186 -254q-103 -74 -274 -74z" />
    <glyph glyph-name="uni040E.ss08" horiz-adv-x="1400" 
d="M365 0h-74v289h65q139 0 191 106l24 51l-536 1016h321l338 -649h58l305 649h309l-541 -1134q-81 -175 -186 -254q-103 -74 -274 -74zM881 1851h225q-12 -148 -114 -231.5t-273 -83.5t-273 83.5t-114 231.5h225q6 -57 49 -92t113 -35t112 34.5t50 92.5z" />
    <glyph glyph-name="quotedbl.ss01" horiz-adv-x="649" 
d="M233 969h-69v493h69v-493zM485 969h-69v493h69v-493z" />
    <glyph glyph-name="numbersign.ss01" horiz-adv-x="1128" 
d="M686 0h-72l66 426h-326l-65 -426h-70l66 426h-213v63h225l70 455h-209v64h219l67 426h70l-70 -426h330l68 426h69l-67 -426h213v-64h-223l-72 -455h211v-63h-221zM764 944h-328l-71 -455h327z" />
    <glyph glyph-name="quotesingle.ss01" horiz-adv-x="397" 
d="M233 969h-69v493h69v-493z" />
    <glyph glyph-name="parenleft.ss01" horiz-adv-x="487" 
d="M389 1554h86q-303 -382 -303 -921q0 -537 303 -922h-88q-285 387 -285 922q0 531 287 921z" />
    <glyph glyph-name="parenright.ss01" horiz-adv-x="491" 
d="M12 1554h86q287 -390 287 -921q0 -535 -285 -922h-88q303 385 303 922q0 539 -303 921z" />
    <glyph glyph-name="bracketleft.ss01" horiz-adv-x="528" 
d="M406 -225v-64h-242v1843h242v-63h-173v-1716h173z" />
    <glyph glyph-name="bracketright.ss01" horiz-adv-x="528" 
d="M365 1554v-1843h-242v64h172v1716h-172v63h242z" />
    <glyph glyph-name="braceleft.ss01" horiz-adv-x="690" 
d="M281 651v-37q73 -27 73 -186v-440q0 -113 44.5 -163t148.5 -50h61v-64h-61q-132 0 -197 66.5t-65 212.5v418q0 110 -18.5 152t-76.5 42h-26v62h26q58 0 76.5 42t18.5 152v418q0 146 65 212t197 66h61v-63h-61q-104 0 -148.5 -50t-44.5 -163v-440q0 -160 -73 -187z" />
    <glyph glyph-name="braceright.ss01" horiz-adv-x="690" 
d="M410 614v37q-74 27 -74 187v440q0 113 -44.5 163t-148.5 50h-61v63h61q132 0 197.5 -66t65.5 -212v-418q0 -110 18 -152t76 -42h26v-62h-26q-58 0 -76 -42t-18 -152v-418q0 -146 -65.5 -212.5t-197.5 -66.5h-61v64h61q104 0 148.5 50t44.5 163v440q0 159 74 186z" />
    <glyph glyph-name="asterisk.ss01" horiz-adv-x="925" 
d="M430 1094l-2 368h70l-2 -368l348 123l20 -72l-348 -113l219 -289l-57 -47l-215 301l-215 -301l-58 47l222 291l-351 111l23 72z" />
    <glyph glyph-name="plus.ss01" horiz-adv-x="1378" 
d="M162 625h495v493h68v-493h492v-64h-492v-495h-68v495h-495v64z" />
    <glyph glyph-name="minus.ss01" horiz-adv-x="1378" 
d="M1217 625v-64h-1055v64h1055z" />
    <glyph glyph-name="less.ss01" horiz-adv-x="1355" 
d="M264 573l930 -401v-68l-1032 443v90l1032 442v-67l-930 -402v-37z" />
    <glyph glyph-name="equal.ss01" horiz-adv-x="1376" 
d="M162 426h1052v-64h-1052v64zM162 819h1052v-63h-1052v63z" />
    <glyph glyph-name="greater.ss01" horiz-adv-x="1355" 
d="M1194 547l-1032 -443v68l930 401v37l-930 402v67l1032 -442v-90z" />
    <glyph glyph-name="hyphen.ss01" horiz-adv-x="813" 
d="M717 608v-63h-621v63h621z" />
    <glyph glyph-name="endash.ss01" horiz-adv-x="1271" 
d="M1180 608v-63h-1090v63h1090z" />
    <glyph glyph-name="emdash.ss01" horiz-adv-x="1800" 
d="M1708 608v-63h-1618v63h1618z" />
    <glyph glyph-name="emdash.ss01.ss02" horiz-adv-x="2957" 
d="M2867 608v-63h-2777v63h2777z" />
    <glyph glyph-name="underscore.ss01" horiz-adv-x="1050" 
d="M1053 -190v-64h-1055v64h1055z" />
    <glyph glyph-name="slash.ss01" horiz-adv-x="747" 
d="M686 1554l-612 -1843h-74l618 1843h68z" />
    <glyph glyph-name="bar.ss01" horiz-adv-x="438" 
d="M254 -289h-70v1843h70v-1843z" />
    <glyph glyph-name="backslash.ss01" horiz-adv-x="747" 
d="M129 1554l619 -1843h-74l-613 1843h68z" />
    <glyph glyph-name="degree.ss01" horiz-adv-x="944" 
d="M82 1071q0 175 111 289q114 117 278 117q165 0 279 -117q112 -112 112 -289q0 -174 -112 -289q-114 -114 -279 -114q-164 0 -278 114q-111 117 -111 289zM152 1071q0 -143 90 -244q90 -96 229 -96t229 96q93 101 93 244q0 147 -91 244q-88 98 -231 98q-141 0 -229 -98
q-90 -96 -90 -244z" />
    <glyph glyph-name="guillemotleft.ss01" horiz-adv-x="993" 
d="M541 991l-361 -381v-37l367 -383h-86l-355 361v80l349 360h86zM881 991l-361 -381v-37l367 -383h-86l-355 361v80l349 360h86z" />
    <glyph glyph-name="guillemotright.ss01" horiz-adv-x="989" 
d="M446 190l363 383v37l-363 381h86l351 -358v-80l-351 -363h-86zM106 190l363 383v37l-363 381h87l350 -358v-80l-350 -363h-87z" />
    <glyph glyph-name="guilsinglleft.ss01" horiz-adv-x="653" 
d="M541 991l-361 -381v-37l367 -383h-86l-355 361v80l349 360h86z" />
    <glyph glyph-name="guilsinglright.ss01" horiz-adv-x="653" 
d="M106 190l367 383v37l-360 381h86l348 -360v-80l-354 -361h-87z" />
    <glyph glyph-name="quoteleft.ss01" horiz-adv-x="479" 
d="M217 1284v-35h68v-209h-131v244l98 178h63z" />
    <glyph glyph-name="quoteright.ss01" horiz-adv-x="479" 
d="M252 1219v34h-68v209h131v-243l-98 -179h-63z" />
    <glyph glyph-name="quotesinglbase.ss01" horiz-adv-x="479" 
d="M252 -35v35h-68v209h131v-244l-98 -178h-63z" />
    <glyph glyph-name="quotedblleft.ss01" horiz-adv-x="759" 
d="M498 1284v-35h67v-209h-131v244l98 178h64zM217 1284v-35h68v-209h-131v244l98 178h63z" />
    <glyph glyph-name="quotedblright.ss01" horiz-adv-x="759" 
d="M252 1219v34h-68v209h131v-243l-98 -179h-63zM532 1219v34h-67v209h131v-243l-98 -179h-64z" />
    <glyph glyph-name="quotedblbase.ss01" horiz-adv-x="759" 
d="M252 -35v35h-68v209h131v-244l-98 -178h-63zM532 -35v35h-67v209h131v-244l-98 -178h-64z" />
    <glyph glyph-name="arrowleft.ss01" horiz-adv-x="1654" 
d="M86 528l526 525h95l-451 -451v-41h1292v-63h-1292v-43l451 -455h-95z" />
    <glyph glyph-name="arrowup.ss01" horiz-adv-x="1378" 
d="M690 1462l527 -526v-94l-453 454h-39v-1296h-70v1296h-39l-454 -454v94z" />
    <glyph glyph-name="arrowright.ss01" horiz-adv-x="1654" 
d="M1399 602l-451 451h94l527 -525l-527 -528h-94l451 455v43h-1293v63h1293v41z" />
    <glyph glyph-name="arrowdown.ss01" horiz-adv-x="1378" 
d="M764 166l453 455v-95l-527 -526l-528 526v95l454 -455h39v1296h70v-1296h39z" />
    <glyph glyph-name="uni2196.ss01" horiz-adv-x="1382" 
d="M162 1462h745l66 -65h-639l-27 -29l914 -917l-47 -48l-918 916l-27 -29v-641l-67 68v745z" />
    <glyph glyph-name="uni2197.ss01" horiz-adv-x="1382" 
d="M1049 1397h-639l65 65h746v-745l-68 -68v641l-27 29l-917 -916l-47 48l913 917z" />
    <glyph glyph-name="uni2198.ss01" horiz-adv-x="1382" 
d="M334 66h639l-66 -66h-745v745l67 68v-641l27 -29l918 916l47 -47l-914 -918z" />
    <glyph glyph-name="uni2199.ss01" horiz-adv-x="1382" 
d="M1221 0h-746l-65 66h639l26 28l-913 918l47 47l917 -916l27 29v641l68 -68v-745z" />
    <glyph glyph-name="parenleft.ss01.case" horiz-adv-x="487" 
d="M389 1653h86q-303 -382 -303 -922q0 -536 303 -921h-88q-285 387 -285 921q0 532 287 922z" />
    <glyph glyph-name="parenright.ss01.case" horiz-adv-x="487" 
d="M12 1653h86q287 -390 287 -922q0 -534 -285 -921h-88q303 385 303 921q0 540 -303 922z" />
    <glyph glyph-name="bracketleft.ss01.case" horiz-adv-x="528" 
d="M406 -127v-63h-242v1843h242v-64h-173v-1716h173z" />
    <glyph glyph-name="bracketright.ss01.case" horiz-adv-x="528" 
d="M365 1653v-1843h-242v63h172v1716h-172v64h242z" />
    <glyph glyph-name="braceleft.ss01.case" horiz-adv-x="690" 
d="M281 750v-37q73 -27 73 -187v-440q0 -113 44.5 -163t148.5 -50h61v-63h-61q-132 0 -197 66t-65 212v418q0 110 -18.5 152t-76.5 42h-26v62h26q58 0 76.5 42t18.5 152v418q0 146 65 212.5t197 66.5h61v-64h-61q-104 0 -148.5 -50t-44.5 -163v-440q0 -159 -73 -186z" />
    <glyph glyph-name="braceright.ss01.case" horiz-adv-x="690" 
d="M410 713v37q-74 27 -74 186v440q0 113 -44.5 163t-148.5 50h-61v64h61q132 0 197.5 -66.5t65.5 -212.5v-418q0 -110 18 -152t76 -42h26v-62h-26q-58 0 -76 -42t-18 -152v-418q0 -146 -65.5 -212t-197.5 -66h-61v63h61q104 0 148.5 50t44.5 163v440q0 160 74 187z" />
    <glyph glyph-name="guillemotleft.ss01.case" horiz-adv-x="993" 
d="M541 1126l-361 -381v-36l367 -383h-86l-355 360v80l349 360h86zM881 1126l-361 -381v-36l367 -383h-86l-355 360v80l349 360h86z" />
    <glyph glyph-name="guillemotright.ss01.case" horiz-adv-x="989" 
d="M446 326l363 383v36l-363 381h86l351 -358v-80l-351 -362h-86zM106 326l363 383v36l-363 381h87l350 -358v-80l-350 -362h-87z" />
    <glyph glyph-name="guilsinglleft.ss01.case" horiz-adv-x="653" 
d="M541 1126l-361 -381v-36l367 -383h-86l-355 360v80l349 360h86z" />
    <glyph glyph-name="guilsinglright.ss01.case" horiz-adv-x="653" 
d="M106 326l367 383v36l-360 381h86l348 -360v-80l-354 -360h-87z" />
    <glyph glyph-name="endash.ss01.case" horiz-adv-x="1271" 
d="M1180 782v-63h-1090v63h1090z" />
    <glyph glyph-name="hyphen.ss01.case" horiz-adv-x="813" 
d="M717 782v-63h-621v63h621z" />
    <glyph glyph-name="emdash.ss01.case" horiz-adv-x="1800" 
d="M1708 782v-63h-1618v63h1618z" />
    <glyph glyph-name="emdash.ss01.ss02.case" horiz-adv-x="2957" 
d="M2867 782v-63h-2777v63h2777z" />
    </font>
</defs>
</svg>
